SplineFontDB: 3.2
FontName: SeriousShannsItalic
FullName: Serious Shanns Italic
FamilyName: Serious Shanns Italic
Weight: Book
Copyright: https://github.com/kaBeech/serious-shanns/blob/main/LICENSE
Version: 6.0.0
ItalicAngle: -12.7
UnderlinePosition: 0
UnderlineWidth: 0
Ascent: 800
Descent: 200
InvalidEm: 0
sfntRevision: 0x00003333
LayerCount: 2
Layer: 0 0 "Back" 1
Layer: 1 0 "Fore" 0
XUID: [1021 45 630387186 1984481]
StyleMap: 0x0040
FSType: 4
OS2Version: 3
OS2_WeightWidthSlopeOnly: 0
OS2_UseTypoMetrics: 0
CreationTime: 1532631502
ModificationTime: 315532800
PfmFamily: 81
TTFWeight: 400
TTFWidth: 5
LineGap: 0
VLineGap: 0
Panose: 0 0 0 0 0 0 0 0 0 0
OS2TypoAscent: 613
OS2TypoAOffset: 0
OS2TypoDescent: -188
OS2TypoDOffset: 0
OS2TypoLinegap: 98
OS2WinAscent: 778
OS2WinAOffset: 0
OS2WinDescent: 308
OS2WinDOffset: 0
HheadAscent: 796
HheadAOffset: 0
HheadDescent: -317
HheadDOffset: 0
OS2SubXSize: 317
OS2SubYSize: 293
OS2SubXOff: 0
OS2SubYOff: 37
OS2SupXSize: 317
OS2SupYSize: 293
OS2SupXOff: 0
OS2SupYOff: 171
OS2StrikeYSize: 0
OS2StrikeYPos: 132
OS2CapHeight: 576
OS2XHeight: 485
OS2Vendor: 'NONE'
OS2CodePages: 00000001.00000000
OS2UnicodeRanges: 00000001.00000000.00000000.00000000
MarkAttachClasses: 1
DEI: 91125
LangName: 1033 "" "" "Normal" "" "" "Version 0.2.0"
Encoding: UnicodeBmp
Compacted: 1
UnicodeInterp: none
NameList: AGL For New Fonts
DisplaySize: -48
AntiAlias: 1
FitToEm: 0
WinInfo: 0 16 14
BeginPrivate: 0
EndPrivate
BeginChars: 65537 123

StartChar: .notdef
Encoding: 65536 -1 0
Width: 700
GlyphClass: 1
Flags: W
HStem: -268 54<96 394> 695 54<306 604>
LayerCount: 2
Fore
SplineSet
34 -268 m 1
 268 749 l 1
 667 749 l 1
 432 -268 l 1
 34 -268 l 1
96 -214 m 1
 394 -214 l 1
 604 695 l 1
 306 695 l 1
 96 -214 l 1
EndSplineSet
Validated: 1
EndChar

StartChar: exclam
Encoding: 33 33 12
Width: 700
GlyphClass: 2
Flags: HMW
HStem: -24.001 152.997
VStem: 206.997 151
LayerCount: 2
Fore
SplineSet
494 738 m 0
 492.666992188 732 481.330078125 688.166015625 459.997070312 606.499023438 c 0
 438.6640625 524.83203125 422.6640625 458.33203125 411.997070312 406.999023438 c 0
 401.330078125 356.999023438 394.330078125 327.166015625 390.997070312 317.499023438 c 0
 387.6640625 307.83203125 383.6640625 292.33203125 378.997070312 270.999023438 c 0
 374.330078125 256.33203125 366.330078125 244.83203125 354.997070312 236.499023438 c 0
 344.50390625 228.783203125 333.439453125 224.92578125 321.802734375 224.92578125 c 0
 320.87109375 224.92578125 319.935546875 224.950195312 318.997070312 225 c 0
 306.330078125 225 296.997070312 229.333007812 290.997070312 238 c 0
 287.8203125 242.587890625 286.232421875 248.297851562 286.232421875 255.127929688 c 0
 286.232421875 261.200195312 287.487304688 268.157226562 289.997070312 276.000976562 c 0
 293.330078125 286.000976562 296.830078125 295.66796875 300.497070312 305.000976562 c 0
 304.1640625 314.333984375 306.997070312 322.166992188 308.997070312 328.5 c 0
 310.997070312 334.833007812 314.830078125 349.833007812 320.497070312 373.5 c 0
 326.1640625 397.166992188 332.6640625 427.666992188 339.997070312 465 c 0
 344.6640625 491 350.331054688 518.5 356.998046875 547.5 c 0
 363.665039062 576.5 369.498046875 600.666992188 374.498046875 620 c 0
 379.498046875 639.333007812 385.165039062 661.333007812 391.498046875 686 c 0
 397.831054688 710.666992188 401.998046875 727 403.998046875 735 c 0
 408.665039062 753 416.33203125 766.666992188 426.999023438 776 c 0
 437.666015625 785.333007812 449.333007812 790 462 790 c 0
 462.953125 790.047851562 463.88671875 790.071289062 464.801757812 790.071289062 c 0
 476.696289062 790.071289062 485.428710938 786.047851562 491 778 c 0
 494.599609375 772.799804688 496.400390625 765.919921875 496.400390625 757.360351562 c 0
 496.400390625 751.653320312 495.599609375 745.200195312 494 738 c 0
265.99609375 -24.0009765625 m 0
 262.661132812 -24.3818359375 259.456054688 -24.572265625 256.379882812 -24.572265625 c 0
 237.93359375 -24.572265625 224.140625 -17.7177734375 214.998046875 -4.0048828125 c 0
 207.88671875 6.662109375 204.331054688 18.810546875 204.331054688 32.4404296875 c 0
 204.331054688 39.2548828125 205.219726562 46.439453125 206.997070312 53.9951171875 c 0
 211.6640625 73.9951171875 223.6640625 91.328125 242.997070312 105.995117188 c 0
 262.330078125 120.662109375 281.997070312 128.329101562 301.997070312 128.99609375 c 0
 302.975585938 129.025390625 303.94140625 129.041015625 304.896484375 129.041015625 c 0
 325.408203125 129.041015625 340.44140625 122.192382812 349.997070312 108.497070312 c 0
 356.815429688 98.724609375 360.224609375 87.3251953125 360.224609375 74.298828125 c 0
 360.224609375 68.2197265625 359.482421875 61.7861328125 357.997070312 54.998046875 c 0
 353.330078125 33.6650390625 342.663085938 15.83203125 325.99609375 1.4990234375 c 0
 309.329101562 -12.833984375 289.329101562 -21.333984375 265.99609375 -24.0009765625 c 0
EndSplineSet
Validated: 1
EndChar

StartChar: quotedbl
Encoding: 34 34 13
Width: 700
GlyphClass: 2
Flags: HMW
VStem: 197.996 306.002
LayerCount: 2
Fore
SplineSet
355 738 m 0
 349 710.666992188 338.165039062 665.830078125 322.498046875 603.497070312 c 0
 306.831054688 541.1640625 294.998046875 498.331054688 286.998046875 474.998046875 c 0
 282.331054688 461.665039062 274.6640625 451.665039062 263.997070312 444.998046875 c 0
 254.299804688 438.9375 244.87890625 435.907226562 235.733398438 435.907226562 c 0
 234.818359375 435.907226562 233.90625 435.9375 232.997070312 435.998046875 c 0
 220.330078125 436.665039062 210.163085938 440.83203125 202.49609375 448.499023438 c 0
 197.73046875 453.264648438 195.34765625 459.25390625 195.34765625 466.466796875 c 0
 195.34765625 470.857421875 196.23046875 475.701171875 197.99609375 480.999023438 c 0
 207.99609375 514.999023438 218.829101562 558.666015625 230.49609375 611.999023438 c 0
 242.163085938 665.33203125 251.330078125 709.33203125 257.997070312 743.999023438 c 0
 259.330078125 751.999023438 262.330078125 758.83203125 266.997070312 764.499023438 c 0
 271.6640625 770.166015625 276.997070312 774.333007812 282.997070312 777 c 0
 288.997070312 779.666992188 294.997070312 781.5 300.997070312 782.5 c 0
 306.997070312 783.5 312.997070312 783.666992188 318.997070312 783 c 0
 324.330078125 783 329.330078125 782.333007812 333.997070312 781 c 0
 338.6640625 779.666992188 342.831054688 777.5 346.498046875 774.5 c 0
 350.165039062 771.5 352.83203125 766.833007812 354.499023438 760.5 c 0
 356.166015625 754.166992188 356.333007812 746.666992188 355 738 c 0
503.998046875 737.99609375 m 0
 498.665039062 710.663085938 488.166992188 665.826171875 472.5 603.493164062 c 0
 456.833007812 541.16015625 444.666015625 498.327148438 435.999023438 474.994140625 c 0
 431.33203125 461.661132812 423.665039062 451.661132812 412.998046875 444.994140625 c 0
 403.30078125 438.93359375 393.879882812 435.903320312 384.734375 435.903320312 c 0
 383.819335938 435.903320312 382.907226562 435.93359375 381.998046875 435.994140625 c 0
 369.998046875 436.661132812 359.998046875 440.828125 351.998046875 448.495117188 c 0
 347.198242188 453.095703125 344.797851562 458.834960938 344.797851562 465.71484375 c 0
 344.797851562 470.301757812 345.865234375 475.395507812 347.998046875 480.995117188 c 0
 357.998046875 514.995117188 368.665039062 558.662109375 379.998046875 611.995117188 c 0
 391.331054688 665.328125 400.331054688 709.328125 406.998046875 743.995117188 c 0
 408.331054688 751.995117188 411.331054688 758.828125 415.998046875 764.495117188 c 0
 420.665039062 770.162109375 426.165039062 774.329101562 432.498046875 776.99609375 c 0
 438.831054688 779.663085938 444.831054688 781.49609375 450.498046875 782.49609375 c 0
 456.165039062 783.49609375 461.998046875 783.663085938 467.998046875 782.99609375 c 0
 473.998046875 782.99609375 479.165039062 782.329101562 483.498046875 780.99609375 c 0
 487.831054688 779.663085938 491.998046875 777.49609375 495.998046875 774.49609375 c 0
 499.998046875 771.49609375 502.831054688 766.829101562 504.498046875 760.49609375 c 0
 506.165039062 754.163085938 505.998046875 746.663085938 503.998046875 737.99609375 c 0
EndSplineSet
Validated: 1
EndChar

StartChar: numbersign
Encoding: 35 35 14
Width: 700
GlyphClass: 2
Flags: HMW
HStem: 192 82<470.999 490 438 508.999> 445 84<337.993 477.998 371.998 444.993 371.998 570.999 371.998 536.999>
LayerCount: 2
Fore
SplineSet
169 42 m 0
 161 28 149.326171875 16.5 133.993164062 7.5 c 0
 123.377929688 1.26953125 113.880859375 -1.845703125 105.501953125 -1.845703125 c 0
 101.778320312 -1.845703125 98.275390625 -1.23046875 94.9931640625 0 c 0
 84.326171875 2.6669921875 77.826171875 11.1669921875 75.4931640625 25.5 c 0
 74.998046875 28.5400390625 74.7509765625 31.6474609375 74.7509765625 34.822265625 c 0
 74.7509765625 46.6162109375 78.1650390625 59.341796875 84.994140625 72.9990234375 c 0
 94.3271484375 90.9990234375 111.994140625 129.666015625 137.994140625 188.999023438 c 1
 109.994140625 188.999023438 l 2
 94.6611328125 188.999023438 83.6611328125 192.33203125 76.994140625 198.999023438 c 0
 70.3271484375 205.666015625 68.3271484375 214.666015625 70.994140625 225.999023438 c 0
 72.994140625 237.999023438 78.6611328125 247.999023438 87.994140625 255.999023438 c 0
 97.3271484375 263.999023438 109.994140625 268.666015625 125.994140625 269.999023438 c 0
 130.661132812 269.999023438 138.161132812 270.166015625 148.494140625 270.499023438 c 0
 158.827148438 270.83203125 166.66015625 270.999023438 171.993164062 270.999023438 c 1
 243.993164062 443.999023438 l 1
 238.66015625 443.999023438 231.66015625 443.83203125 222.993164062 443.499023438 c 0
 214.326171875 443.166015625 208.326171875 442.999023438 204.993164062 442.999023438 c 0
 203.765625 442.9453125 202.567382812 442.918945312 201.3984375 442.918945312 c 0
 187.955078125 442.918945312 178.3203125 446.4453125 172.494140625 453.499023438 c 0
 166.161132812 461.166015625 164.328125 470.666015625 166.995117188 481.999023438 c 0
 168.995117188 493.999023438 174.828125 504.166015625 184.495117188 512.499023438 c 0
 194.162109375 520.83203125 207.329101562 525.33203125 223.99609375 525.999023438 c 0
 235.99609375 526.666015625 253.99609375 526.999023438 277.99609375 526.999023438 c 1
 319.329101562 627.666015625 340.329101562 679.666015625 340.99609375 682.999023438 c 0
 349.663085938 699.666015625 359.99609375 711.333007812 371.99609375 718 c 0
 379.99609375 722.4453125 387.700195312 724.666992188 395.108398438 724.666992188 c 0
 398.811523438 724.666992188 402.440429688 724.112304688 405.99609375 723.000976562 c 0
 418.663085938 720.333984375 427.330078125 713.666992188 431.997070312 703 c 0
 433.8125 698.8515625 434.719726562 694.19921875 434.719726562 689.041992188 c 0
 434.719726562 680.939453125 432.479492188 671.591796875 427.998046875 661 c 2
 371.998046875 529 l 1
 477.998046875 529 l 1
 535.998046875 675 l 2
 544.665039062 692.333007812 554.998046875 704.333007812 566.998046875 711 c 0
 574.998046875 715.4453125 582.850585938 717.666992188 590.5546875 717.666992188 c 0
 594.40625 717.666992188 598.220703125 717.112304688 601.998046875 716.000976562 c 0
 615.331054688 713.333984375 624.331054688 706.666992188 628.998046875 696 c 0
 630.631835938 692.266601562 631.448242188 688.125 631.448242188 683.57421875 c 0
 631.448242188 675.124023438 628.631835938 665.266601562 622.998046875 654 c 0
 609.665039062 626 592.665039062 585 571.998046875 531 c 1
 581.998046875 531 l 2
 596.665039062 531 608.165039062 526.5 616.498046875 517.5 c 0
 623.21875 510.2421875 626.579101562 502.658203125 626.579101562 494.75 c 0
 626.579101562 492.852539062 626.384765625 490.935546875 625.998046875 489 c 0
 623.331054688 477 617.331054688 466.833007812 607.998046875 458.5 c 0
 598.665039062 450.166992188 586.33203125 445.666992188 570.999023438 445 c 2
 536.999023438 445 l 1
 470.999023438 274 l 1
 508.999023438 274 l 2
 523.666015625 274 532.833007812 270.5 536.5 263.5 c 0
 540.166992188 256.5 541 247.333007812 539 236 c 0
 532.333007812 206.666992188 516 192 490 192 c 2
 438 192 l 1
 408 116 387 64.6669921875 375 38 c 0
 366.333007812 24 355 13.1669921875 341 5.5 c 0
 331.799804688 0.4619140625 323.17578125 -2.0576171875 315.127929688 -2.0576171875 c 0
 310.928710938 -2.0576171875 306.885742188 -1.37109375 303 0 c 0
 292.333007812 2.6669921875 285.5 10.5 282.5 23.5 c 0
 281.728515625 26.8427734375 281.342773438 30.3076171875 281.342773438 33.892578125 c 0
 281.342773438 44.25 284.561523438 55.619140625 291 68 c 0
 303.666992188 94.6669921875 321 135.666992188 343 191 c 1
 330.333007812 191 311.5 190.833007812 286.5 190.5 c 0
 261.5 190.166992188 243.333007812 190 232 190 c 1
 202 118 181 68.6669921875 169 42 c 0
337.993164062 445 m 1
 266.994140625 273.999023438 l 1
 292.327148438 274.666015625 328.66015625 274.999023438 375.993164062 274.999023438 c 1
 398.66015625 329.666015625 421.66015625 386.333007812 444.993164062 445 c 1
 337.993164062 445 l 1
EndSplineSet
Validated: 1
EndChar

StartChar: dollar
Encoding: 36 36 15
Width: 700
GlyphClass: 2
Flags: HMW
HStem: -28.9932 84.9932<220.001 257 231.001 257> 642.998 79.002
VStem: 216.001 82.999 475.502 93.998
LayerCount: 2
Fore
SplineSet
299 -99 m 0
 294.333007812 -113.666992188 286.333984375 -124.993164062 275.000976562 -132.993164062 c 0
 263.66796875 -140.993164062 251.66796875 -144.993164062 239.000976562 -144.993164062 c 0
 227.66796875 -144.993164062 220.000976562 -140.493164062 216.000976562 -131.493164062 c 0
 214.401367188 -127.893554688 213.600585938 -123.6796875 213.600585938 -118.853515625 c 0
 213.600585938 -111.61328125 215.401367188 -102.993164062 219.000976562 -92.9931640625 c 0
 223.66796875 -76.9931640625 229.000976562 -55.66015625 235.000976562 -28.9931640625 c 1
 231.000976562 -28.9931640625 l 2
 209.000976562 -28.9931640625 189.000976562 -25.9931640625 171.000976562 -19.9931640625 c 0
 153.000976562 -13.9931640625 138.000976562 -5.9931640625 126.000976562 4.0068359375 c 0
 114.000976562 14.0068359375 104.333984375 24.673828125 97.0009765625 36.0068359375 c 0
 89.66796875 47.33984375 84.0009765625 59.6728515625 80.0009765625 73.005859375 c 0
 78.71875 79.9287109375 78.078125 86.3583984375 78.078125 92.2958984375 c 0
 78.078125 101.794921875 79.71875 110.03125 83.0009765625 117.005859375 c 0
 88.333984375 128.338867188 96.6669921875 136.671875 108 142.004882812 c 0
 116 145.337890625 122.5 147.670898438 127.5 149.00390625 c 0
 132.5 150.336914062 137.5 150.669921875 142.5 150.002929688 c 0
 147.5 149.3359375 152 146.668945312 156 142.001953125 c 0
 160 137.334960938 164 130.66796875 168 122.000976562 c 0
 176 101.333984375 186.5 85.1669921875 199.5 73.5 c 0
 212.5 61.8330078125 231 56 255 56 c 2
 257 56 l 1
 284.333007812 167.333007812 307.666015625 266.666015625 326.999023438 353.999023438 c 1
 323.666015625 353.999023438 318.499023438 354.666015625 311.499023438 355.999023438 c 0
 304.499023438 357.33203125 298.999023438 357.999023438 294.999023438 357.999023438 c 0
 273.666015625 360.666015625 254.999023438 366.999023438 238.999023438 376.999023438 c 0
 222.999023438 386.999023438 210.999023438 399.166015625 202.999023438 413.499023438 c 0
 194.999023438 427.83203125 189.666015625 442.83203125 186.999023438 458.499023438 c 0
 185.932617188 464.765625 185.3984375 471.05859375 185.3984375 477.37890625 c 0
 185.3984375 486.859375 186.598632812 496.399414062 188.999023438 505.999023438 c 0
 194.33203125 529.999023438 202.999023438 552.999023438 214.999023438 574.999023438 c 0
 226.999023438 596.999023438 242.166015625 617.499023438 260.499023438 636.499023438 c 0
 278.83203125 655.499023438 300.999023438 671.83203125 326.999023438 685.499023438 c 0
 352.999023438 699.166015625 380.999023438 708.666015625 410.999023438 713.999023438 c 1
 415.666015625 729.999023438 420.999023438 749.33203125 426.999023438 771.999023438 c 0
 436.33203125 808.666015625 452.999023438 826.999023438 476.999023438 826.999023438 c 0
 477.517578125 827.01171875 478.030273438 827.017578125 478.537109375 827.017578125 c 0
 499.2890625 827.017578125 509.666015625 816.641601562 509.666015625 795.888671875 c 0
 509.666015625 789.814453125 508.776367188 782.8515625 506.999023438 775 c 2
 493.999023438 722 l 1
 507.999023438 721.333007812 526.499023438 718 549.499023438 712 c 0
 572.499023438 706 589.33203125 700.333007812 599.999023438 695 c 0
 610.666015625 690.333007812 617.499023438 683 620.499023438 673 c 0
 621.672851562 669.086914062 622.259765625 665.071289062 622.259765625 660.954101562 c 0
 622.259765625 654.549804688 620.83984375 647.8984375 617.999023438 641 c 0
 615.33203125 633 611.499023438 626.833007812 606.499023438 622.5 c 0
 601.499023438 618.166992188 595.999023438 615.5 589.999023438 614.5 c 0
 583.999023438 613.5 578.33203125 613.333007812 572.999023438 614 c 0
 567.666015625 614.666992188 562.666015625 615.666992188 557.999023438 617 c 0
 552.666015625 618.333007812 546.166015625 621.166015625 538.499023438 625.499023438 c 0
 530.83203125 629.83203125 521.999023438 633.665039062 511.999023438 636.998046875 c 0
 501.999023438 640.331054688 489.666015625 642.331054688 474.999023438 642.998046875 c 1
 461.666015625 589.665039062 444.333007812 518.998046875 423 430.998046875 c 1
 450.333007812 426.998046875 474 419.831054688 494 409.498046875 c 0
 514 399.165039062 529.166992188 387.33203125 539.5 373.999023438 c 0
 549.833007812 360.666015625 557.5 345.333007812 562.5 328 c 0
 567.1875 311.749023438 569.53125 295.791992188 569.53125 280.126953125 c 0
 569.53125 266.818359375 567.955078125 247.967773438 562 225 c 0
 554.666992188 194.333007812 543.166992188 165.333007812 527.5 138 c 0
 511.833007812 110.666992188 493 87 471 67 c 0
 449 47 424.833007812 29.6669921875 398.5 15 c 0
 372.166992188 0.3330078125 344.666992188 -10.6669921875 316 -18 c 1
 306.666992188 -58 301 -85 299 -99 c 0
281.000976562 531.006835938 m 0
 279.66796875 524.911132812 279.000976562 519.034179688 279.000976562 513.374023438 c 0
 279.000976562 499.224609375 283.16796875 486.435546875 291.500976562 475.006835938 c 0
 303.16796875 459.006835938 321.66796875 447.673828125 347.000976562 441.006835938 c 1
 358.333984375 487.006835938 373.666992188 551.006835938 393 633.006835938 c 1
 364.333007812 624.33984375 339.833007812 611.33984375 319.5 594.006835938 c 0
 299.166992188 576.673828125 286.333984375 555.673828125 281.000976562 531.006835938 c 0
472.000976562 208.006835938 m 0
 474.372070312 219.267578125 475.557617188 229.73828125 475.557617188 239.418945312 c 0
 475.557617188 252.064453125 473.291015625 263.998046875 469.001953125 276.508789062 c 0
 465.001953125 288.17578125 457.168945312 299.008789062 445.501953125 309.008789062 c 0
 433.834960938 319.008789062 418.66796875 327.67578125 400.000976562 335.008789062 c 1
 392.66796875 305.67578125 382.000976562 261.508789062 368.000976562 202.508789062 c 0
 354.000976562 143.508789062 343.66796875 100.67578125 337.000976562 74.0087890625 c 1
 370.333984375 87.341796875 399.500976562 105.674804688 424.500976562 129.0078125 c 0
 449.500976562 152.340820312 465.333984375 178.673828125 472.000976562 208.006835938 c 0
EndSplineSet
Validated: 1
EndChar

StartChar: percent
Encoding: 37 37 16
Width: 700
GlyphClass: 2
Flags: HMW
HStem: -28.001 76 170.999 74<454.667 467.667> 432 75<243 288.667> 632 73<312.333 316.333>
LayerCount: 2
Fore
SplineSet
254 432 m 0
 232 432 214.000976562 438.5 200.000976562 451.5 c 0
 186.000976562 464.5 177.16796875 480.833007812 173.500976562 500.5 c 0
 172.006835938 508.513671875 171.259765625 516.775390625 171.259765625 525.286132812 c 0
 171.259765625 537.665039062 172.83984375 550.569335938 176 564.000976562 c 0
 185.333007812 605.333984375 203.833007812 639.166992188 231.5 665.5 c 0
 259.166992188 691.833007812 292.666992188 705 332 705 c 0
 347.333007812 705 361 702.166992188 373 696.5 c 0
 385 690.833007812 395 682.333007812 403 671 c 0
 411 659.666992188 415.5 644.166992188 416.5 624.5 c 0
 416.620117188 622.139648438 416.6796875 619.734375 416.6796875 617.283203125 c 0
 416.6796875 599.307617188 413.453125 578.879882812 407 556 c 0
 395.666992188 515.333007812 377.666992188 484.5 353 463.5 c 0
 328.333007812 442.5 295.333007812 432 254 432 c 0
74.0009765625 19 m 0
 93.333984375 47.6669921875 138 107.833984375 208 199.500976562 c 0
 278 291.16796875 348.166992188 383.66796875 418.5 477.000976562 c 0
 488.833007812 570.333984375 537 637.000976562 563 677.000976562 c 0
 573 689.000976562 584.333007812 696.500976562 597 699.500976562 c 0
 600.931640625 700.431640625 604.702148438 700.897460938 608.3125 700.897460938 c 0
 616.333984375 700.897460938 623.563476562 698.598632812 630 694.000976562 c 0
 640 688.66796875 644.5 680.834960938 643.5 670.501953125 c 0
 642.5 660.168945312 636.333007812 647.668945312 625 633.001953125 c 0
 592.333007812 592.334960938 513.5 488.66796875 388.5 322.000976562 c 0
 263.5 155.333984375 180 42.6669921875 138 -16 c 0
 120.76953125 -39.630859375 104.629882812 -51.4462890625 89.580078125 -51.4462890625 c 0
 84.25 -51.4462890625 79.0576171875 -49.9638671875 74.0009765625 -47 c 0
 63.0009765625 -40.666015625 57.5009765625 -32 57.5009765625 -21 c 0
 57.5009765625 -10 63.0009765625 3.333984375 74.0009765625 19 c 0
281 507 m 0
 296.333007812 507 309.333984375 512.33203125 320.000976562 522.999023438 c 0
 330.66796875 533.666015625 338.66796875 547.999023438 344.000976562 565.999023438 c 0
 346.842773438 576.736328125 348.264648438 586.126953125 348.264648438 594.171875 c 0
 348.264648438 603.109375 346.509765625 610.385742188 343.000976562 616 c 0
 336.333984375 626.666992188 324.666992188 632 308 632 c 0
 293.333007812 632 280.5 626.166992188 269.5 614.5 c 0
 258.5 602.833007812 250 587 244 567 c 0
 241.666015625 557.666015625 240.5 549.416015625 240.5 542.25 c 0
 240.5 535.083007812 241.666015625 529 244 524 c 0
 248.666992188 514 261 508.333007812 281 507 c 0
397.000976562 -28.0009765625 m 0
 375.000976562 -28.0009765625 357 -21.5009765625 343 -8.5009765625 c 0
 329 4.4990234375 320.166992188 20.83203125 316.5 40.4990234375 c 0
 315.005859375 48.5126953125 314.258789062 56.7744140625 314.258789062 65.28515625 c 0
 314.258789062 77.6640625 315.838867188 90.568359375 318.999023438 104 c 0
 328.33203125 145.333007812 346.83203125 179.166015625 374.499023438 205.499023438 c 0
 402.166015625 231.83203125 435.333007812 244.999023438 474 244.999023438 c 0
 489.333007812 244.999023438 503.166015625 242.33203125 515.499023438 236.999023438 c 0
 527.83203125 231.666015625 537.999023438 223.166015625 545.999023438 211.499023438 c 0
 553.999023438 199.83203125 558.499023438 184.165039062 559.499023438 164.498046875 c 0
 559.610351562 162.3125 559.666015625 160.088867188 559.666015625 157.825195312 c 0
 559.666015625 139.717773438 556.110351562 119.109375 548.999023438 95.998046875 c 0
 537.666015625 55.3310546875 519.833007812 24.3310546875 495.5 2.998046875 c 0
 471.904296875 -17.6884765625 440.317382812 -28.03125 400.737304688 -28.03125 c 0
 399.499023438 -28.03125 398.25390625 -28.021484375 397.000976562 -28.0009765625 c 0
424 47.9990234375 m 0
 424.838867188 47.9609375 425.669921875 47.94140625 426.49609375 47.94140625 c 0
 440.108398438 47.94140625 451.943359375 53.1279296875 462.000976562 63.4990234375 c 0
 472.66796875 74.4990234375 480.66796875 88.666015625 486.000976562 105.999023438 c 0
 488.752929688 116.522460938 490.12890625 125.768554688 490.12890625 133.736328125 c 0
 490.12890625 158.578125 476.752929688 170.999023438 450.000976562 170.999023438 c 0
 435.333984375 170.999023438 422.666992188 165.166015625 412 153.499023438 c 0
 401.333007812 141.83203125 393 126.33203125 387 106.999023438 c 0
 384.747070312 98.3095703125 383.620117188 90.513671875 383.620117188 83.6103515625 c 0
 383.620117188 76.2138671875 384.9140625 69.84375 387.5 64.4990234375 c 0
 392.5 54.166015625 404.666992188 48.666015625 424 47.9990234375 c 0
EndSplineSet
Validated: 1
EndChar

StartChar: ampersand
Encoding: 38 38 17
Width: 700
GlyphClass: 2
Flags: HMW
HStem: -41.998 93.998<220.668 264.332> 645.001 79<445.334 445.667>
VStem: 438.003 89.9971 525 83.5<297 297>
LayerCount: 2
Fore
SplineSet
503 -35 m 0xe0
 496.482421875 -38.5849609375 490.083984375 -40.376953125 483.805664062 -40.376953125 c 0
 477.241210938 -40.376953125 470.806640625 -38.4169921875 464.501953125 -34.498046875 c 0
 452.168945312 -26.8310546875 443.3359375 -13.6640625 438.002929688 5.0029296875 c 0xe0
 437.3359375 8.3359375 435.8359375 18.3359375 433.502929688 35.0029296875 c 0
 431.169921875 51.669921875 429.002929688 63.669921875 427.002929688 71.0029296875 c 1
 425.002929688 68.3359375 420.002929688 62.6689453125 412.002929688 54.001953125 c 0
 404.002929688 45.3349609375 398.002929688 39.001953125 394.002929688 35.001953125 c 0
 390.002929688 31.001953125 383.502929688 25.001953125 374.502929688 17.001953125 c 0
 365.502929688 9.001953125 358.002929688 2.8349609375 352.002929688 -1.498046875 c 0
 346.002929688 -5.8310546875 338.169921875 -10.998046875 328.502929688 -16.998046875 c 0
 318.8359375 -22.998046875 309.668945312 -27.498046875 301.001953125 -30.498046875 c 0
 292.334960938 -33.498046875 282.501953125 -36.1650390625 271.501953125 -38.498046875 c 0
 260.501953125 -40.8310546875 249.334960938 -41.998046875 238.001953125 -41.998046875 c 0
 203.334960938 -41.998046875 173.66796875 -32.3310546875 149.000976562 -12.998046875 c 0
 124.333984375 6.3349609375 107.666992188 31.66796875 99 63.0009765625 c 0
 94.4931640625 79.2939453125 92.240234375 96.30859375 92.240234375 114.04296875 c 0
 92.240234375 130.415039062 94.16015625 147.400390625 98 165.000976562 c 0
 126.666992188 291.000976562 195 376.66796875 303 422.000976562 c 1
 299.666992188 432.000976562 295.5 444.000976562 290.5 458.000976562 c 0
 285.5 472.000976562 282 481.833984375 280 487.500976562 c 0
 278 493.16796875 275.833007812 500.500976562 273.5 509.500976562 c 0
 271.166992188 518.500976562 270 526.333984375 270 533.000976562 c 0
 270 539.66796875 270.5 547.834960938 271.5 557.501953125 c 0
 272.5 567.168945312 274.333007812 577.668945312 277 589.001953125 c 0
 279.666992188 601.001953125 283.833984375 612.834960938 289.500976562 624.501953125 c 0
 295.16796875 636.168945312 303.000976562 648.168945312 313.000976562 660.501953125 c 0
 323.000976562 672.834960938 334.500976562 683.66796875 347.500976562 693.000976562 c 0
 360.500976562 702.333984375 376.500976562 709.833984375 395.500976562 715.500976562 c 0
 414.500976562 721.16796875 434.66796875 724.000976562 456.000976562 724.000976562 c 0
 474.000976562 724.000976562 491.000976562 721.000976562 507.000976562 715.000976562 c 0
 523.000976562 709.000976562 536.833984375 700.16796875 548.500976562 688.500976562 c 0
 560.16796875 676.833984375 568.000976562 661.500976562 572.000976562 642.500976562 c 0
 573.71484375 634.358398438 574.572265625 625.817382812 574.572265625 616.87890625 c 0
 574.572265625 604.9609375 573.048828125 592.333984375 570.000976562 579.000976562 c 0
 565.333984375 557.66796875 558.166992188 537.834960938 548.5 519.501953125 c 0
 538.833007812 501.168945312 528.833007812 485.8359375 518.5 473.502929688 c 0
 508.166992188 461.169921875 495.666992188 449.336914062 481 438.00390625 c 0
 466.333007812 426.670898438 453.333007812 417.670898438 442 411.00390625 c 0
 430.666992188 404.336914062 417.666992188 397.669921875 403 391.002929688 c 1
 409.666992188 370.3359375 421.666992188 339.668945312 439 299.001953125 c 0
 456.333007812 258.334960938 467.333007812 231.334960938 472 218.001953125 c 1
 478 227.334960938 485 238.16796875 493 250.500976562 c 0
 501 262.833984375 507.666992188 272.833984375 513 280.500976562 c 0
 518.333007812 288.16796875 522.333007812 293.66796875 525 297.000976562 c 0
 539.666992188 314.333984375 552.5 325.166992188 563.5 329.5 c 0
 567.833007812 331.20703125 572.139648438 332.060546875 576.420898438 332.060546875 c 0
 583.008789062 332.060546875 589.53515625 330.040039062 596 325.999023438 c 0
 604.4296875 321.181640625 608.645507812 312.694335938 608.645507812 300.534179688 c 0
 608.645507812 288.635742188 604.828125 271.743164062 589 248 c 0
 584.333007812 242 572 228.666992188 552 208 c 0
 532 187.333007812 514.666992188 168.333007812 500 151 c 1
 504 138.333007812 509.666992188 120.166015625 517 96.4990234375 c 0
 524.333007812 72.83203125 528.333007812 58.9990234375 529 54.9990234375 c 0
 531.509765625 47.4697265625 532.764648438 39.5712890625 532.764648438 31.302734375 c 0
 532.764648438 22.001953125 531.176757812 12.234375 528 1.9990234375 c 0
 522 -17.333984375 513.666992188 -29.6669921875 503 -35 c 0xe0
361.000976562 572.000976562 m 0
 359 563.665039062 358 554.913085938 358 545.744140625 c 0
 358 536.579101562 359 526.999023438 360.999023438 517.000976562 c 0
 364.999023438 497.000976562 371.33203125 479.333984375 379.999023438 464.000976562 c 1
 394.666015625 468.66796875 407.333007812 473.500976562 418 478.500976562 c 0
 428.666992188 483.500976562 439.166992188 490.000976562 449.5 498.000976562 c 0
 459.833007812 506.000976562 468.333007812 515.833984375 475 527.500976562 c 0
 481.666992188 539.16796875 486.666992188 553.000976562 490 569.000976562 c 0
 492.077148438 577.5390625 493.115234375 585.37890625 493.115234375 592.51953125 c 0
 493.115234375 606.006835938 489.41015625 617.000976562 482 625.500976562 c 0
 470.666992188 638.500976562 455.333984375 645.000976562 436.000976562 645.000976562 c 0
 397.333984375 645.000976562 372.333984375 620.66796875 361.000976562 572.000976562 c 0
192.999023438 174.000976562 m 0
 189.8515625 160.361328125 188.27734375 147.59765625 188.27734375 135.711914062 c 0
 188.27734375 117.389648438 192.017578125 101.15234375 199.498046875 87 c 0
 211.831054688 63.6669921875 231.998046875 52 259.998046875 52 c 0
 268.665039062 52 277.33203125 53 285.999023438 55 c 0
 294.666015625 57 302.333007812 59 309 61 c 0
 315.666992188 63 322.666992188 66.3330078125 330 71 c 0
 337.333007812 75.6669921875 343.166015625 79.5 347.499023438 82.5 c 0
 351.83203125 85.5 357.33203125 90.1669921875 363.999023438 96.5 c 0
 370.666015625 102.833007812 375.333007812 107.333007812 378 110 c 0
 380.666992188 112.666992188 385 117.5 391 124.5 c 0
 397 131.5 400.666992188 135.666992188 402 137 c 0
 397.333007812 163 392.666015625 183.333007812 387.999023438 198 c 0
 383.999023438 213.333007812 374.83203125 238.333007812 360.499023438 273 c 0
 346.166015625 307.666992188 335.999023438 333.333984375 329.999023438 350.000976562 c 1
 309.33203125 341.333984375 290.999023438 330.500976562 274.999023438 317.500976562 c 0
 258.999023438 304.500976562 245.666015625 290.16796875 234.999023438 274.500976562 c 0
 224.33203125 258.833984375 215.83203125 243.000976562 209.499023438 227.000976562 c 0
 203.166015625 211.000976562 197.666015625 193.333984375 192.999023438 174.000976562 c 0
EndSplineSet
Validated: 1
EndChar

StartChar: quotesingle
Encoding: 39 39 18
Width: 700
GlyphClass: 2
Flags: HMW
HStem: 446.001 325.499
VStem: 275 152
LayerCount: 2
Fore
SplineSet
427 728 m 0
 421.666992188 701.333007812 412.001953125 660.16796875 398.001953125 604.500976562 c 0
 384.001953125 548.833984375 372.668945312 509.333984375 364.001953125 486.000976562 c 0
 359.334960938 472.000976562 351.66796875 461.66796875 341.000976562 455.000976562 c 0
 331.303710938 448.940429688 321.8828125 445.91015625 312.737304688 445.91015625 c 0
 311.822265625 445.91015625 310.91015625 445.940429688 310.000976562 446.000976562 c 0
 297.333984375 446.66796875 287.166992188 451.000976562 279.5 459.000976562 c 0
 274.734375 463.973632812 272.3515625 470.106445312 272.3515625 477.397460938 c 0
 272.3515625 481.8359375 273.234375 486.703125 275 492.000976562 c 0
 285 526.66796875 295 566.66796875 305 612.000976562 c 0
 315 657.333984375 323.333007812 697.666992188 330 733 c 0
 331.333007812 741 334.333007812 748 339 754 c 0
 343.666992188 760 349.166992188 764.166992188 355.5 766.5 c 0
 361.833007812 768.833007812 367.833007812 770.5 373.5 771.5 c 0
 379.166992188 772.5 385 772.666992188 391 772 c 0
 396.333007812 772 401.333007812 771.333007812 406 770 c 0
 410.666992188 768.666992188 415 766.5 419 763.5 c 0
 423 760.5 425.666992188 756 427 750 c 0
 428.333007812 744 428.333007812 736.666992188 427 728 c 0
EndSplineSet
Validated: 1
EndChar

StartChar: parenleft
Encoding: 40 40 19
Width: 700
GlyphClass: 2
Flags: HMW
HStem: -130.998 83.998<284.331 331> 733.002 81<496 536.666>
LayerCount: 2
Fore
SplineSet
351 -93 m 0
 348.333007812 -103.666992188 342.165039062 -112.665039062 332.498046875 -119.998046875 c 0
 322.831054688 -127.331054688 313.6640625 -130.998046875 304.997070312 -130.998046875 c 0
 263.6640625 -130.998046875 229.831054688 -114.998046875 203.498046875 -82.998046875 c 0
 177.165039062 -50.998046875 159.998046875 -6.6650390625 151.998046875 50.001953125 c 0
 148.442382812 75.1875 146.665039062 102.083984375 146.665039062 130.693359375 c 0
 146.665039062 166.455078125 149.442382812 204.890625 154.998046875 246.001953125 c 0
 161.665039062 294.668945312 177.33203125 358.001953125 201.999023438 436.001953125 c 0
 226.666015625 514.001953125 253.666015625 578.334960938 282.999023438 629.001953125 c 0
 296.33203125 651.001953125 311.999023438 672.834960938 329.999023438 694.501953125 c 0
 347.999023438 716.168945312 367.666015625 736.001953125 388.999023438 754.001953125 c 0
 410.33203125 772.001953125 432.999023438 786.501953125 456.999023438 797.501953125 c 0
 480.999023438 808.501953125 503.33203125 814.001953125 523.999023438 814.001953125 c 0
 544.481445312 814.001953125 554.72265625 805.068359375 554.72265625 787.200195312 c 0
 554.72265625 782.96875 554.147460938 778.236328125 552.999023438 773.001953125 c 0
 549.666015625 759.001953125 543.333007812 748.834960938 534 742.501953125 c 0
 524.666992188 736.168945312 514.666992188 733.001953125 504 733.001953125 c 0
 488 733.001953125 471.833007812 728.001953125 455.5 718.001953125 c 0
 439.166992188 708.001953125 423.666992188 694.334960938 409 677.001953125 c 0
 394.333007812 659.668945312 380.833007812 640.668945312 368.5 620.001953125 c 0
 356.166992188 599.334960938 344.666992188 577.001953125 334 553.001953125 c 0
 318 518.334960938 301.5 470.66796875 284.5 410.000976562 c 0
 267.5 349.333984375 256 300.000976562 250 262.000976562 c 0
 245.090820312 228.727539062 242.63671875 196.235351562 242.63671875 164.5234375 c 0
 242.63671875 157.477539062 242.7578125 150.469726562 243 143.500976562 c 0
 244.333007812 105.16796875 248.5 72.16796875 255.5 44.5009765625 c 0
 262.5 16.833984375 272.166992188 -5.3330078125 284.5 -22 c 0
 296.833007812 -38.6669921875 310.333007812 -47 325 -47 c 0
 337 -47 345.333007812 -50.3330078125 350 -57 c 0
 352.512695312 -60.58984375 353.76953125 -65.7255859375 353.76953125 -72.408203125 c 0
 353.76953125 -78.1357421875 352.846679688 -85 351 -93 c 0
EndSplineSet
Validated: 1
EndChar

StartChar: parenright
Encoding: 41 41 20
Width: 700
GlyphClass: 2
Flags: HMW
HStem: -131.005 84<190.664 197.665> 732.998 81.002<372.333 404.666>
VStem: 464.999 86.001
LayerCount: 2
Fore
SplineSet
501 246 m 0
 477 172 447.997070312 106.662109375 413.997070312 49.9951171875 c 0
 379.997070312 -6.671875 342.330078125 -51.0048828125 300.997070312 -83.0048828125 c 0
 259.6640625 -115.004882812 218.331054688 -131.004882812 176.998046875 -131.004882812 c 0
 168.331054688 -131.004882812 160.6640625 -127.337890625 153.997070312 -120.004882812 c 0
 147.330078125 -112.671875 145.330078125 -103.671875 147.997070312 -93.0048828125 c 0
 151.997070312 -75.671875 157.997070312 -63.671875 165.997070312 -57.0048828125 c 0
 173.997070312 -50.337890625 184.330078125 -47.0048828125 196.997070312 -47.0048828125 c 0
 211.6640625 -47.0048828125 228.831054688 -38.671875 248.498046875 -22.0048828125 c 0
 268.165039062 -5.337890625 287.998046875 16.8291015625 307.998046875 44.49609375 c 0
 327.998046875 72.1630859375 347.665039062 105.330078125 366.998046875 143.997070312 c 0
 386.331054688 182.6640625 401.998046875 221.997070312 413.998046875 261.997070312 c 0
 425.998046875 299.997070312 437.331054688 349.330078125 447.998046875 409.997070312 c 0
 458.665039062 470.6640625 464.33203125 518.331054688 464.999023438 552.998046875 c 0
 464.999023438 576.998046875 463.499023438 599.331054688 460.499023438 619.998046875 c 0
 457.499023438 640.665039062 452.83203125 659.665039062 446.499023438 676.998046875 c 0
 440.166015625 694.331054688 431.166015625 707.998046875 419.499023438 717.998046875 c 0
 407.83203125 727.998046875 393.999023438 732.998046875 377.999023438 732.998046875 c 0
 366.666015625 732.998046875 357.999023438 736.165039062 351.999023438 742.498046875 c 0
 347.844726562 746.8828125 345.768554688 753.104492188 345.768554688 761.1640625 c 0
 345.768554688 764.745117188 346.178710938 768.690429688 346.999023438 772.998046875 c 0
 348.999023438 781.665039062 351.999023438 788.83203125 355.999023438 794.499023438 c 0
 359.999023438 800.166015625 364.33203125 804.333007812 368.999023438 807 c 0
 373.666015625 809.666992188 377.999023438 811.5 381.999023438 812.5 c 0
 385.999023438 813.5 389.999023438 814 393.999023438 814 c 0
 415.33203125 814 435.33203125 808.5 453.999023438 797.5 c 0
 472.666015625 786.5 488.499023438 772 501.499023438 754 c 0
 514.499023438 736 525.33203125 716.166992188 533.999023438 694.5 c 0
 542.666015625 672.833007812 548.333007812 651 551 629 c 0
 553.038085938 611.791992188 554.056640625 593.0078125 554.056640625 572.647460938 c 0
 554.056640625 533.057617188 550.204101562 487.508789062 542.5 436 c 0
 530.833007812 358 517 294.666992188 501 246 c 0
EndSplineSet
Validated: 1
EndChar

StartChar: asterisk
Encoding: 42 42 21
Width: 700
GlyphClass: 2
Flags: HMW
HStem: 292.998 103.999 305.999 77<407.998 451.998>
VStem: 256.997 86.001 356.998 86
LayerCount: 2
Fore
SplineSet
253 139 m 0x70
 249 131 243.498046875 124.999023438 236.498046875 120.999023438 c 0
 229.498046875 116.999023438 222.331054688 114.666015625 214.998046875 113.999023438 c 0
 207.665039062 113.33203125 200.998046875 113.83203125 194.998046875 115.499023438 c 0
 188.998046875 117.166015625 183.998046875 119.333007812 179.998046875 122 c 0
 175.331054688 125.333007812 171.6640625 130.166015625 168.997070312 136.499023438 c 0
 166.330078125 142.83203125 165.497070312 150.665039062 166.497070312 159.998046875 c 0
 167.497070312 169.331054688 171.6640625 178.998046875 178.997070312 188.998046875 c 2
 265.997070312 297.998046875 l 1
 213.997070312 294.665039062 175.997070312 292.998046875 151.997070312 292.998046875 c 0
 137.330078125 292.998046875 126.997070312 298.331054688 120.997070312 308.998046875 c 0
 116.842773438 316.3828125 114.766601562 324.086914062 114.766601562 332.110351562 c 0
 114.766601562 335.676757812 115.176757812 339.305664062 115.997070312 342.998046875 c 0
 116.6640625 348.998046875 118.497070312 355.165039062 121.497070312 361.498046875 c 0
 124.497070312 367.831054688 128.330078125 373.831054688 132.997070312 379.498046875 c 0
 137.6640625 385.165039062 143.6640625 389.665039062 150.997070312 392.998046875 c 0
 158.330078125 396.331054688 165.663085938 397.6640625 172.99609375 396.997070312 c 0xb0
 200.99609375 394.330078125 242.329101562 390.997070312 296.99609375 386.997070312 c 1
 281.663085938 435.6640625 268.330078125 472.997070312 256.997070312 498.997070312 c 0
 254.330078125 506.6640625 252.997070312 514.247070312 252.997070312 521.747070312 c 0
 252.997070312 529.247070312 254.330078125 536.663085938 256.997070312 543.997070312 c 0
 262.330078125 558.6640625 270.330078125 568.331054688 280.997070312 572.998046875 c 0
 287.6640625 576.998046875 295.1640625 579.165039062 303.497070312 579.498046875 c 0
 311.830078125 579.831054688 319.830078125 577.331054688 327.497070312 571.998046875 c 0
 335.1640625 566.665039062 340.331054688 558.665039062 342.998046875 547.998046875 c 0
 346.331054688 531.998046875 355.6640625 493.665039062 370.997070312 432.998046875 c 1
 406.330078125 478.331054688 433.663085938 516.331054688 452.99609375 546.998046875 c 0
 459.663085938 557.665039062 467.830078125 565.665039062 477.497070312 570.998046875 c 0
 487.1640625 576.331054688 495.831054688 578.831054688 503.498046875 578.498046875 c 0
 511.165039062 578.165039062 517.33203125 575.665039062 521.999023438 570.998046875 c 0
 527.33203125 567.665039062 531.165039062 562.33203125 533.498046875 554.999023438 c 0
 535.831054688 547.666015625 535.831054688 538.999023438 533.498046875 528.999023438 c 0
 531.165039062 518.999023438 525.998046875 509.33203125 517.998046875 499.999023438 c 0
 490.665039062 468.666015625 459.665039062 429.666015625 424.998046875 382.999023438 c 1
 478.998046875 382.999023438 518.331054688 386.666015625 542.998046875 393.999023438 c 0
 547.665039062 395.484375 551.977539062 396.2265625 555.935546875 396.2265625 c 0
 564.416992188 396.2265625 571.271484375 392.817382812 576.499023438 385.999023438 c 0
 582.580078125 378.068359375 585.620117188 369.717773438 585.620117188 360.948242188 c 0
 585.620117188 358.66015625 585.413085938 356.34375 584.999023438 353.999023438 c 0
 583.666015625 347.999023438 581.666015625 341.999023438 578.999023438 335.999023438 c 0
 576.33203125 329.999023438 572.83203125 323.999023438 568.499023438 317.999023438 c 0
 564.166015625 311.999023438 558.666015625 307.33203125 551.999023438 303.999023438 c 0
 545.33203125 300.666015625 538.665039062 299.999023438 531.998046875 301.999023438 c 0
 516.998046875 304.999023438 489.997070312 306.499023438 450.99609375 306.499023438 c 0
 437.997070312 306.499023438 423.6640625 306.33203125 407.998046875 305.999023438 c 1
 443.998046875 189.999023438 l 2
 445.512695312 183.029296875 446.270507812 176.438476562 446.270507812 170.2265625 c 0
 446.270507812 162.771484375 445.1796875 155.862304688 442.998046875 149.499023438 c 0
 438.998046875 137.83203125 432.331054688 129.33203125 422.998046875 123.999023438 c 0
 416.331054688 119.999023438 407.998046875 117.666015625 397.998046875 116.999023438 c 0
 387.998046875 116.33203125 378.831054688 118.33203125 370.498046875 122.999023438 c 0
 362.165039062 127.666015625 357.665039062 135.333007812 356.998046875 146 c 0
 355.665039062 172.666992188 348.33203125 211 334.999023438 261 c 1
 291.666015625 199.666992188 264.333007812 159 253 139 c 0x70
EndSplineSet
Validated: 1
EndChar

StartChar: plus
Encoding: 43 43 22
Width: 700
GlyphClass: 2
Flags: HMW
HStem: 356.998 84.001<294.666 320.998>
LayerCount: 2
Fore
SplineSet
352 250 m 0
 348.666992188 234.666992188 342.999023438 223.831054688 334.999023438 217.498046875 c 0
 326.999023438 211.165039062 317.666015625 207.998046875 306.999023438 207.998046875 c 0
 285.448242188 207.998046875 274.671875 216.701171875 274.671875 234.108398438 c 0
 274.671875 238.778320312 275.448242188 244.075195312 276.999023438 249.998046875 c 2
 300.999023438 356.998046875 l 1
 288.33203125 356.998046875 271.499023438 356.831054688 250.499023438 356.498046875 c 0
 229.499023438 356.165039062 215.33203125 355.998046875 207.999023438 355.998046875 c 0
 192.666015625 355.998046875 182.166015625 360.165039062 176.499023438 368.498046875 c 0
 172.645507812 374.1640625 170.71875 380.678710938 170.71875 388.041015625 c 0
 170.71875 391.505859375 171.145507812 395.158203125 171.999023438 398.998046875 c 0
 173.999023438 411.665039062 179.666015625 422.33203125 188.999023438 430.999023438 c 0
 197.665039062 439.046875 209.206054688 443.0703125 223.620117188 443.0703125 c 0
 224.729492188 443.0703125 225.85546875 443.046875 226.999023438 442.999023438 c 0
 270.33203125 441.666015625 301.665039062 440.999023438 320.998046875 440.999023438 c 1
 328.998046875 474.33203125 336.331054688 510.33203125 342.998046875 548.999023438 c 0
 348.331054688 577.666015625 364.998046875 591.999023438 392.998046875 591.999023438 c 0
 405.665039062 592.666015625 415.33203125 589.999023438 421.999023438 583.999023438 c 0
 425.920898438 580.469726562 427.881835938 575.094726562 427.881835938 567.875 c 0
 427.881835938 562.8203125 426.920898438 556.862304688 424.999023438 549.999023438 c 0
 413.666015625 511.33203125 403.999023438 474.33203125 395.999023438 438.999023438 c 1
 497.999023438 438.999023438 l 2
 512.666015625 438.999023438 521.999023438 435.666015625 525.999023438 428.999023438 c 0
 529.999023438 422.33203125 531.33203125 413.33203125 529.999023438 401.999023438 c 0
 528.666015625 395.999023438 526.833007812 390.499023438 524.5 385.499023438 c 0
 522.166992188 380.499023438 519 375.666015625 515 370.999023438 c 0
 511 366.33203125 506 362.83203125 500 360.499023438 c 0
 494 358.166015625 487.333007812 357.333007812 480 358 c 0
 470.400390625 359.200195312 454.201171875 359.799804688 431.401367188 359.799804688 c 0
 416.201171875 359.799804688 398.067382812 359.533203125 377 359 c 1
 373 341 368.166992188 319.666992188 362.5 295 c 0
 356.833007812 270.333007812 353.333007812 255.333007812 352 250 c 0
EndSplineSet
Validated: 1
EndChar

StartChar: comma
Encoding: 44 44 23
Width: 700
GlyphClass: 2
Flags: HMW
VStem: 221.501 254.999
LayerCount: 2
Fore
SplineSet
475 96 m 0
 461 63.3330078125 436.001953125 12.9990234375 400.001953125 -55.0009765625 c 0
 364.001953125 -123.000976562 338.668945312 -165.000976562 324.001953125 -181.000976562 c 0
 310.668945312 -195.000976562 295.668945312 -205.000976562 279.001953125 -211.000976562 c 0
 269.001953125 -214.600585938 260.44140625 -216.401367188 253.321289062 -216.401367188 c 0
 248.57421875 -216.401367188 244.467773438 -215.600585938 241.000976562 -214.000976562 c 0
 235.000976562 -212.000976562 230.000976562 -208.000976562 226.000976562 -202.000976562 c 0
 222.000976562 -196.000976562 220.500976562 -188.66796875 221.500976562 -180.000976562 c 0
 222.500976562 -171.333984375 227.000976562 -162.333984375 235.000976562 -153.000976562 c 0
 252.333984375 -133.000976562 280.166992188 -89.0009765625 318.5 -21.0009765625 c 0
 356.833007812 46.9990234375 381.666015625 94.33203125 392.999023438 120.999023438 c 0
 396.999023438 130.33203125 403.166015625 137.665039062 411.499023438 142.998046875 c 0
 419.83203125 148.331054688 427.83203125 150.998046875 435.499023438 150.998046875 c 0
 443.166015625 150.998046875 450.333007812 150.331054688 457 148.998046875 c 0
 465.666992188 145.665039062 472.166992188 139.33203125 476.5 129.999023438 c 0
 478.442382812 125.815429688 479.413085938 121.229492188 479.413085938 116.2421875 c 0
 479.413085938 110.103515625 477.942382812 103.356445312 475 96 c 0
EndSplineSet
Validated: 1
EndChar

StartChar: hyphen
Encoding: 45 45 24
Width: 700
GlyphClass: 2
Flags: HMW
HStem: 243 87<241.333 247.001> 251 82<442.001 472.335>
VStem: 206.001 290.001
LayerCount: 2
Fore
SplineSet
255 330 m 0xa0
 290.333007812 330 332.501953125 330.5 381.501953125 331.5 c 0
 430.501953125 332.5 458.334960938 333 465.001953125 333 c 0
 479.668945312 333 489.001953125 329.5 493.001953125 322.5 c 0
 497.001953125 315.5 498.001953125 306.333007812 496.001953125 295 c 0
 489.334960938 265.666992188 472.66796875 251 446.000976562 251 c 0x60
 438.000976562 251 406.500976562 249.666992188 351.500976562 247 c 0
 296.500976562 244.333007812 258.000976562 243 236.000976562 243 c 0
 214.66796875 243 204.000976562 252.172851562 204.000976562 270.51953125 c 0
 204.000976562 275.106445312 204.66796875 280.266601562 206.000976562 286 c 0
 211.333984375 315.333007812 227.666992188 330 255 330 c 0xa0
EndSplineSet
Validated: 1
EndChar

StartChar: period
Encoding: 46 46 25
Width: 700
GlyphClass: 2
Flags: HMW
HStem: -14 153.998
VStem: 275.001 151
LayerCount: 2
Fore
SplineSet
334 -14 m 0
 330.723632812 -14.3740234375 327.572265625 -14.5615234375 324.546875 -14.5615234375 c 0
 306.018554688 -14.5615234375 292.170898438 -7.5439453125 283.001953125 6.49609375 c 0
 275.890625 17.384765625 272.334960938 29.5341796875 272.334960938 42.94140625 c 0
 272.334960938 49.6455078125 273.223632812 56.6630859375 275.000976562 63.99609375 c 0
 279.66796875 84.6630859375 291.66796875 102.330078125 311.000976562 116.997070312 c 0
 330.333984375 131.6640625 350.000976562 139.331054688 370.000976562 139.998046875 c 0
 370.979492188 140.02734375 371.946289062 140.04296875 372.901367188 140.04296875 c 0
 393.426757812 140.04296875 408.626953125 133.194335938 418.500976562 119.499023438 c 0
 425.31640625 110.044921875 428.724609375 98.923828125 428.724609375 86.1337890625 c 0
 428.724609375 79.533203125 427.81640625 72.48828125 426.000976562 64.9990234375 c 0
 421.333984375 43.666015625 410.666992188 25.8330078125 394 11.5 c 0
 377.333007812 -2.8330078125 357.333007812 -11.3330078125 334 -14 c 0
EndSplineSet
Validated: 1
EndChar

StartChar: slash
Encoding: 47 47 26
Width: 700
GlyphClass: 2
Flags: HMW
VStem: 34 95
LayerCount: 2
Fore
SplineSet
651 676 m 0
 627 642 562.501953125 558.498046875 457.501953125 425.498046875 c 0
 352.501953125 292.498046875 288.334960938 209.998046875 265.001953125 177.998046875 c 0
 250.334960938 157.331054688 226.16796875 122.331054688 192.500976562 72.998046875 c 0
 158.833984375 23.6650390625 137.666992188 -6.3349609375 129 -17.001953125 c 0
 115 -35.6689453125 99.5 -48.6689453125 82.5 -56.001953125 c 0
 74 -59.66796875 66.375 -61.501953125 59.625 -61.501953125 c 0
 52.875 -61.501953125 47 -59.66796875 42 -56.001953125 c 0
 36 -52.001953125 33 -44.0654296875 33 -32.1904296875 c 0
 33 -28.232421875 33.3330078125 -23.8359375 34 -19.0029296875 c 0
 36.6669921875 0.330078125 44.6669921875 17.9970703125 58 33.9970703125 c 0
 186 193.997070312 296.333007812 336.330078125 389 460.997070312 c 0
 447 537.6640625 509.666992188 624.331054688 577 720.998046875 c 0
 584.333007812 731.665039062 593 739.83203125 603 745.499023438 c 0
 613 751.166015625 622 753.833007812 630 753.5 c 0
 638 753.166992188 645.666992188 751.333984375 653 748.000976562 c 0
 663 742.000976562 668 732.66796875 668 720.000976562 c 0
 668 707.333984375 662.333007812 692.666992188 651 676 c 0
EndSplineSet
Validated: 1
EndChar

StartChar: zero
Encoding: 48 48 27
Width: 700
GlyphClass: 2
Flags: HMW
HStem: -24 83.999<246.001 257.333> 636.999 81.001<432.333 433.667>
LayerCount: 2
Fore
SplineSet
248 -24 m 0
 219.333007812 -24 193.833984375 -18.333984375 171.500976562 -7.0009765625 c 0
 149.16796875 4.33203125 131.66796875 19.9990234375 119.000976562 39.9990234375 c 0
 106.333984375 59.9990234375 98.5009765625 84.9990234375 95.5009765625 114.999023438 c 0
 94.771484375 122.295898438 94.40625 129.770507812 94.40625 137.422851562 c 0
 94.40625 161.23046875 97.9384765625 186.755859375 105.000976562 213.999023438 c 0
 106.333984375 220.666015625 109.833984375 237.166015625 115.500976562 263.499023438 c 0
 121.16796875 289.83203125 125.834960938 310.83203125 129.501953125 326.499023438 c 0
 133.168945312 342.166015625 138.668945312 363.833007812 146.001953125 391.5 c 0
 153.334960938 419.166992188 160.334960938 443 167.001953125 463 c 0
 173.668945312 483 182.001953125 504.5 192.001953125 527.5 c 0
 202.001953125 550.5 212.001953125 570.666992188 222.001953125 588 c 0
 247.334960938 630 280.16796875 662.166992188 320.500976562 684.5 c 0
 360.833984375 706.833007812 406.666992188 718 458 718 c 0
 483.333007812 718 505.833007812 713.333007812 525.5 704 c 0
 545.166992188 694.666992188 561.833984375 681 575.500976562 663 c 0
 589.16796875 645 598.334960938 621.666992188 603.001953125 593 c 0
 605.1796875 579.62109375 606.26953125 565.298828125 606.26953125 550.032226562 c 0
 606.26953125 532.586914062 604.846679688 513.91015625 602.002929688 494 c 0
 596.669921875 460.666992188 589.336914062 422.833984375 580.00390625 380.500976562 c 0
 570.670898438 338.16796875 559.670898438 295.500976562 547.00390625 252.500976562 c 0
 534.336914062 209.500976562 522.669921875 176.66796875 512.002929688 154.000976562 c 0
 501.3359375 131.333984375 490.668945312 111.333984375 480.001953125 94.0009765625 c 0
 469.334960938 76.66796875 458.66796875 61.66796875 448.000976562 49.0009765625 c 0
 437.333984375 36.333984375 425.833984375 25.6669921875 413.500976562 17 c 0
 401.16796875 8.3330078125 389.16796875 1.3330078125 377.500976562 -4 c 0
 365.833984375 -9.3330078125 352.833984375 -13.5 338.500976562 -16.5 c 0
 324.16796875 -19.5 310.16796875 -21.5 296.500976562 -22.5 c 0
 282.833984375 -23.5 266.666992188 -24 248 -24 c 0
199.000976562 229.999023438 m 0
 198.333984375 227.33203125 197.500976562 223.333007812 196.500976562 218 c 0
 195.500976562 212.666992188 194.66796875 209 194.000976562 207 c 1
 305.333984375 329 409.333984375 454.333007812 506.000976562 583 c 1
 498.66796875 600.333007812 488.000976562 613.666015625 474.000976562 622.999023438 c 0
 460.000976562 632.33203125 443.333984375 636.999023438 424.000976562 636.999023438 c 0
 389.333984375 636.999023438 360.000976562 626.666015625 336.000976562 605.999023438 c 0
 312.000976562 585.33203125 290.000976562 551.999023438 270.000976562 505.999023438 c 0
 262.000976562 489.33203125 254.500976562 469.83203125 247.500976562 447.499023438 c 0
 240.500976562 425.166015625 233.500976562 398.166015625 226.500976562 366.499023438 c 0
 219.500976562 334.83203125 214.833984375 312.499023438 212.500976562 299.499023438 c 0
 210.16796875 286.499023438 205.66796875 263.33203125 199.000976562 229.999023438 c 0
428.000976562 168 m 0
 432.000976562 176 439.66796875 197.999023438 451.000976562 233.999023438 c 0
 462.333984375 269.999023438 474.000976562 311.166015625 486.000976562 357.499023438 c 0
 498.000976562 403.83203125 507.333984375 448.33203125 514.000976562 490.999023438 c 1
 413.333984375 344.33203125 306.333984375 221.33203125 193.000976562 121.999023438 c 1
 200.333984375 80.666015625 225.000976562 59.9990234375 267.000976562 59.9990234375 c 0
 283.66796875 59.9990234375 299.000976562 61.4990234375 313.000976562 64.4990234375 c 0
 327.000976562 67.4990234375 340.833984375 72.83203125 354.500976562 80.4990234375 c 0
 368.16796875 88.166015625 381.000976562 99.3330078125 393.000976562 114 c 0
 405.000976562 128.666992188 416.66796875 146.666992188 428.000976562 168 c 0
EndSplineSet
Validated: 1
EndChar

StartChar: one
Encoding: 49 49 28
Width: 700
GlyphClass: 2
Flags: HMW
HStem: -9 85.5 -5 89<168.666 169.331>
LayerCount: 2
Fore
SplineSet
577 38 m 0x80
 574.333007812 24.6669921875 568.497070312 13.5 559.497070312 4.5 c 0
 550.497070312 -4.5 536.6640625 -9 517.997070312 -9 c 0x80
 509.997070312 -9 454.997070312 -8.3330078125 352.997070312 -7 c 0
 250.997070312 -5.6669921875 184.6640625 -5 153.997070312 -5 c 0
 139.997070312 -5 130.830078125 -1 126.497070312 7 c 0
 123.814453125 11.9521484375 122.473632812 17.7978515625 122.473632812 24.5380859375 c 0
 122.473632812 28.6865234375 122.981445312 33.173828125 123.998046875 38 c 0
 126.665039062 51.3330078125 132.33203125 62.3330078125 140.999023438 71 c 0
 149.666015625 79.6669921875 161.333007812 84 176 84 c 0x40
 204 84 251.666992188 83.6669921875 319 83 c 1
 325 109.666992188 329.666992188 131 333 147 c 0
 333.666992188 152.333007812 337.5 170 344.5 200 c 0
 351.5 230 356.666992188 251.666992188 360 265 c 0
 363.333007812 278.333007812 369.833007812 303 379.5 339 c 0
 389.166992188 375 396.166992188 401.833007812 400.5 419.5 c 0
 404.833007812 437.166992188 412.166015625 465.166992188 422.499023438 503.5 c 0
 432.83203125 541.833007812 440.665039062 570 445.998046875 588 c 1
 390.665039062 546.666992188 351.33203125 522 327.999023438 514 c 0
 323.896484375 512.359375 319.952148438 511.5390625 316.165039062 511.5390625 c 0
 307.64453125 511.5390625 299.921875 515.692382812 292.999023438 524 c 0
 285.499023438 533 281.749023438 542 281.749023438 551 c 0
 281.749023438 554 282.166015625 557 282.999023438 560 c 0
 284.999023438 570.666992188 289.33203125 580.166992188 295.999023438 588.5 c 0
 302.666015625 596.833007812 312.666015625 605.333007812 325.999023438 614 c 0
 347.33203125 628.666992188 369.83203125 644.833984375 393.499023438 662.500976562 c 0
 417.166015625 680.16796875 434.499023438 693.000976562 445.499023438 701.000976562 c 0
 456.499023438 709.000976562 467.166015625 715.833984375 477.499023438 721.500976562 c 0
 487.83203125 727.16796875 496.665039062 730.000976562 503.998046875 730.000976562 c 0
 517.331054688 730.000976562 529.498046875 724.000976562 540.498046875 712.000976562 c 0
 549.805664062 701.846679688 554.459960938 693.125 554.459960938 685.834960938 c 0
 554.459960938 683.2109375 554.459960938 683.2109375 510.498046875 518.500976562 c 0
 485.498046875 424.833984375 471.331054688 370.000976562 467.998046875 354.000976562 c 0
 452.665039062 287.333984375 439.998046875 231.666992188 429.998046875 187 c 0
 423.998046875 162.333007812 416.665039062 126.333007812 407.998046875 79 c 1
 425.998046875 79 444.831054688 78.6669921875 464.498046875 78 c 0
 484.165039062 77.3330078125 500.33203125 76.8330078125 512.999023438 76.5 c 0
 525.666015625 76.1669921875 534.333007812 76 539 76 c 0
 556.333007812 76 567.5 72.5 572.5 65.5 c 0
 577.5 58.5 579 49.3330078125 577 38 c 0x80
EndSplineSet
Validated: 1
EndChar

StartChar: two
Encoding: 50 50 29
Width: 700
GlyphClass: 2
Flags: HMW
HStem: -18.0049 84.0049 -12 89<458 494.501> 637.997 83.999<442.334 455.336>
LayerCount: 2
Fore
SplineSet
471 -12 m 0x60
 445 -12 412.501953125 -12.6728515625 373.501953125 -14.005859375 c 0
 334.501953125 -15.3388671875 299.834960938 -16.671875 269.501953125 -18.0048828125 c 0
 239.168945312 -19.337890625 208.501953125 -20.0048828125 177.501953125 -20.0048828125 c 0
 146.501953125 -20.0048828125 122.334960938 -18.671875 105.001953125 -16.0048828125 c 0
 91.6689453125 -14.671875 83.8359375 -5.671875 81.5029296875 10.9951171875 c 0
 80.9765625 14.7587890625 80.712890625 18.8955078125 80.712890625 23.4072265625 c 0
 80.712890625 38.8740234375 83.8095703125 58.7373046875 90.0029296875 82.9951171875 c 0
 96.669921875 111.662109375 109.169921875 141.829101562 127.502929688 173.49609375 c 0
 145.8359375 205.163085938 169.668945312 235.49609375 199.001953125 264.49609375 c 0
 228.334960938 293.49609375 260.001953125 316.99609375 294.001953125 334.99609375 c 0
 370.001953125 374.99609375 419.334960938 402.99609375 442.001953125 418.99609375 c 0
 472.001953125 440.329101562 493.334960938 462.99609375 506.001953125 486.99609375 c 0
 512.668945312 500.99609375 518.3359375 518.329101562 523.002929688 538.99609375 c 0
 525.78515625 551.053710938 527.176757812 561.962890625 527.176757812 571.72265625 c 0
 527.176757812 590.021484375 522.28515625 604.279296875 512.502929688 614.497070312 c 0
 497.502929688 630.1640625 472.669921875 637.997070312 438.002929688 637.997070312 c 0
 414.002929688 637.997070312 389.002929688 629.997070312 363.002929688 613.997070312 c 0
 337.002929688 597.997070312 315.669921875 580.330078125 299.002929688 560.997070312 c 0
 291.002929688 552.330078125 284.169921875 545.497070312 278.502929688 540.497070312 c 0
 272.8359375 535.497070312 267.168945312 532.6640625 261.501953125 531.997070312 c 0
 255.834960938 531.330078125 250.834960938 531.663085938 246.501953125 532.99609375 c 0
 242.168945312 534.329101562 237.001953125 536.662109375 231.001953125 539.995117188 c 0
 221.668945312 545.995117188 217.001953125 554.662109375 217.001953125 565.995117188 c 0
 217.001953125 577.328125 223.001953125 591.995117188 235.001953125 609.995117188 c 0
 244.334960938 622.662109375 256.501953125 635.329101562 271.501953125 647.99609375 c 0
 286.501953125 660.663085938 303.501953125 672.663085938 322.501953125 683.99609375 c 0
 341.501953125 695.329101562 362.668945312 704.49609375 386.001953125 711.49609375 c 0
 409.334960938 718.49609375 431.66796875 721.99609375 453.000976562 721.99609375 c 0
 520.333984375 721.99609375 567.500976562 705.329101562 594.500976562 671.99609375 c 0
 611.721679688 650.736328125 620.331054688 622.697265625 620.331054688 587.877929688 c 0
 620.331054688 568.103515625 617.5546875 546.143554688 612.000976562 521.99609375 c 0
 599.333984375 466.663085938 576.000976562 422.330078125 542.000976562 388.997070312 c 0
 516.66796875 364.330078125 475.66796875 336.997070312 419.000976562 306.997070312 c 0
 405.000976562 298.997070312 380.66796875 286.6640625 346.000976562 269.997070312 c 0
 316.000976562 254.6640625 289.500976562 235.831054688 266.500976562 213.498046875 c 0
 243.500976562 191.165039062 225.333984375 168.33203125 212.000976562 144.999023438 c 0
 198.66796875 121.666015625 188.000976562 96.3330078125 180.000976562 69 c 1
 214.000976562 67 247.000976562 66 279.000976562 66 c 0xa0
 311.000976562 66 336.16796875 66.5 354.500976562 67.5 c 0
 372.833984375 68.5 394.000976562 70 418.000976562 72 c 2
 466.000976562 76 l 2
 466.66796875 76 469.66796875 76.1669921875 475.000976562 76.5 c 0
 480.333984375 76.8330078125 483.833984375 77 485.500976562 77 c 2
 494.500976562 77 l 2
 498.833984375 77 502.000976562 76.3330078125 504.000976562 75 c 0
 506.000976562 73.6669921875 508.16796875 72 510.500976562 70 c 0
 512.833984375 68 514.500976562 65.3330078125 515.500976562 62 c 0
 516.500976562 58.6669921875 516.66796875 54.6669921875 516.000976562 50 c 0
 515.333984375 42 513.166992188 33.5 509.5 24.5 c 0
 505.833007812 15.5 500.5 7.1669921875 493.5 -0.5 c 0
 486.5 -8.1669921875 479 -12 471 -12 c 0x60
EndSplineSet
Validated: 1
EndChar

StartChar: three
Encoding: 51 51 30
Width: 700
GlyphClass: 2
Flags: HMW
HStem: -23.9941 84<276.666 300.333> 318.006 100<305.666 312.333> 638.006 83.998<416.001 430.999>
VStem: 447.5 100
LayerCount: 2
Fore
SplineSet
540 199 m 0
 524.666992188 130.333007812 492.666992188 76.005859375 444 36.005859375 c 0
 395.333007812 -3.994140625 335.666015625 -23.994140625 264.999023438 -23.994140625 c 0
 242.999023438 -23.994140625 222.166015625 -20.494140625 202.499023438 -13.494140625 c 0
 182.83203125 -6.494140625 165.999023438 2.505859375 151.999023438 13.505859375 c 0
 137.999023438 24.505859375 126.33203125 36.505859375 116.999023438 49.505859375 c 0
 107.666015625 62.505859375 101.666015625 75.3388671875 98.9990234375 88.005859375 c 0
 97.666015625 94.138671875 96.9990234375 100.059570312 96.9990234375 105.765625 c 0
 96.9990234375 114.326171875 98.4990234375 122.405273438 101.499023438 130.005859375 c 0
 106.499023438 142.672851562 114.666015625 151.672851562 125.999023438 157.005859375 c 0
 135.654296875 161.603515625 144.278320312 163.90234375 151.872070312 163.90234375 c 0
 155.290039062 163.90234375 158.499023438 163.436523438 161.499023438 162.505859375 c 0
 171.166015625 159.505859375 179.333007812 151.005859375 186 137.005859375 c 0
 195.333007812 117.005859375 208.666015625 99.1728515625 225.999023438 83.505859375 c 0
 243.33203125 67.8388671875 264.33203125 60.005859375 288.999023438 60.005859375 c 0
 325.666015625 60.005859375 358.666015625 71.3388671875 387.999023438 94.005859375 c 0
 417.33203125 116.672851562 435.999023438 146.005859375 443.999023438 182.005859375 c 0
 447.110351562 196.673828125 448.666015625 210.0078125 448.666015625 222.008789062 c 0
 448.666015625 228.0078125 448.27734375 233.672851562 447.5 239.005859375 c 0
 445.166992188 255.005859375 438.666992188 269.005859375 428 281.005859375 c 0
 417.333007812 293.005859375 400.833007812 302.172851562 378.5 308.505859375 c 0
 356.166992188 314.838867188 328.666992188 318.005859375 296 318.005859375 c 0
 283.333007812 318.005859375 273.666015625 323.505859375 266.999023438 334.505859375 c 0
 262.553710938 341.83984375 260.33203125 349.692382812 260.33203125 358.0625 c 0
 260.33203125 362.248046875 260.88671875 366.561523438 261.998046875 371.005859375 c 0
 265.331054688 385.005859375 271.331054688 396.338867188 279.998046875 405.005859375 c 0
 288.665039062 413.672851562 299.33203125 418.005859375 311.999023438 418.005859375 c 0
 363.999023438 418.005859375 407.499023438 429.172851562 442.499023438 451.505859375 c 0
 477.499023438 473.838867188 499.33203125 506.338867188 507.999023438 549.005859375 c 0
 510.55859375 558.60546875 511.838867188 567.420898438 511.838867188 575.450195312 c 0
 511.838867188 592.513671875 506.05859375 606.032226562 494.499023438 616.005859375 c 0
 477.499023438 630.672851562 449.999023438 638.005859375 411.999023438 638.005859375 c 0
 404.666015625 638.005859375 397.499023438 637.172851562 390.499023438 635.505859375 c 0
 383.499023438 633.838867188 377.499023438 632.171875 372.499023438 630.504882812 c 0
 367.499023438 628.837890625 361.999023438 626.004882812 355.999023438 622.004882812 c 0
 349.999023438 618.004882812 345.166015625 614.671875 341.499023438 612.004882812 c 0
 337.83203125 609.337890625 332.999023438 605.004882812 326.999023438 599.004882812 c 2
 314.499023438 586.504882812 l 2
 312.166015625 584.171875 307.999023438 579.338867188 301.999023438 572.005859375 c 0
 288.666015625 557.338867188 276.499023438 548.671875 265.499023438 546.004882812 c 0
 262.356445312 545.243164062 259.25390625 544.862304688 256.192382812 544.862304688 c 0
 248.5390625 544.862304688 241.141601562 547.243164062 233.999023438 552.004882812 c 0
 225.288085938 556.982421875 220.93359375 565.0078125 220.93359375 576.083007812 c 0
 220.93359375 588.150390625 225.974609375 603.212890625 238.000976562 622.00390625 c 0
 247.333984375 635.336914062 258.000976562 647.50390625 270.000976562 658.50390625 c 0
 282.000976562 669.50390625 295.66796875 680.00390625 311.000976562 690.00390625 c 0
 326.333984375 700.00390625 344.000976562 707.836914062 364.000976562 713.50390625 c 0
 384.000976562 719.170898438 405.000976562 722.00390625 427.000976562 722.00390625 c 0
 498.333984375 722.00390625 548.333984375 706.00390625 577.000976562 674.00390625 c 0
 595.399414062 653.466796875 604.59765625 626.614257812 604.59765625 593.4453125 c 0
 604.59765625 574.932617188 601.732421875 554.452148438 596.000976562 532.00390625 c 0
 592.000976562 512.670898438 585.833984375 495.170898438 577.500976562 479.50390625 c 0
 569.16796875 463.836914062 559.66796875 450.50390625 549.000976562 439.50390625 c 0
 538.333984375 428.50390625 526.166992188 418.836914062 512.5 410.50390625 c 0
 498.833007812 402.170898438 485.5 395.670898438 472.5 391.00390625 c 0
 459.5 386.336914062 445.666992188 382.669921875 431 380.002929688 c 1
 455 374.002929688 475 366.669921875 491 358.002929688 c 0
 507 349.3359375 520 338.168945312 530 324.501953125 c 0
 540 310.834960938 545.833007812 293.66796875 547.5 273.000976562 c 0
 547.833007812 268.8671875 548 264.573242188 548 260.119140625 c 0
 548 242.305664062 545.333007812 221.932617188 540 199 c 0
EndSplineSet
Validated: 1
EndChar

StartChar: four
Encoding: 52 52 31
Width: 700
GlyphClass: 2
Flags: HMW
HStem: -23.001 21G<395.334 408.001> 223.999 79.999
LayerCount: 2
Fore
SplineSet
456 55 m 0
 455.333007812 33.6669921875 449.500976562 15.33203125 438.500976562 -0.0009765625 c 0
 427.500976562 -15.333984375 415.000976562 -23.0009765625 401.000976562 -23.0009765625 c 0
 389.66796875 -23.0009765625 379.66796875 -18.16796875 371.000976562 -8.5009765625 c 0
 363.489257812 -0.123046875 359.733398438 8.380859375 359.733398438 17.0087890625 c 0
 359.733398438 23.4921875 365.611328125 48.0009765625 368.499023438 59.9990234375 c 0
 372.83203125 77.9990234375 378.999023438 103.83203125 386.999023438 137.499023438 c 0
 394.999023438 171.166015625 401.666015625 199.999023438 406.999023438 223.999023438 c 1
 393.74609375 224.15625 380.954101562 224.234375 368.623046875 224.234375 c 0
 276.12890625 224.234375 209.587890625 219.822265625 168.999023438 210.999023438 c 0
 158.999023438 208.999023438 150.166015625 209.33203125 142.499023438 211.999023438 c 0
 134.83203125 214.666015625 129.499023438 219.333007812 126.499023438 226 c 0
 123.499023438 232.666992188 121.666015625 240.333984375 120.999023438 249.000976562 c 0
 120.33203125 257.66796875 121.165039062 266.66796875 123.498046875 276.000976562 c 0
 125.831054688 285.333984375 129.331054688 294.333984375 133.998046875 303.000976562 c 0
 144.665039062 321.66796875 168.498046875 352.16796875 205.498046875 394.500976562 c 0
 242.498046875 436.833984375 289.665039062 489.166992188 346.998046875 551.5 c 0
 404.331054688 613.833007812 445.331054688 659 469.998046875 687 c 0
 481.331054688 699.666992188 492.831054688 709.166992188 504.498046875 715.5 c 0
 516.165039062 721.833007812 526.33203125 725 534.999023438 725 c 0
 537.301757812 725.2421875 539.543945312 725.36328125 541.725585938 725.36328125 c 0
 551.543945312 725.36328125 560.134765625 722.909179688 567.499023438 718 c 0
 575.877929688 712.4140625 580.068359375 703.072265625 580.068359375 689.973632812 c 0
 580.068359375 684.974609375 578.942382812 656.916992188 564 579 c 0
 554.666992188 530.333007812 546.333984375 489.166015625 539.000976562 455.499023438 c 0
 531.66796875 421.83203125 520.66796875 370.999023438 506.000976562 302.999023438 c 1
 516.66796875 302.33203125 528.66796875 301.999023438 542.000976562 301.999023438 c 0
 556.66796875 301.999023438 566.000976562 298.499023438 570.000976562 291.499023438 c 0
 574.000976562 284.499023438 575.000976562 275.33203125 573.000976562 263.999023438 c 0
 566.333984375 234.666015625 549.666992188 219.999023438 523 219.999023438 c 0
 510.333007812 219.999023438 499 220.33203125 489 220.999023438 c 1
 467 123.666015625 456 68.3330078125 456 55 c 0
487.000976562 601.998046875 m 1
 365.000976562 472.665039062 279.666992188 372.331054688 231 300.998046875 c 1
 266.239257812 303.37890625 309.302734375 304.569335938 360.190429688 304.569335938 c 0
 380.541992188 304.569335938 402.145507812 304.37890625 425 303.998046875 c 1
 453.666992188 428.665039062 474.333984375 527.998046875 487.000976562 601.998046875 c 1
EndSplineSet
Validated: 1
EndChar

StartChar: five
Encoding: 53 53 32
Width: 700
GlyphClass: 2
Flags: HMW
HStem: -18.001 83.998<256.998 263.331> 419.997 89.0029<381.332 444> 619 88.998<581.667 613.001> 630 79.998
LayerCount: 2
Fore
SplineSet
555 296 m 0xd0
 543.666992188 246.666992188 527.6640625 202.166015625 506.997070312 162.499023438 c 0
 486.330078125 122.83203125 462.497070312 89.83203125 435.497070312 63.4990234375 c 0
 408.497070312 37.166015625 378.830078125 16.9990234375 346.497070312 2.9990234375 c 0
 314.1640625 -11.0009765625 280.6640625 -18.0009765625 245.997070312 -18.0009765625 c 0
 218.6640625 -18.0009765625 194.1640625 -15.0009765625 172.497070312 -9.0009765625 c 0
 150.830078125 -3.0009765625 133.497070312 5.33203125 120.497070312 15.9990234375 c 0
 107.497070312 26.666015625 97.1640625 37.8330078125 89.4970703125 49.5 c 0
 81.830078125 61.1669921875 75.9970703125 73.333984375 71.9970703125 86.0009765625 c 0
 70.6640625 93.201171875 69.9970703125 99.8681640625 69.9970703125 106.000976562 c 0
 69.9970703125 115.201171875 71.4970703125 123.201171875 74.4970703125 130.000976562 c 0
 79.4970703125 141.333984375 88.330078125 150.000976562 100.997070312 156.000976562 c 0
 108.997070312 159.333984375 115.1640625 161.666992188 119.497070312 163 c 0
 123.830078125 164.333007812 128.830078125 164.666015625 134.497070312 163.999023438 c 0
 140.1640625 163.33203125 144.831054688 160.665039062 148.498046875 155.998046875 c 0
 152.165039062 151.331054688 155.665039062 144.6640625 158.998046875 135.997070312 c 0
 176.331054688 89.9970703125 208.998046875 66.6640625 256.998046875 65.9970703125 c 0
 303.665039062 65.9970703125 345.165039062 85.830078125 381.498046875 125.497070312 c 0
 417.831054688 165.1640625 443.6640625 218.331054688 458.997070312 284.998046875 c 0
 463.211914062 303.6640625 465.319335938 320.59765625 465.319335938 335.796875 c 0
 465.319335938 354.252929688 462.211914062 370.153320312 455.997070312 383.497070312 c 0
 444.6640625 407.830078125 421.331054688 419.997070312 385.998046875 419.997070312 c 0
 376.665039062 419.997070312 367.498046875 419.497070312 358.498046875 418.497070312 c 0
 349.498046875 417.497070312 341.831054688 416.1640625 335.498046875 414.497070312 c 0
 329.165039062 412.830078125 321.998046875 410.330078125 313.998046875 406.997070312 c 0
 305.998046875 403.6640625 299.998046875 400.997070312 295.998046875 398.997070312 c 0
 291.998046875 396.997070312 286.331054688 393.330078125 278.998046875 387.997070312 c 0
 271.665039062 382.6640625 266.83203125 378.997070312 264.499023438 376.997070312 c 0
 262.166015625 374.997070312 257.166015625 370.830078125 249.499023438 364.497070312 c 0
 241.83203125 358.1640625 236.999023438 354.331054688 234.999023438 352.998046875 c 0
 228.999023438 348.331054688 222.166015625 344.331054688 214.499023438 340.998046875 c 0
 206.83203125 337.665039062 198.499023438 335.498046875 189.499023438 334.498046875 c 0
 180.499023438 333.498046875 172.33203125 334.998046875 164.999023438 338.998046875 c 0
 155.666015625 343.665039062 150.166015625 353.998046875 148.499023438 369.998046875 c 0
 148.060546875 374.208984375 147.840820312 378.673828125 147.840820312 383.392578125 c 0
 147.840820312 396.603515625 149.560546875 411.805664062 152.999023438 428.998046875 c 0
 157.666015625 452.331054688 162.999023438 474.831054688 168.999023438 496.498046875 c 0
 174.999023438 518.165039062 181.666015625 541.498046875 188.999023438 566.498046875 c 0
 196.33203125 591.498046875 200.999023438 608.665039062 202.999023438 617.998046875 c 1
 199.666015625 626.665039062 198.666015625 636.498046875 199.999023438 647.498046875 c 0
 201.33203125 658.498046875 204.33203125 668.665039062 208.999023438 677.998046875 c 0
 213.666015625 687.331054688 219.833007812 695.331054688 227.5 701.998046875 c 0
 235.166992188 708.665039062 243.333984375 711.998046875 252.000976562 711.998046875 c 0
 275.333984375 711.998046875 329.500976562 711.331054688 414.500976562 709.998046875 c 0xd0
 499.500976562 708.665039062 564.333984375 707.998046875 609.000976562 707.998046875 c 0
 617.000976562 707.998046875 622.66796875 704.331054688 626.000976562 696.998046875 c 0
 629.333984375 689.665039062 630.666992188 681.33203125 630 671.999023438 c 0
 629.333007812 662.666015625 627.666015625 653.999023438 624.999023438 645.999023438 c 0
 623.666015625 641.33203125 621.833007812 637.33203125 619.5 633.999023438 c 0
 617.166992188 630.666015625 614.333984375 628.166015625 611.000976562 626.499023438 c 0
 607.66796875 624.83203125 604.834960938 623.33203125 602.501953125 621.999023438 c 0
 600.168945312 620.666015625 596.668945312 619.833007812 592.001953125 619.5 c 0
 587.334960938 619.166992188 584.16796875 619 582.500976562 619 c 0xe0
 580.833984375 619 577.333984375 619.333007812 572.000976562 620 c 0
 566.66796875 620.666992188 563.66796875 621 563.000976562 621 c 0
 554.333984375 621 539.166992188 622 517.5 624 c 0
 495.833007812 626 476.333007812 627.5 459 628.5 c 0
 441.666992188 629.5 417.5 630 386.5 630 c 0
 355.5 630 323 629 289 627 c 1
 287 620.333007812 281.833007812 601 273.5 569 c 0
 265.166992188 537 259.166992188 513.833007812 255.5 499.5 c 0
 251.833007812 485.166992188 247.333007812 464.666992188 242 438 c 1
 264 458.666992188 291.333007812 475.666992188 324 489 c 0
 356.666992188 502.333007812 392 509 430 509 c 0
 458 509 481.666992188 503.5 501 492.5 c 0
 520.333007812 481.5 535 466.333007812 545 447 c 0
 555 427.666992188 560.833007812 405.166992188 562.5 379.5 c 0
 562.833007812 374.366210938 563 369.145507812 563 363.837890625 c 0
 563 342.611328125 560.333007812 319.999023438 555 296 c 0xd0
EndSplineSet
Validated: 1
EndChar

StartChar: six
Encoding: 54 54 33
Width: 700
GlyphClass: 2
Flags: HMW
HStem: -21.9971 84.0049<291.665 295.333> 393.004 87.9961<373.333 448.333> 657 80.002
VStem: 113.999 82.9971 481.499 95
LayerCount: 2
Fore
SplineSet
565 246 m 0
 556.333007812 208.666992188 542.33203125 173.502929688 522.999023438 140.502929688 c 0
 503.666015625 107.502929688 481.499023438 79.169921875 456.499023438 55.5029296875 c 0
 431.499023438 31.8359375 403.499023438 13.0029296875 372.499023438 -0.9970703125 c 0
 341.499023438 -14.9970703125 310.666015625 -21.9970703125 279.999023438 -21.9970703125 c 0
 241.999023438 -21.9970703125 210.499023438 -14.1640625 185.499023438 1.5029296875 c 0
 160.499023438 17.169921875 142.166015625 39.8369140625 130.499023438 69.50390625 c 0
 119.462890625 97.56640625 113.9453125 130.848632812 113.9453125 169.349609375 c 0
 113.9453125 171.55078125 113.962890625 173.768554688 113.999023438 176.00390625 c 0
 114.666015625 217.336914062 121.333007812 263.669921875 134 315.002929688 c 0
 148 372.3359375 165.333007812 424.002929688 186 470.002929688 c 0
 206.666992188 516.002929688 229.5 554.669921875 254.5 586.002929688 c 0
 279.5 617.3359375 307.333007812 643.8359375 338 665.502929688 c 0
 368.666992188 687.169921875 400.333984375 703.669921875 433.000976562 715.002929688 c 0
 465.66796875 726.3359375 501.000976562 733.668945312 539.000976562 737.001953125 c 0
 541.793945312 737.255859375 544.484375 737.3828125 547.071289062 737.3828125 c 0
 558.072265625 737.3828125 567.21484375 735.088867188 574.500976562 730.500976562 c 0
 582.879882812 725.224609375 587.0703125 716.915039062 587.0703125 705.571289062 c 0
 587.0703125 701.477539062 587.0703125 691.969726562 570 676.5 c 0
 559.333007812 666.833007812 548.666015625 660.333007812 537.999023438 657 c 0
 530.666015625 655 519.499023438 652.333007812 504.499023438 649 c 0
 489.499023438 645.666992188 476.83203125 642.5 466.499023438 639.5 c 0
 456.166015625 636.5 443.499023438 632 428.499023438 626 c 0
 413.499023438 620 397.999023438 611.333007812 381.999023438 600 c 0
 365.999023438 588.666992188 349.666015625 575 332.999023438 559 c 0
 315.666015625 541.666992188 297.833007812 518 279.5 488 c 0
 261.166992188 458 247.666992188 431.333007812 239 408 c 1
 264.333007812 432.666992188 293.666015625 451 326.999023438 463 c 0
 360.33203125 475 395.999023438 481 433.999023438 481 c 0
 462.666015625 481 487.166015625 476.666992188 507.499023438 468 c 0
 527.83203125 459.333007812 543.999023438 445.666015625 555.999023438 426.999023438 c 0
 567.999023438 408.33203125 574.83203125 383.83203125 576.499023438 353.499023438 c 0
 576.751953125 348.90234375 576.877929688 344.178710938 576.877929688 339.330078125 c 0
 576.877929688 312.178710938 572.918945312 281.069335938 565 246 c 0
198.999023438 230.002929688 m 0
 197.498046875 218.997070312 196.74609375 207.899414062 196.74609375 196.708007812 c 0
 196.74609375 192.984375 196.830078125 189.250976562 196.99609375 185.506835938 c 0
 197.663085938 170.506835938 200.330078125 155.33984375 204.997070312 140.006835938 c 0
 209.6640625 124.673828125 215.831054688 111.340820312 223.498046875 100.0078125 c 0
 231.165039062 88.6748046875 241.665039062 79.5078125 254.998046875 72.5078125 c 0
 268.331054688 65.5078125 283.331054688 62.0078125 299.998046875 62.0078125 c 0
 322.665039062 62.0078125 346.33203125 70.6748046875 370.999023438 88.0078125 c 0
 395.666015625 105.340820312 416.999023438 127.173828125 434.999023438 153.506835938 c 0
 452.999023438 179.83984375 464.999023438 206.672851562 470.999023438 234.005859375 c 0
 478.013671875 263.977539062 481.520507812 289.375 481.520507812 310.196289062 c 0
 481.520507812 333.04296875 477.297851562 350.248046875 468.999023438 362.00390625 c 0
 460.999023438 373.336914062 450.666015625 381.336914062 437.999023438 386.00390625 c 0
 425.33203125 390.670898438 408.999023438 393.00390625 388.999023438 393.00390625 c 0
 357.666015625 393.00390625 326.499023438 384.336914062 295.499023438 367.00390625 c 0
 264.499023438 349.670898438 237.33203125 327.670898438 213.999023438 301.00390625 c 1
 206.666015625 272.336914062 201.666015625 248.669921875 198.999023438 230.002929688 c 0
EndSplineSet
Validated: 1
EndChar

StartChar: seven
Encoding: 55 55 34
Width: 700
GlyphClass: 2
Flags: HMW
HStem: 622.497 90.5
LayerCount: 2
Fore
SplineSet
167 26 m 0
 155.666992188 8.6669921875 143.162109375 -4.3359375 129.495117188 -13.0029296875 c 0
 119.043945312 -19.630859375 109.275390625 -22.9443359375 100.189453125 -22.9443359375 c 0
 97.3935546875 -22.9443359375 94.662109375 -22.630859375 91.9951171875 -22.0029296875 c 0
 79.328125 -18.669921875 71.828125 -10.669921875 69.4951171875 1.9970703125 c 0
 69.0537109375 4.3935546875 68.8330078125 6.837890625 68.8330078125 9.3291015625 c 0
 68.8330078125 20.0087890625 72.88671875 31.564453125 80.9951171875 43.9970703125 c 0
 128.328125 112.6640625 177.995117188 180.997070312 229.995117188 248.997070312 c 0
 281.995117188 316.997070312 324.495117188 371.1640625 357.495117188 411.497070312 c 0
 390.495117188 451.830078125 421.495117188 490.997070312 450.495117188 528.997070312 c 0
 479.495117188 566.997070312 500.328125 597.997070312 512.995117188 621.997070312 c 1
 483.903320312 623.087890625 453.622070312 623.633789062 422.149414062 623.633789062 c 0
 395.924804688 623.633789062 368.874023438 623.254882812 340.99609375 622.497070312 c 0
 279.663085938 620.830078125 238.99609375 617.330078125 218.99609375 611.997070312 c 0
 210.99609375 609.997070312 204.49609375 610.330078125 199.49609375 612.997070312 c 0
 194.49609375 615.6640625 190.829101562 619.6640625 188.49609375 624.997070312 c 0
 186.163085938 630.330078125 184.830078125 635.997070312 184.497070312 641.997070312 c 0
 184.1640625 647.997070312 184.331054688 653.997070312 184.998046875 659.997070312 c 0
 187.665039062 671.997070312 192.665039062 681.497070312 199.998046875 688.497070312 c 0
 207.331054688 695.497070312 218.998046875 700.6640625 234.998046875 703.997070312 c 0
 258.998046875 708.6640625 291.331054688 711.6640625 331.998046875 712.997070312 c 0
 352.33203125 713.6640625 371.83203125 713.997070312 390.498046875 713.997070312 c 0
 409.165039062 713.997070312 426.998046875 713.663085938 443.998046875 712.997070312 c 0
 477.998046875 711.6640625 511.165039062 710.331054688 543.498046875 708.998046875 c 0
 575.831054688 707.665039062 593.331054688 706.998046875 595.998046875 706.998046875 c 0
 602.665039062 706.998046875 608.665039062 705.498046875 613.998046875 702.498046875 c 0
 619.331054688 699.498046875 623.998046875 694.665039062 627.998046875 687.998046875 c 0
 631.998046875 681.331054688 632.831054688 672.6640625 630.498046875 661.997070312 c 0
 628.165039062 651.330078125 622.33203125 638.997070312 612.999023438 624.997070312 c 0
 599.666015625 604.997070312 576.999023438 574.830078125 544.999023438 534.497070312 c 0
 512.999023438 494.1640625 479.83203125 452.831054688 445.499023438 410.498046875 c 0
 411.166015625 368.165039062 368.333007812 311.83203125 317 241.499023438 c 0
 265.666992188 171.166015625 215.666992188 99.3330078125 167 26 c 0
EndSplineSet
Validated: 1
EndChar

StartChar: eight
Encoding: 56 56 35
Width: 700
GlyphClass: 2
Flags: HMW
HStem: -27.9922 85.9971<280.667 285.333> 646.004 72.001<433.333 438.333>
VStem: 478.5 90.501
LayerCount: 2
Fore
SplineSet
564 204 m 0
 559.333007812 182.666992188 551.83203125 161.338867188 541.499023438 140.005859375 c 0
 531.166015625 118.672851562 517.499023438 97.83984375 500.499023438 77.5068359375 c 0
 483.499023438 57.173828125 464.166015625 39.3408203125 442.499023438 24.0078125 c 0
 420.83203125 8.6748046875 394.999023438 -3.8251953125 364.999023438 -13.4921875 c 0
 334.999023438 -23.1591796875 302.666015625 -27.9921875 267.999023438 -27.9921875 c 0
 236.666015625 -27.9921875 209.499023438 -23.3251953125 186.499023438 -13.9921875 c 0
 163.499023438 -4.6591796875 145.83203125 7.173828125 133.499023438 21.5068359375 c 0
 121.166015625 35.83984375 111.833007812 53.0068359375 105.5 73.0068359375 c 0
 99.4833984375 92.0078125 96.474609375 111.159179688 96.474609375 130.4609375 c 0
 96.474609375 141.575195312 97.3037109375 165.397460938 104 196.005859375 c 0
 109.333007812 218.672851562 120.333007812 243.005859375 137 269.005859375 c 0
 153.666992188 295.005859375 174.666992188 319.005859375 200 341.005859375 c 0
 225.333007812 363.005859375 251.333007812 378.338867188 278 387.005859375 c 1
 248.666992188 403.672851562 228 425.505859375 216 452.505859375 c 0
 208.286132812 469.86328125 204.428710938 487.426757812 204.428710938 505.197265625 c 0
 204.428710938 515.069335938 205.619140625 525.005859375 208 535.005859375 c 0
 210 543.005859375 212.5 551.505859375 215.5 560.505859375 c 0
 218.5 569.505859375 223.333007812 580.172851562 230 592.505859375 c 0
 236.666992188 604.838867188 244.166992188 616.671875 252.5 628.004882812 c 0
 260.833007812 639.337890625 271.333007812 650.504882812 284 661.504882812 c 0
 296.666992188 672.504882812 310.5 682.171875 325.5 690.504882812 c 0
 340.5 698.837890625 358.333007812 705.504882812 379 710.504882812 c 0
 399.666992188 715.504882812 421.666992188 718.004882812 445 718.004882812 c 0
 469 718.004882812 490.166992188 715.504882812 508.5 710.504882812 c 0
 526.833007812 705.504882812 541.833007812 698.837890625 553.5 690.504882812 c 0
 565.166992188 682.171875 574.666992188 672.504882812 582 661.504882812 c 0
 589.333007812 650.504882812 594.666015625 639.337890625 597.999023438 628.004882812 c 0
 601.33203125 616.671875 603.33203125 604.671875 603.999023438 592.004882812 c 0
 604.265625 586.938476562 604.399414062 582.112304688 604.399414062 577.525390625 c 0
 604.399414062 570.64453125 604.098632812 564.3046875 603.499023438 558.50390625 c 0
 602.499023438 548.836914062 600.999023438 539.669921875 598.999023438 531.002929688 c 0
 596.999023438 523.002929688 594.166015625 515.002929688 590.499023438 507.002929688 c 0
 586.83203125 499.002929688 582.83203125 492.002929688 578.499023438 486.002929688 c 0
 574.166015625 480.002929688 568.666015625 473.669921875 561.999023438 467.002929688 c 0
 555.33203125 460.3359375 549.33203125 454.668945312 543.999023438 450.001953125 c 0
 538.666015625 445.334960938 531.833007812 440.001953125 523.5 434.001953125 c 0
 515.166992188 428.001953125 508.5 423.501953125 503.5 420.501953125 c 0
 498.5 417.501953125 491.833007812 413.334960938 483.5 408.001953125 c 0
 475.166992188 402.668945312 469.333984375 399.001953125 466.000976562 397.001953125 c 1
 486.66796875 386.334960938 504.16796875 374.334960938 518.500976562 361.001953125 c 0
 532.833984375 347.668945312 543.500976562 334.501953125 550.500976562 321.501953125 c 0
 557.500976562 308.501953125 562.500976562 294.668945312 565.500976562 280.001953125 c 0
 567.955078125 268.001953125 569.182617188 257.006835938 569.182617188 247.014648438 c 0
 569.182617188 244.793945312 569.122070312 242.623046875 569.000976562 240.500976562 c 0
 568.333984375 228.833984375 566.666992188 216.666992188 564 204 c 0
295.999023438 538.004882812 m 0
 294.600585938 532.235351562 293.901367188 526.637695312 293.901367188 521.211914062 c 0
 293.901367188 505.94921875 299.434570312 492.046875 310.500976562 479.504882812 c 0
 325.500976562 462.504882812 353.000976562 445.337890625 393.000976562 428.004882812 c 1
 421.66796875 439.337890625 448.16796875 454.670898438 472.500976562 474.00390625 c 0
 496.833984375 493.336914062 510.666992188 511.336914062 514 528.00390625 c 0
 515.713867188 536.00390625 516.571289062 543.942382812 516.571289062 551.819335938 c 0
 516.571289062 562.323242188 515.047851562 572.717773438 512 583.00390625 c 0
 506.666992188 601.00390625 496.5 616.00390625 481.5 628.00390625 c 0
 466.5 640.00390625 448.666992188 646.00390625 428 646.00390625 c 0
 399.333007812 646.00390625 371.666015625 634.836914062 344.999023438 612.50390625 c 0
 318.33203125 590.170898438 301.999023438 565.337890625 295.999023438 538.004882812 c 0
292.000976562 58.0048828125 m 0
 310.000976562 58.0048828125 328.666992188 60.8330078125 348 66.5 c 0
 367.333007812 72.1669921875 385.5 80.333984375 402.5 91.0009765625 c 0
 419.5 101.66796875 434.5 115.66796875 447.5 133.000976562 c 0
 460.5 150.333984375 469.333007812 168.666992188 474 188 c 0
 475.750976562 195.001953125 478.549804688 208.245117188 478.549804688 221.444335938 c 0
 478.549804688 230.415039062 477.200195312 240.600585938 474.5 252.001953125 c 0
 471.5 264.668945312 466.333007812 276.3359375 459 287.002929688 c 0
 451.666992188 297.669921875 440.666992188 308.836914062 426 320.50390625 c 0
 411.333007812 332.170898438 393 342.670898438 371 352.00390625 c 1
 323 339.336914062 281.666992188 317.336914062 247 286.00390625 c 0
 212.333007812 254.670898438 190.666015625 221.337890625 181.999023438 186.004882812 c 0
 179.701171875 176.557617188 178.551757812 167.453125 178.551757812 158.690429688 c 0
 178.551757812 144.573242188 181.534179688 131.344726562 187.499023438 119.004882812 c 0
 197.166015625 99.0048828125 211.333007812 83.837890625 230 73.5048828125 c 0
 248.666992188 63.171875 269.333984375 58.0048828125 292.000976562 58.0048828125 c 0
EndSplineSet
Validated: 1
EndChar

StartChar: nine
Encoding: 57 57 36
Width: 700
GlyphClass: 2
Flags: HMW
HStem: -22 79.9961<152 152> 234.998 89<278.333 349.667> 654.995 84.0049<417.667 421.331>
LayerCount: 2
Fore
SplineSet
152 -22 m 0
 149.204101562 -22.25390625 146.504882812 -22.380859375 143.90234375 -22.380859375 c 0
 132.853515625 -22.380859375 123.55078125 -20.0908203125 115.997070312 -15.50390625 c 0
 107.830078125 -10.544921875 103.747070312 -2.90625 103.747070312 7.412109375 c 0
 103.747070312 14.451171875 104.545898438 24.6025390625 120.998046875 38.9970703125 c 0
 131.665039062 48.330078125 142.33203125 54.6630859375 152.999023438 57.99609375 c 0
 160.33203125 59.99609375 171.999023438 62.6630859375 187.999023438 65.99609375 c 0
 203.999023438 69.3291015625 218.499023438 72.8291015625 231.499023438 76.49609375 c 0
 244.499023438 80.1630859375 259.33203125 84.99609375 275.999023438 90.99609375 c 0
 292.666015625 96.99609375 309.166015625 105.329101562 325.499023438 115.99609375 c 0
 341.83203125 126.663085938 357.999023438 139.330078125 373.999023438 153.997070312 c 0
 393.999023438 173.330078125 412.999023438 195.830078125 430.999023438 221.497070312 c 0
 448.999023438 247.1640625 462.33203125 270.331054688 470.999023438 290.998046875 c 1
 448.999023438 269.665039062 423.666015625 254.998046875 394.999023438 246.998046875 c 0
 366.33203125 238.998046875 331.999023438 234.998046875 291.999023438 234.998046875 c 0
 264.666015625 234.998046875 240.166015625 241.831054688 218.499023438 255.498046875 c 0
 196.83203125 269.165039062 179.999023438 287.33203125 167.999023438 309.999023438 c 0
 155.999023438 332.666015625 148.33203125 358.833007812 144.999023438 388.5 c 0
 143.887695312 398.387695312 143.333007812 408.33203125 143.333007812 418.331054688 c 0
 143.333007812 438.33203125 145.5546875 458.555664062 150 479.000976562 c 0
 158.666992188 516.333984375 172.5 551.166992188 191.5 583.5 c 0
 210.5 615.833007812 232.5 643.333007812 257.5 666 c 0
 282.5 688.666992188 310.333007812 706.5 341 719.5 c 0
 371.666992188 732.5 402.333984375 739 433.000976562 739 c 0
 509.000976562 739 558.500976562 708 581.500976562 646 c 0
 591.873046875 618.0390625 597.059570312 584.586914062 597.059570312 545.643554688 c 0
 597.059570312 498.234375 589.373046875 442.686523438 574.000976562 379 c 0
 561.333984375 325.666992188 544.166992188 277.5 522.5 234.5 c 0
 500.833007812 191.5 476.666015625 155 449.999023438 125 c 0
 423.33203125 95 393.499023438 69.3330078125 360.499023438 48 c 0
 327.499023438 26.6669921875 293.83203125 10.5 259.499023438 -0.5 c 0
 225.166015625 -11.5 189.333007812 -18.6669921875 152 -22 c 0
243.997070312 490.995117188 m 0
 238.267578125 466.268554688 235.403320312 444.237304688 235.403320312 424.8984375 c 0
 235.403320312 401.482421875 239.603515625 382.015625 248.000976562 366.498046875 c 0
 263.333984375 338.165039062 292.666992188 323.998046875 336 323.998046875 c 0
 363.333007812 323.998046875 391.666015625 330.665039062 420.999023438 343.998046875 c 0
 450.33203125 357.331054688 475.33203125 375.6640625 495.999023438 398.997070312 c 1
 501.33203125 418.330078125 507.33203125 447.663085938 513.999023438 486.99609375 c 0
 515.499023438 497.99609375 516.249023438 509.088867188 516.249023438 520.276367188 c 0
 516.249023438 524.005859375 516.166015625 527.74609375 515.999023438 531.49609375 c 0
 515.33203125 546.49609375 512.665039062 561.663085938 507.998046875 576.99609375 c 0
 503.331054688 592.329101562 497.1640625 605.662109375 489.497070312 616.995117188 c 0
 481.830078125 628.328125 471.330078125 637.495117188 457.997070312 644.495117188 c 0
 444.6640625 651.495117188 429.6640625 654.995117188 412.997070312 654.995117188 c 0
 389.6640625 654.995117188 366.1640625 646.995117188 342.497070312 630.995117188 c 0
 318.830078125 614.995117188 297.997070312 594.495117188 279.997070312 569.495117188 c 0
 261.997070312 544.495117188 249.997070312 518.328125 243.997070312 490.995117188 c 0
EndSplineSet
Validated: 1
EndChar

StartChar: colon
Encoding: 58 58 37
Width: 700
GlyphClass: 2
Flags: HMW
VStem: 254.004 192.996
LayerCount: 2
Fore
SplineSet
447 417 m 0
 443.666992188 395 436.00390625 371.6640625 424.00390625 346.997070312 c 0
 418.00390625 333.6640625 409.00390625 323.497070312 397.00390625 316.497070312 c 0
 386.047851562 310.106445312 375.924804688 306.91015625 366.635742188 306.91015625 c 0
 365.750976562 306.91015625 364.874023438 306.939453125 364.00390625 306.997070312 c 0
 330.943359375 308.80078125 314.4140625 321.442382812 314.4140625 344.924804688 c 0
 314.4140625 347.486328125 314.610351562 350.177734375 315.00390625 352.997070312 c 0
 317.670898438 370.997070312 322.337890625 393.997070312 329.004882812 421.997070312 c 0
 331.004882812 430.6640625 335.004882812 437.831054688 341.004882812 443.498046875 c 0
 347.004882812 449.165039062 353.671875 453.33203125 361.004882812 455.999023438 c 0
 368.337890625 458.666015625 375.170898438 460.333007812 381.50390625 461 c 0
 387.836914062 461.666992188 394.336914062 462 401.00390625 462 c 0
 406.336914062 462 411.669921875 461.333007812 417.002929688 460 c 0
 422.3359375 458.666992188 427.668945312 456.5 433.001953125 453.5 c 0
 438.334960938 450.5 442.16796875 445.833007812 444.500976562 439.5 c 0
 446.833984375 433.166992188 447.666992188 425.666992188 447 417 c 0
386.00390625 149.997070312 m 0
 384.670898438 126.6640625 378.004882812 102.66015625 366.004882812 77.9931640625 c 0
 360.004882812 64.66015625 350.004882812 54.8271484375 336.004882812 48.494140625 c 0
 323.338867188 42.7646484375 312.037109375 39.8994140625 302.099609375 39.8994140625 c 0
 301.052734375 39.8994140625 300.021484375 39.931640625 299.004882812 39.9951171875 c 0
 286.337890625 40.662109375 275.170898438 44.8291015625 265.50390625 52.49609375 c 0
 257.494140625 58.8486328125 253.489257812 67.375 253.489257812 78.0751953125 c 0
 253.489257812 80.2890625 253.661132812 82.595703125 254.00390625 84.99609375 c 0
 256.670898438 98.99609375 258.337890625 107.829101562 259.004882812 111.49609375 c 0
 259.671875 115.163085938 261.504882812 121.99609375 264.504882812 131.99609375 c 0
 267.504882812 141.99609375 269.671875 149.663085938 271.004882812 154.99609375 c 0
 273.004882812 162.99609375 276.837890625 169.99609375 282.504882812 175.99609375 c 0
 288.171875 181.99609375 294.504882812 186.163085938 301.504882812 188.49609375 c 0
 308.504882812 190.829101562 315.171875 192.49609375 321.504882812 193.49609375 c 0
 327.837890625 194.49609375 334.004882812 194.99609375 340.004882812 194.99609375 c 0
 347.337890625 194.99609375 354.337890625 193.829101562 361.004882812 191.49609375 c 0
 367.671875 189.163085938 373.671875 184.330078125 379.004882812 176.997070312 c 0
 384.337890625 169.6640625 386.670898438 160.6640625 386.00390625 149.997070312 c 0
EndSplineSet
Validated: 1
EndChar

StartChar: semicolon
Encoding: 59 59 38
Width: 700
GlyphClass: 2
Flags: HMW
VStem: 201.006 300.994
LayerCount: 2
Fore
SplineSet
502 375 m 0
 498.666992188 353 490.671875 329.666015625 478.004882812 304.999023438 c 0
 472.004882812 291.666015625 463.004882812 281.499023438 451.004882812 274.499023438 c 0
 440.048828125 268.108398438 430.204101562 264.912109375 421.470703125 264.912109375 c 0
 420.638671875 264.912109375 419.81640625 264.94140625 419.004882812 264.999023438 c 0
 411.004882812 265.666015625 403.171875 267.499023438 395.504882812 270.499023438 c 0
 387.837890625 273.499023438 381.170898438 278.666015625 375.50390625 285.999023438 c 0
 369.836914062 293.33203125 367.669921875 301.999023438 369.002929688 311.999023438 c 0
 371.669921875 329.999023438 377.002929688 352.999023438 385.002929688 380.999023438 c 0
 387.002929688 388.999023438 390.8359375 395.999023438 396.502929688 401.999023438 c 0
 402.169921875 407.999023438 408.669921875 412.166015625 416.002929688 414.499023438 c 0
 423.3359375 416.83203125 430.3359375 418.499023438 437.002929688 419.499023438 c 0
 443.669921875 420.499023438 449.669921875 420.666015625 455.002929688 419.999023438 c 0
 461.002929688 419.999023438 466.669921875 419.499023438 472.002929688 418.499023438 c 0
 477.3359375 417.499023438 482.668945312 415.33203125 488.001953125 411.999023438 c 0
 493.334960938 408.666015625 497.16796875 403.833007812 499.500976562 397.5 c 0
 501.833984375 391.166992188 502.666992188 383.666992188 502 375 c 0
414.004882812 73.9990234375 m 0
 407.337890625 52.666015625 367.005859375 -34.3349609375 293.005859375 -187.001953125 c 0
 286.338867188 -201.001953125 277.838867188 -211.168945312 267.505859375 -217.501953125 c 0
 258.157226562 -223.231445312 248.9453125 -226.096679688 239.869140625 -226.096679688 c 0
 238.913085938 -226.096679688 237.958984375 -226.064453125 237.005859375 -226.000976562 c 0
 224.338867188 -225.333984375 214.005859375 -221.000976562 206.005859375 -213.000976562 c 0
 200.953125 -207.948242188 198.426757812 -201.69921875 198.426757812 -194.252929688 c 0
 198.426757812 -189.909179688 199.286132812 -185.159179688 201.005859375 -180.000976562 c 0
 205.672851562 -164.000976562 221.172851562 -125.000976562 247.505859375 -63.0009765625 c 0
 273.838867188 -1.0009765625 294.338867188 46.33203125 309.005859375 78.9990234375 c 0
 313.672851562 88.9990234375 318.505859375 96.9990234375 323.505859375 102.999023438 c 0
 328.505859375 108.999023438 333.338867188 112.999023438 338.005859375 114.999023438 c 0
 342.672851562 116.999023438 347.672851562 118.33203125 353.005859375 118.999023438 c 0
 358.338867188 119.666015625 363.005859375 119.666015625 367.005859375 118.999023438 c 0
 373.005859375 118.999023438 379.005859375 118.166015625 385.005859375 116.499023438 c 0
 391.005859375 114.83203125 396.838867188 112.499023438 402.505859375 109.499023438 c 0
 408.172851562 106.499023438 412.172851562 101.999023438 414.505859375 95.9990234375 c 0
 416.838867188 89.9990234375 416.671875 82.666015625 414.004882812 73.9990234375 c 0
EndSplineSet
Validated: 1
EndChar

StartChar: less
Encoding: 60 60 39
Width: 700
GlyphClass: 2
Flags: W
HStem: -12.3984 21G<411.175 416.908>
LayerCount: 2
Fore
SplineSet
467 14 m 0
 462.333007812 7.3330078125 456.500976562 1.66796875 449.500976562 -2.9990234375 c 0
 442.500976562 -7.666015625 433.500976562 -10.666015625 422.500976562 -11.9990234375 c 0
 420.301757812 -12.265625 418.0546875 -12.3984375 415.76171875 -12.3984375 c 0
 406.587890625 -12.3984375 396.66796875 -10.265625 386.000976562 -5.9990234375 c 0
 372.000976562 -0.666015625 355.66796875 11.0009765625 337.000976562 29.0009765625 c 0
 318.333984375 47.0009765625 298.666992188 68.5009765625 278 93.5009765625 c 0
 257.333007812 118.500976562 237 144.000976562 217 170.000976562 c 0
 197 196.000976562 175.833007812 222.833984375 153.5 250.500976562 c 0
 131.166992188 278.16796875 111.666992188 299.66796875 95 315.000976562 c 0
 88.3330078125 321.000976562 85 330.000976562 85 342.000976562 c 0
 85 354.000976562 87.8330078125 365.500976562 93.5 376.500976562 c 0
 99.1669921875 387.500976562 106.333984375 395.333984375 115.000976562 400.000976562 c 0
 156.333984375 428.000976562 205.833984375 463.16796875 263.500976562 505.500976562 c 0
 321.16796875 547.833984375 373.66796875 586.166992188 421.000976562 620.5 c 0
 468.333984375 654.833007812 509.666992188 682 545 702 c 0
 556.333007812 708.666992188 566.333007812 712.166992188 575 712.5 c 0
 583.666992188 712.833007812 590.666992188 711.166015625 596 707.499023438 c 0
 601.333007812 703.83203125 605.5 699.33203125 608.5 693.999023438 c 0
 611.5 688.666015625 613.666992188 682.999023438 615 676.999023438 c 0
 615.592773438 674.48046875 615.888671875 671.953125 615.888671875 669.41796875 c 0
 615.888671875 660.545898438 612.259765625 651.573242188 605.000976562 642.499023438 c 0
 595.66796875 630.83203125 578.66796875 616.999023438 554.000976562 600.999023438 c 0
 513.333984375 574.999023438 450.666992188 532.33203125 366 472.999023438 c 0
 281.333007812 413.666015625 227.666015625 375.999023438 204.999023438 359.999023438 c 1
 224.33203125 339.999023438 245.499023438 315.83203125 268.499023438 287.499023438 c 0
 291.499023438 259.166015625 311.499023438 233.499023438 328.499023438 210.499023438 c 0
 345.499023438 187.499023438 364.33203125 163.999023438 384.999023438 139.999023438 c 0
 405.666015625 115.999023438 424.333007812 96.9990234375 441 82.9990234375 c 0
 457.666992188 68.9990234375 468 56.83203125 472 46.4990234375 c 0
 473.412109375 42.8525390625 474.1171875 39.142578125 474.1171875 35.3720703125 c 0
 474.1171875 28.45703125 471.745117188 21.3330078125 467 14 c 0
EndSplineSet
Validated: 1
EndChar

StartChar: equal
Encoding: 61 61 40
Width: 700
GlyphClass: 2
Flags: HMW
HStem: 246.996 83<177.332 205.999> 442.999 85.001
LayerCount: 2
Fore
SplineSet
249 528 m 0
 284.333007812 526.666992188 320.499023438 525.99609375 357.499023438 525.99609375 c 0
 394.499023438 525.99609375 429.33203125 526.329101562 461.999023438 526.99609375 c 0
 494.666015625 527.663085938 514.333007812 527.99609375 521 527.99609375 c 0
 535.666992188 527.99609375 545 524.663085938 549 517.99609375 c 0
 553 511.329101562 554 502.329101562 552 490.99609375 c 0
 550.666992188 484.99609375 549 479.49609375 547 474.49609375 c 0
 545 469.49609375 542 464.663085938 538 459.99609375 c 0
 534 455.329101562 529 451.829101562 523 449.49609375 c 0
 517 447.163085938 510.333007812 446.330078125 503 446.997070312 c 0
 488.326171875 447.442382812 472.985351562 447.6640625 456.9765625 447.6640625 c 0
 448.984375 447.6640625 440.825195312 447.609375 432.5 447.498046875 c 0
 407.5 447.165039062 373.166992188 446.33203125 329.5 444.999023438 c 0
 285.833007812 443.666015625 254 442.999023438 234 442.999023438 c 0
 218.666992188 442.999023438 207.5 446.999023438 200.5 454.999023438 c 0
 193.5 462.999023438 191.333007812 472.666015625 194 483.999023438 c 0
 196 496.666015625 201.833007812 507.333007812 211.5 516 c 0
 220.4765625 524.047851562 231.89453125 528.071289062 245.756835938 528.071289062 c 0
 246.823242188 528.071289062 247.904296875 528.047851562 249 528 c 0
205.999023438 329.99609375 m 0
 222.25 329.7734375 239.430664062 329.662109375 257.541015625 329.662109375 c 0
 293.663085938 329.662109375 333.481445312 330.10546875 376.998046875 330.993164062 c 0
 442.331054688 332.326171875 475.331054688 332.993164062 475.998046875 332.993164062 c 0
 490.665039062 332.993164062 499.998046875 329.493164062 503.998046875 322.493164062 c 0
 507.998046875 315.493164062 508.998046875 306.326171875 506.998046875 294.993164062 c 0
 505.665039062 288.993164062 503.83203125 283.493164062 501.499023438 278.493164062 c 0
 499.166015625 273.493164062 496.166015625 268.66015625 492.499023438 263.993164062 c 0
 488.83203125 259.326171875 483.999023438 255.826171875 477.999023438 253.493164062 c 0
 471.999023438 251.16015625 465.33203125 250.327148438 457.999023438 250.994140625 c 0
 443.325195312 251.439453125 427.8359375 251.661132812 411.53125 251.661132812 c 0
 403.390625 251.661132812 395.045898438 251.606445312 386.499023438 251.495117188 c 0
 360.83203125 251.162109375 325.83203125 250.329101562 281.499023438 248.99609375 c 0
 237.166015625 247.663085938 204.999023438 246.99609375 184.999023438 246.99609375 c 0
 169.666015625 246.99609375 159.166015625 251.163085938 153.499023438 259.49609375 c 0
 149.645507812 265.162109375 147.71875 271.676757812 147.71875 279.0390625 c 0
 147.71875 282.50390625 148.145507812 286.15625 148.999023438 289.99609375 c 0
 150.999023438 301.329101562 156.999023438 310.829101562 166.999023438 318.49609375 c 0
 176.999023438 326.163085938 189.999023438 329.99609375 205.999023438 329.99609375 c 0
EndSplineSet
Validated: 1
EndChar

StartChar: greater
Encoding: 62 62 41
Width: 700
GlyphClass: 2
Flags: W
LayerCount: 2
Fore
SplineSet
156 5 m 0
 145.333007812 -1 135.499023438 -4.333984375 126.499023438 -5.0009765625 c 0
 117.499023438 -5.66796875 110.33203125 -4.16796875 104.999023438 -0.5009765625 c 0
 99.666015625 3.166015625 95.4990234375 7.666015625 92.4990234375 12.9990234375 c 0
 89.4990234375 18.33203125 87.33203125 23.9990234375 85.9990234375 29.9990234375 c 0
 85.40625 32.517578125 85.1103515625 35.044921875 85.1103515625 37.580078125 c 0
 85.1103515625 46.4521484375 88.7392578125 55.4248046875 95.998046875 64.4990234375 c 0
 105.331054688 76.166015625 122.6640625 89.9990234375 147.997070312 105.999023438 c 0
 188.6640625 131.999023438 251.1640625 174.666015625 335.497070312 233.999023438 c 0
 419.830078125 293.33203125 473.663085938 330.999023438 496.99609375 346.999023438 c 1
 477.663085938 366.999023438 456.330078125 391.166015625 432.997070312 419.499023438 c 0
 409.6640625 447.83203125 389.331054688 473.499023438 371.998046875 496.499023438 c 0
 354.665039062 519.499023438 335.83203125 542.999023438 315.499023438 566.999023438 c 0
 295.166015625 590.999023438 276.666015625 609.999023438 259.999023438 623.999023438 c 0
 243.33203125 637.999023438 232.999023438 650.166015625 228.999023438 660.499023438 c 0
 227.586914062 664.145507812 226.881835938 667.85546875 226.881835938 671.625976562 c 0
 226.881835938 678.541015625 229.25390625 685.665039062 233.999023438 692.998046875 c 0
 238.666015625 699.665039062 244.499023438 705.33203125 251.499023438 709.999023438 c 0
 258.499023438 714.666015625 267.499023438 717.666015625 278.499023438 718.999023438 c 0
 280.698242188 719.265625 282.9453125 719.3984375 285.23828125 719.3984375 c 0
 294.412109375 719.3984375 304.33203125 717.265625 314.999023438 712.999023438 c 0
 328.999023438 707.666015625 345.499023438 696.166015625 364.499023438 678.499023438 c 0
 383.499023438 660.83203125 403.166015625 639.33203125 423.499023438 613.999023438 c 0
 443.83203125 588.666015625 463.999023438 562.999023438 483.999023438 536.999023438 c 0
 503.999023438 510.999023438 525.166015625 484.33203125 547.499023438 456.999023438 c 0
 569.83203125 429.666015625 589.665039062 407.999023438 606.998046875 391.999023438 c 0
 612.998046875 385.999023438 615.831054688 376.999023438 615.498046875 364.999023438 c 0
 615.165039062 352.999023438 612.33203125 341.499023438 606.999023438 330.499023438 c 0
 601.666015625 319.499023438 594.666015625 311.666015625 585.999023438 306.999023438 c 0
 544.666015625 278.999023438 495.166015625 243.83203125 437.499023438 201.499023438 c 0
 379.83203125 159.166015625 327.33203125 120.833007812 279.999023438 86.5 c 0
 232.666015625 52.1669921875 191.333007812 25 156 5 c 0
EndSplineSet
Validated: 1
EndChar

StartChar: question
Encoding: 63 63 42
Width: 700
GlyphClass: 2
Flags: HMW
HStem: -14.0039 153.998 637.999 84.001<375.667 388.331>
VStem: 150.001 151 225.999 95.001
LayerCount: 2
Fore
SplineSet
321 262 m 0xd0
 314.333007812 244.666992188 305.499023438 231.330078125 294.499023438 221.997070312 c 0
 287.166015625 215.775390625 278.721679688 212.6640625 269.166992188 212.6640625 c 0
 264.388671875 212.6640625 259.333007812 213.442382812 253.999023438 214.998046875 c 0
 237.999023438 219.665039062 228.666015625 228.33203125 225.999023438 240.999023438 c 0
 225.4375 243.666015625 225.157226562 246.524414062 225.157226562 249.576171875 c 0
 225.157226562 261.016601562 229.104492188 275.157226562 236.999023438 291.999023438 c 0
 245.666015625 309.999023438 255.999023438 326.999023438 267.999023438 342.999023438 c 0
 279.999023438 358.999023438 292.166015625 372.666015625 304.499023438 383.999023438 c 0
 316.83203125 395.33203125 329.665039062 406.165039062 342.998046875 416.498046875 c 0
 356.331054688 426.831054688 368.998046875 436.498046875 380.998046875 445.498046875 c 0
 392.998046875 454.498046875 404.165039062 463.665039062 414.498046875 472.998046875 c 0
 424.831054688 482.331054688 433.6640625 492.498046875 440.997070312 503.498046875 c 0
 448.330078125 514.498046875 453.330078125 526.331054688 455.997070312 538.998046875 c 0
 458.779296875 551.055664062 460.170898438 561.96484375 460.170898438 571.724609375 c 0
 460.170898438 590.0234375 455.279296875 604.28125 445.497070312 614.499023438 c 0
 430.497070312 630.166015625 405.6640625 637.999023438 370.997070312 637.999023438 c 0
 362.330078125 637.999023438 352.997070312 635.83203125 342.997070312 631.499023438 c 0
 332.997070312 627.166015625 324.330078125 622.333007812 316.997070312 617 c 0
 309.6640625 611.666992188 301.1640625 604.5 291.497070312 595.5 c 0
 281.830078125 586.5 274.330078125 578.833007812 268.997070312 572.5 c 0
 263.6640625 566.166992188 257.331054688 558.666992188 249.998046875 550 c 0
 242.665039062 541.333007812 235.83203125 534.5 229.499023438 529.5 c 0
 223.166015625 524.5 217.333007812 521.833007812 212 521.5 c 0
 206.666992188 521.166992188 201.833984375 521.5 197.500976562 522.5 c 0
 193.16796875 523.5 187.66796875 525.666992188 181.000976562 529 c 0
 171.66796875 535 167.16796875 543.666992188 167.500976562 555 c 0
 167.833984375 566.333007812 174.000976562 581 186.000976562 599 c 0
 196.000976562 613 207.333984375 626.5 220.000976562 639.5 c 0
 232.66796875 652.5 247.66796875 665.5 265.000976562 678.5 c 0
 282.333984375 691.5 301.666992188 702 323 710 c 0
 344.333007812 718 365.333007812 722 386 722 c 0
 453.333007812 722 500.5 705.333007812 527.5 672 c 0
 544.720703125 650.740234375 553.330078125 622.701171875 553.330078125 587.881835938 c 0
 553.330078125 568.107421875 550.553710938 546.147460938 545 522 c 0
 541 504 534.5 487.666992188 525.5 473 c 0
 516.5 458.333007812 506.5 445.666015625 495.5 434.999023438 c 0
 484.5 424.33203125 472.5 414.33203125 459.5 404.999023438 c 0
 446.5 395.666015625 433.333007812 386.333007812 420 377 c 0
 406.666992188 367.666992188 393.833984375 358 381.500976562 348 c 0
 369.16796875 338 357.66796875 325.5 347.000976562 310.5 c 0
 336.333984375 295.5 327.666992188 279.333007812 321 262 c 0xd0
209.999023438 -14.00390625 m 0
 206.62890625 -14.3779296875 203.390625 -14.5654296875 200.284179688 -14.5654296875 c 0
 181.263671875 -14.5654296875 167.170898438 -7.5478515625 158.001953125 6.4921875 c 0
 150.890625 17.380859375 147.334960938 29.5302734375 147.334960938 42.9375 c 0
 147.334960938 49.6416015625 148.223632812 56.6591796875 150.000976562 63.9921875 c 0
 154.66796875 84.6591796875 166.66796875 102.326171875 186.000976562 116.993164062 c 0
 205.333984375 131.66015625 225.000976562 139.327148438 245.000976562 139.994140625 c 0
 245.979492188 140.0234375 246.946289062 140.0390625 247.901367188 140.0390625 c 0
 268.426757812 140.0390625 283.626953125 133.190429688 293.500976562 119.495117188 c 0
 300.31640625 110.041015625 303.724609375 98.919921875 303.724609375 86.1298828125 c 0
 303.724609375 79.529296875 302.81640625 72.484375 301.000976562 64.9951171875 c 0xe0
 296.333984375 43.662109375 285.666992188 25.8291015625 269 11.49609375 c 0
 252.333007812 -2.8369140625 232.666015625 -11.3369140625 209.999023438 -14.00390625 c 0
EndSplineSet
Validated: 1
EndChar

StartChar: at
Encoding: 64 64 43
Width: 700
GlyphClass: 2
Flags: HMW
HStem: -129 84.9961<229.673 278.004> 102.002 77.9951<430.673 473.671> 118.002 79.9941<311.671 320.006> 612.994 90.0078<443.337 447.006>
VStem: 79.5039 85.501 396.005 81 546.506 75.499
LayerCount: 2
Fore
SplineSet
477 5 m 0xde
 471.666992188 -4.3330078125 466.340820312 -12.5009765625 461.0078125 -19.5009765625 c 0
 455.674804688 -26.5009765625 449.0078125 -35.16796875 441.0078125 -45.5009765625 c 0
 433.0078125 -55.833984375 424.674804688 -64.6669921875 416.0078125 -72 c 0
 407.340820312 -79.3330078125 397.0078125 -86.8330078125 385.0078125 -94.5 c 0
 373.0078125 -102.166992188 360.340820312 -108.5 347.0078125 -113.5 c 0
 333.674804688 -118.5 318.174804688 -122.5 300.5078125 -125.5 c 0
 286.053710938 -127.954101562 271.264648438 -129.181640625 256.140625 -129.181640625 c 0
 252.779296875 -129.181640625 249.401367188 -129.12109375 246.006835938 -129 c 0
 213.33984375 -129 184.672851562 -120.333007812 160.005859375 -103 c 0
 135.338867188 -85.6669921875 116.171875 -61.5 102.504882812 -30.5 c 0
 88.837890625 0.5 81.1708984375 38.1669921875 79.50390625 82.5 c 0
 79.30078125 87.9072265625 79.19921875 93.3759765625 79.19921875 98.9072265625 c 0
 79.19921875 138.725585938 84.4677734375 181.756835938 95.00390625 228 c 0
 109.00390625 286.666992188 126.00390625 341.333984375 146.00390625 392.000976562 c 0
 166.00390625 442.66796875 188.170898438 486.834960938 212.50390625 524.501953125 c 0
 236.836914062 562.168945312 262.50390625 594.501953125 289.50390625 621.501953125 c 0
 316.50390625 648.501953125 344.336914062 668.834960938 373.00390625 682.501953125 c 0
 401.670898438 696.168945312 429.670898438 703.001953125 457.00390625 703.001953125 c 0
 477.670898438 703.001953125 496.170898438 701.168945312 512.50390625 697.501953125 c 0
 528.836914062 693.834960938 544.00390625 687.834960938 558.00390625 679.501953125 c 0
 572.00390625 671.168945312 583.336914062 660.001953125 592.00390625 646.001953125 c 0
 600.670898438 632.001953125 607.837890625 614.501953125 613.504882812 593.501953125 c 0
 619.171875 572.501953125 622.004882812 548.001953125 622.004882812 520.001953125 c 0
 622.004882812 492.001953125 619.337890625 459.001953125 614.004882812 421.001953125 c 0
 608.671875 383.001953125 600.671875 340.334960938 590.004882812 293.001953125 c 0
 584.671875 269.001953125 577.838867188 246.168945312 569.505859375 224.501953125 c 0
 561.172851562 202.834960938 551.33984375 182.501953125 540.006835938 163.501953125 c 0
 528.673828125 144.501953125 515.506835938 129.501953125 500.506835938 118.501953125 c 0
 485.506835938 107.501953125 469.673828125 102.001953125 453.006835938 102.001953125 c 0xde
 414.638671875 102.001953125 395.455078125 122.662109375 395.455078125 163.981445312 c 0
 395.455078125 170.764648438 395.971679688 178.104492188 397.005859375 186.001953125 c 1
 372.338867188 140.668945312 340.005859375 118.001953125 300.005859375 118.001953125 c 0
 263.338867188 118.001953125 237.671875 130.334960938 223.004882812 155.001953125 c 0
 214.938476562 168.568359375 210.904296875 186.068359375 210.904296875 207.5 c 0
 210.904296875 225.03515625 213.604492188 245.202148438 219.004882812 268.002929688 c 0
 225.004882812 293.3359375 233.004882812 316.668945312 243.004882812 338.001953125 c 0
 253.004882812 359.334960938 264.171875 377.501953125 276.504882812 392.501953125 c 0
 288.837890625 407.501953125 302.337890625 420.168945312 317.004882812 430.501953125 c 0
 331.671875 440.834960938 346.504882812 448.16796875 361.504882812 452.500976562 c 0
 374.50390625 456.255859375 387.502929688 458.133789062 400.501953125 458.133789062 c 0
 406.504882812 458 l 0
 421.504882812 457.333007812 435.671875 453.666015625 449.004882812 446.999023438 c 0
 462.337890625 440.999023438 472.004882812 432.999023438 478.004882812 422.999023438 c 0
 484.004882812 412.999023438 484.004882812 403.999023438 478.004882812 395.999023438 c 0
 474.671875 390.666015625 471.004882812 386.333007812 467.004882812 383 c 0
 463.004882812 379.666992188 458.671875 377.333984375 454.004882812 376.000976562 c 0
 449.337890625 374.66796875 445.170898438 373.66796875 441.50390625 373.000976562 c 0
 437.836914062 372.333984375 433.169921875 372.500976562 427.502929688 373.500976562 c 0
 421.8359375 374.500976562 417.502929688 375.333984375 414.502929688 376.000976562 c 0
 411.502929688 376.66796875 407.3359375 378.000976562 402.002929688 380.000976562 c 0
 394.669921875 381.333984375 386.836914062 381.666992188 378.50390625 381 c 0
 370.170898438 380.333007812 361.837890625 377.5 353.504882812 372.5 c 0
 345.171875 367.5 337.171875 361.166992188 329.504882812 353.5 c 0
 321.837890625 345.833007812 314.837890625 335.666015625 308.504882812 322.999023438 c 0
 302.171875 310.33203125 297.004882812 295.999023438 293.004882812 279.999023438 c 0
 291.004882812 271.33203125 289.671875 263.165039062 289.004882812 255.498046875 c 0
 288.337890625 247.831054688 288.170898438 239.1640625 288.50390625 229.497070312 c 0
 288.836914062 219.830078125 291.336914062 212.163085938 296.00390625 206.49609375 c 0
 300.670898438 200.829101562 307.337890625 197.99609375 316.004882812 197.99609375 c 0xbe
 335.337890625 197.99609375 351.004882812 206.163085938 363.004882812 222.49609375 c 0
 375.004882812 238.829101562 386.004882812 265.99609375 396.004882812 303.99609375 c 0
 398.671875 314.663085938 408.671875 323.330078125 426.004882812 329.997070312 c 0
 436.8125 334.2421875 446.278320312 336.365234375 454.404296875 336.365234375 c 0
 460.314453125 336.365234375 465.514648438 335.2421875 470.005859375 332.997070312 c 0
 477.338867188 329.6640625 479.671875 322.997070312 477.004882812 312.997070312 c 0
 465.004882812 277.6640625 457.671875 250.1640625 455.004882812 230.497070312 c 0
 453.671875 220.6640625 453.004882812 212.4140625 453.004882812 205.747070312 c 0
 453.004882812 199.080078125 453.671875 193.997070312 455.004882812 190.497070312 c 0
 457.671875 183.497070312 463.004882812 179.997070312 471.004882812 179.997070312 c 0
 476.337890625 179.997070312 481.837890625 184.330078125 487.504882812 192.997070312 c 0
 493.171875 201.6640625 498.338867188 212.997070312 503.005859375 226.997070312 c 0
 507.672851562 240.997070312 511.505859375 253.330078125 514.505859375 263.997070312 c 0
 517.505859375 274.6640625 520.005859375 284.997070312 522.005859375 294.997070312 c 0
 530.005859375 328.997070312 536.005859375 360.330078125 540.005859375 388.997070312 c 0
 544.005859375 417.6640625 546.172851562 442.1640625 546.505859375 462.497070312 c 0
 546.5390625 464.529296875 546.555664062 466.541015625 546.555664062 468.533203125 c 0
 546.555664062 486.474609375 545.206054688 502.794921875 542.505859375 517.49609375 c 0
 539.505859375 533.829101562 536.172851562 547.162109375 532.505859375 557.495117188 c 0
 528.838867188 567.828125 523.505859375 576.661132812 516.505859375 583.994140625 c 0
 509.505859375 591.327148438 503.172851562 596.827148438 497.505859375 600.494140625 c 0
 491.838867188 604.161132812 485.005859375 606.994140625 477.005859375 608.994140625 c 0
 469.005859375 610.994140625 463.005859375 612.161132812 459.005859375 612.494140625 c 0
 455.005859375 612.827148438 450.005859375 612.994140625 444.005859375 612.994140625 c 0
 419.338867188 612.994140625 394.171875 604.661132812 368.504882812 587.994140625 c 0
 342.837890625 571.327148438 318.504882812 548.16015625 295.504882812 518.493164062 c 0
 272.504882812 488.826171875 251.171875 451.993164062 231.504882812 407.993164062 c 0
 211.837890625 363.993164062 196.004882812 315.993164062 184.004882812 263.993164062 c 0
 173.337890625 218.66015625 167.004882812 177.827148438 165.004882812 141.494140625 c 0
 164.458984375 131.5859375 164.186523438 122.198242188 164.186523438 113.330078125 c 0
 164.186523438 89.6826171875 166.125976562 69.7373046875 170.004882812 53.4951171875 c 0
 175.337890625 31.162109375 183.170898438 12.3291015625 193.50390625 -3.00390625 c 0
 203.836914062 -18.3369140625 215.336914062 -29.00390625 228.00390625 -35.00390625 c 0
 240.670898438 -41.00390625 254.670898438 -44.00390625 270.00390625 -44.00390625 c 0
 286.00390625 -44.00390625 301.170898438 -42.3369140625 315.50390625 -39.00390625 c 0
 329.836914062 -35.6708984375 342.00390625 -31.6708984375 352.00390625 -27.00390625 c 0
 362.00390625 -22.3369140625 371.836914062 -16.00390625 381.50390625 -8.00390625 c 0
 391.170898438 -0.00390625 399.170898438 7.3291015625 405.50390625 13.99609375 c 0
 411.836914062 20.6630859375 419.00390625 29.330078125 427.00390625 39.9970703125 c 0
 430.336914062 44.6640625 433.169921875 48.3310546875 435.502929688 50.998046875 c 0
 437.8359375 53.6650390625 440.668945312 56.83203125 444.001953125 60.4990234375 c 0
 447.334960938 64.166015625 450.16796875 66.8330078125 452.500976562 68.5 c 0
 454.833984375 70.1669921875 457.500976562 71.6669921875 460.500976562 73 c 0
 463.500976562 74.3330078125 466.500976562 75 469.500976562 75 c 0
 472.500976562 75 475.333984375 74.3330078125 478.000976562 73 c 0
 482.66796875 71 486.16796875 68.5 488.500976562 65.5 c 0
 490.833984375 62.5 492.500976562 58.5 493.500976562 53.5 c 0
 494.500976562 48.5 493.66796875 41.8330078125 491.000976562 33.5 c 0
 488.333984375 25.1669921875 483.666992188 15.6669921875 477 5 c 0xde
EndSplineSet
Validated: 1
EndChar

StartChar: A
Encoding: 65 65 44
Width: 700
GlyphClass: 2
Flags: HMW
HStem: 251 81.0059
VStem: 501 91.501
LayerCount: 2
Fore
SplineSet
182 41 m 2
 171.333007812 20.3330078125 159.333007812 6.671875 146 0.0048828125 c 0
 138.592773438 -3.69921875 131.69921875 -5.55078125 125.3203125 -5.55078125 c 0
 120.217773438 -5.55078125 115.444335938 -4.3662109375 111 -1.99609375 c 0
 100.806640625 3.6279296875 95.708984375 13.330078125 95.708984375 27.109375 c 0
 95.708984375 39.4638671875 99.806640625 55.0947265625 108 74.00390625 c 0
 116.666992188 95.3369140625 146.666992188 147.336914062 198 230.00390625 c 1
 190.741210938 236.225585938 187.112304688 243.456054688 187.112304688 251.694335938 c 0
 187.112304688 254.048828125 187.408203125 256.485351562 188.000976562 259.00390625 c 0
 189.333984375 268.336914062 195.333984375 277.169921875 206.000976562 285.502929688 c 0
 216.66796875 293.8359375 229.000976562 300.3359375 243.000976562 305.002929688 c 1
 363.000976562 495.669921875 451.000976562 623.002929688 507.000976562 687.002929688 c 0
 519.000976562 700.3359375 529.333984375 710.002929688 538.000976562 716.002929688 c 0
 546.66796875 722.002929688 555.334960938 725.002929688 564.001953125 725.002929688 c 0
 566.18359375 725.245117188 568.3046875 725.366210938 570.365234375 725.366210938 c 0
 579.637695312 725.366210938 587.68359375 722.912109375 594.501953125 718.002929688 c 0
 601.685546875 712.830078125 605.27734375 704.4375 605.27734375 692.823242188 c 0
 605.27734375 690.965820312 605.185546875 689.025390625 605.001953125 687.002929688 c 0
 598.334960938 604.3359375 593.001953125 487.168945312 589.001953125 335.501953125 c 0
 587.501953125 278.625 586.751953125 230.819335938 586.751953125 192.083984375 c 0
 586.751953125 127.528320312 588.834960938 88.16796875 593.001953125 74.0009765625 c 0
 594.588867188 67.9697265625 595.3828125 62.203125 595.3828125 56.701171875 c 0
 595.3828125 50.6474609375 594.421875 44.9140625 592.500976562 39.5009765625 c 0
 588.833984375 29.16796875 583.666992188 20.5009765625 577 13.5009765625 c 0
 570.333007812 6.5009765625 563 1.333984375 555 -1.9990234375 c 0
 549.208984375 -4.4365234375 543.663085938 -5.65625 538.359375 -5.65625 c 0
 532.0625 -5.65625 526.109375 -3.9365234375 520.5 -0.4990234375 c 0
 510.166992188 5.833984375 503.666992188 19.6669921875 501 41 c 0
 499.93359375 49.2666015625 499.399414062 65.4267578125 499.399414062 89.4794921875 c 0
 499.399414062 125.559570312 500.599609375 179.399414062 503 251 c 1
 423 247.666992188 350.666992188 240.666992188 286 230 c 1
 182 41 l 2
518 602.005859375 m 1
 480.666992188 557.338867188 420 462.672851562 336 318.005859375 c 1
 400.666992188 326.005859375 457.666992188 330.672851562 507 332.005859375 c 1
 518 602.005859375 l 1
EndSplineSet
Validated: 1
EndChar

StartChar: B
Encoding: 66 66 45
Width: 700
GlyphClass: 2
Flags: HMW
HStem: -22.9961 21G<135.336 141.669> 297.005 72<324.003 328.002> 630.005 78.998<408 422.336>
LayerCount: 2
Fore
SplineSet
254 -14 m 0
 243.333007812 -14.6669921875 231.502929688 -15.662109375 218.502929688 -16.9951171875 c 0
 205.502929688 -18.328125 194.8359375 -19.328125 186.502929688 -19.9951171875 c 0
 178.169921875 -20.662109375 169.669921875 -21.3291015625 161.002929688 -21.99609375 c 0
 152.3359375 -22.6630859375 144.8359375 -22.99609375 138.502929688 -22.99609375 c 0
 132.169921875 -22.99609375 126.669921875 -22.3291015625 122.002929688 -20.99609375 c 2
 118.002929688 -20.99609375 l 2
 105.3359375 -20.99609375 96.1689453125 -16.49609375 90.501953125 -7.49609375 c 0
 87.39453125 -2.560546875 85.8408203125 3.427734375 85.8408203125 10.4677734375 c 0
 85.8408203125 16.265625 86.89453125 22.7783203125 89.001953125 30.00390625 c 0
 97.6689453125 58.00390625 110.668945312 111.336914062 128.001953125 190.00390625 c 0
 145.334960938 268.670898438 162.334960938 349.670898438 179.001953125 433.00390625 c 0
 188.334960938 477.670898438 194.66796875 507.670898438 198.000976562 523.00390625 c 0
 201.333984375 538.336914062 206.500976562 559.00390625 213.500976562 585.00390625 c 0
 220.500976562 611.00390625 225.333984375 629.00390625 228.000976562 639.00390625 c 0
 232.66796875 657.00390625 240.500976562 670.50390625 251.500976562 679.50390625 c 0
 262.500976562 688.50390625 274.333984375 693.00390625 287.000976562 693.00390625 c 2
 290.000976562 693.00390625 l 2
 300.66796875 696.336914062 311.834960938 699.169921875 323.501953125 701.502929688 c 0
 335.168945312 703.8359375 345.668945312 705.502929688 355.001953125 706.502929688 c 0
 364.334960938 707.502929688 374.16796875 708.169921875 384.500976562 708.502929688 c 0
 394.833984375 708.8359375 402.666992188 709.002929688 408 709.002929688 c 2
 426.5 709.002929688 l 1
 437 709.002929688 l 2
 479 709.002929688 514.5 700.669921875 543.5 684.002929688 c 0
 572.5 667.3359375 593 643.168945312 605 611.501953125 c 0
 611.75 593.689453125 615.125 574.2421875 615.125 553.16015625 c 0
 615.125 536.762695312 613.083007812 519.376953125 609 501.001953125 c 0
 600.333007812 462.334960938 584.333007812 429.16796875 561 401.500976562 c 0
 537.666992188 373.833984375 510 353.666992188 478 341 c 1
 497.333007812 333.666992188 515.5 322.833984375 532.5 308.500976562 c 0
 549.5 294.16796875 562.666992188 278.16796875 572 260.500976562 c 0
 578.876953125 247.483398438 582.315429688 235.098632812 582.315429688 223.34765625 c 0
 582.315429688 219.151367188 581.876953125 215.036132812 581 211.000976562 c 0
 575.666992188 185.66796875 564 160.500976562 546 135.500976562 c 0
 528 110.500976562 505.166992188 87.66796875 477.5 67.0009765625 c 0
 449.833007812 46.333984375 416.5 28.6669921875 377.5 14 c 0
 338.5 -0.6669921875 297.333007812 -10 254 -14 c 0
417.002929688 630.004882812 m 0
 383.669921875 630.004882812 350.001953125 625.671875 316.001953125 617.004882812 c 1
 312.668945312 604.337890625 307.3359375 584.004882812 300.002929688 556.004882812 c 0
 292.669921875 528.004882812 285.169921875 498.337890625 277.502929688 467.004882812 c 0
 269.8359375 435.671875 262.3359375 403.671875 255.002929688 371.004882812 c 1
 283.669921875 369.671875 311.002929688 369.004882812 337.002929688 369.004882812 c 0
 355.669921875 369.004882812 373.169921875 370.671875 389.502929688 374.004882812 c 0
 405.8359375 377.337890625 419.8359375 381.670898438 431.502929688 387.00390625 c 0
 443.169921875 392.336914062 454.002929688 398.836914062 464.002929688 406.50390625 c 0
 474.002929688 414.170898438 482.3359375 422.00390625 489.002929688 430.00390625 c 0
 495.669921875 438.00390625 501.502929688 446.836914062 506.502929688 456.50390625 c 0
 511.502929688 466.170898438 515.3359375 474.837890625 518.002929688 482.504882812 c 0
 520.669921875 490.171875 523.002929688 498.338867188 525.002929688 507.005859375 c 0
 527.2890625 516.91015625 528.431640625 526.379882812 528.431640625 535.4140625 c 0
 528.431640625 542.189453125 527.7890625 548.719726562 526.502929688 555.005859375 c 0
 523.502929688 569.672851562 518.169921875 581.505859375 510.502929688 590.505859375 c 0
 502.8359375 599.505859375 493.502929688 607.172851562 482.502929688 613.505859375 c 0
 471.502929688 619.838867188 460.502929688 624.171875 449.502929688 626.504882812 c 0
 438.502929688 628.837890625 427.669921875 630.004882812 417.002929688 630.004882812 c 0
328.001953125 297.004882812 m 1
 282.668945312 297.004882812 253 296.670898438 239 296.00390625 c 1
 217 188.670898438 201.666992188 112.337890625 193 67.0048828125 c 1
 199.666992188 67.0048828125 210.833984375 67.337890625 226.500976562 68.0048828125 c 0
 242.16796875 68.671875 254.334960938 69.0048828125 263.001953125 69.0048828125 c 0
 291.668945312 70.337890625 319.668945312 75.6708984375 347.001953125 85.00390625 c 0
 374.334960938 94.3369140625 397.334960938 105.50390625 416.001953125 118.50390625 c 0
 434.668945312 131.50390625 450.168945312 145.170898438 462.501953125 159.50390625 c 0
 474.834960938 173.836914062 482.66796875 187.00390625 486.000976562 199.00390625 c 0
 488.000976562 207.670898438 486.500976562 216.337890625 481.500976562 225.004882812 c 0
 476.500976562 233.671875 468.333984375 242.671875 457.000976562 252.004882812 c 0
 445.66796875 261.337890625 428.834960938 270.004882812 406.501953125 278.004882812 c 0
 384.168945312 286.004882812 358.001953125 292.337890625 328.001953125 297.004882812 c 1
EndSplineSet
Validated: 1
EndChar

StartChar: C
Encoding: 67 67 46
Width: 700
GlyphClass: 2
Flags: HMW
HStem: -31.002 90.0029<201.333 255.999> 632.001 80.9961<486.333 488.333>
VStem: 525.999 77
LayerCount: 2
Fore
SplineSet
482 64 m 0
 416.01953125 0.607421875 329.954101562 -31.0908203125 223.803710938 -31.0908203125 c 0
 220.553710938 -31.0908203125 217.286132812 -31.0615234375 213.999023438 -31.001953125 c 0
 188.666015625 -31.001953125 165.833007812 -26.3349609375 145.5 -17.001953125 c 0
 125.166992188 -7.6689453125 108.666992188 4.6640625 96 19.9970703125 c 0
 83.3330078125 35.330078125 73.3330078125 53.1630859375 66 73.49609375 c 0
 58.6669921875 93.8291015625 54.6669921875 115.49609375 54 138.49609375 c 0
 53.93359375 140.796875 53.900390625 143.099609375 53.900390625 145.403320312 c 0
 53.900390625 166.1328125 56.6005859375 186.997070312 62 207.99609375 c 0
 73.3330078125 256.663085938 88.8330078125 303.663085938 108.5 348.99609375 c 0
 128.166992188 394.329101562 150.166992188 435.329101562 174.5 471.99609375 c 0
 198.833007812 508.663085938 225.166015625 542.330078125 253.499023438 572.997070312 c 0
 281.83203125 603.6640625 309.999023438 629.1640625 337.999023438 649.497070312 c 0
 365.999023438 669.830078125 393.83203125 685.497070312 421.499023438 696.497070312 c 0
 449.166015625 707.497070312 474.666015625 712.997070312 497.999023438 712.997070312 c 0
 520.666015625 712.997070312 540.999023438 710.330078125 558.999023438 704.997070312 c 1
 563.666015625 714.997070312 570.166015625 723.1640625 578.499023438 729.497070312 c 0
 586.83203125 735.830078125 595.665039062 739.330078125 604.998046875 739.997070312 c 0
 615.665039062 741.997070312 625.33203125 739.497070312 633.999023438 732.497070312 c 0
 642.666015625 725.497070312 646.999023438 715.330078125 646.999023438 701.997070312 c 0
 646.999023438 691.997070312 646.33203125 682.1640625 644.999023438 672.497070312 c 0
 643.666015625 662.830078125 642.166015625 653.330078125 640.499023438 643.997070312 c 0
 638.83203125 634.6640625 637.33203125 626.997070312 635.999023438 620.997070312 c 0
 634.666015625 614.997070312 632.999023438 607.997070312 630.999023438 599.997070312 c 0
 628.999023438 591.997070312 627.666015625 586.997070312 626.999023438 584.997070312 c 0
 623.666015625 570.997070312 615.666015625 556.830078125 602.999023438 542.497070312 c 0
 590.33203125 528.1640625 578.665039062 520.331054688 567.998046875 518.998046875 c 0
 565.67578125 518.611328125 563.403320312 518.416992188 561.180664062 518.416992188 c 0
 551.918945312 518.416992188 543.524414062 521.77734375 535.998046875 528.498046875 c 0
 528.739257812 534.979492188 525.110351562 543.174804688 525.110351562 553.083007812 c 0
 525.110351562 555.915039062 525.40625 558.88671875 525.999023438 561.998046875 c 0
 527.33203125 567.331054688 531.33203125 581.331054688 537.999023438 603.998046875 c 0
 537.33203125 604.665039062 534.83203125 606.83203125 530.499023438 610.499023438 c 0
 526.166015625 614.166015625 522.999023438 616.833007812 520.999023438 618.5 c 0
 518.999023438 620.166992188 515.83203125 622.333984375 511.499023438 625.000976562 c 0
 507.166015625 627.66796875 502.999023438 629.500976562 498.999023438 630.500976562 c 0
 494.999023438 631.500976562 490.666015625 632.000976562 485.999023438 632.000976562 c 0
 466.666015625 632.000976562 444.499023438 625.333984375 419.499023438 612.000976562 c 0
 394.499023438 598.66796875 368.999023438 579.66796875 342.999023438 555.000976562 c 0
 316.999023438 530.333984375 292.166015625 502.000976562 268.499023438 470.000976562 c 0
 244.83203125 438.000976562 223.33203125 401.833984375 203.999023438 361.500976562 c 0
 184.666015625 321.16796875 170.666015625 280.66796875 161.999023438 240.000976562 c 0
 157.958007812 222.22265625 155.9375 204.688476562 155.9375 187.399414062 c 0
 155.9375 176.163085938 156.791015625 165.030273438 158.498046875 154.000976562 c 0
 162.831054688 126.000976562 172.831054688 103.16796875 188.498046875 85.5009765625 c 0
 204.165039062 67.833984375 223.33203125 59.0009765625 245.999023438 59.0009765625 c 0
 265.999023438 59.0009765625 285.999023438 61.16796875 305.999023438 65.5009765625 c 0
 325.999023438 69.833984375 344.33203125 75.5009765625 360.999023438 82.5009765625 c 0
 377.666015625 89.5009765625 392.333007812 96.5009765625 405 103.500976562 c 0
 417.666992188 110.500976562 429.666992188 118.000976562 441 126.000976562 c 0
 450.333007812 132.000976562 458.333007812 136.66796875 465 140.000976562 c 0
 471.666992188 143.333984375 478.5 145.000976562 485.5 145.000976562 c 0
 492.5 145.000976562 498.333007812 142.66796875 503 138.000976562 c 0
 509.788085938 131.212890625 513.181640625 123.631835938 513.181640625 115.256835938 c 0
 513.181640625 100.600585938 502.788085938 83.515625 482 64 c 0
EndSplineSet
Validated: 1
EndChar

StartChar: D
Encoding: 68 68 47
Width: 700
GlyphClass: 2
Flags: HMW
HStem: -31 85.998<335.997 347.667> 694.001 20G<273.665 283.998>
LayerCount: 2
Fore
SplineSet
335 -31 m 0
 304.333007812 -31 274.49609375 -29.5 245.49609375 -26.5 c 0
 216.49609375 -23.5 193.663085938 -20 176.99609375 -16 c 0
 160.329101562 -12 145.829101562 -8.3330078125 133.49609375 -5 c 0
 121.163085938 -1.6669921875 113.99609375 0 111.99609375 0 c 0
 99.3291015625 0 90.162109375 4.5 84.4951171875 13.5 c 0
 81.3876953125 18.435546875 79.833984375 24.423828125 79.833984375 31.4638671875 c 0
 79.833984375 37.26171875 80.8876953125 43.7744140625 82.9951171875 51 c 0
 92.328125 83 105.995117188 139.833007812 123.995117188 221.5 c 0
 141.995117188 303.166992188 160.662109375 391.666992188 179.995117188 487 c 0
 187.995117188 524.333007812 193.328125 548.833007812 195.995117188 560.5 c 0
 198.662109375 572.166992188 203.329101562 590.333984375 209.99609375 615.000976562 c 0
 216.663085938 639.66796875 220.663085938 654.66796875 221.99609375 660.000976562 c 0
 226.663085938 678.000976562 234.330078125 691.500976562 244.997070312 700.500976562 c 0
 255.6640625 709.500976562 267.331054688 714.000976562 279.998046875 714.000976562 c 0
 287.998046875 714.000976562 297.998046875 713.333984375 309.998046875 712.000976562 c 0
 321.998046875 710.66796875 337.498046875 708.000976562 356.498046875 704.000976562 c 0
 375.498046875 700.000976562 394.498046875 694.500976562 413.498046875 687.500976562 c 0
 432.498046875 680.500976562 452.331054688 670.66796875 472.998046875 658.000976562 c 0
 493.665039062 645.333984375 512.665039062 630.666992188 529.998046875 614 c 0
 547.331054688 597.333007812 563.1640625 576.5 577.497070312 551.5 c 0
 591.830078125 526.5 602.830078125 499.166992188 610.497070312 469.5 c 0
 617.55078125 442.20703125 621.077148438 410.119140625 621.077148438 373.235351562 c 0
 621.077148438 370.026367188 621.05078125 366.78125 620.997070312 363.5 c 0
 620.330078125 322.5 614.330078125 278.333007812 602.997070312 231 c 0
 597.6640625 207.666992188 589.331054688 184 577.998046875 160 c 0
 566.665039062 136 552.33203125 112.5 534.999023438 89.5 c 0
 517.666015625 66.5 498.833007812 46 478.5 28 c 0
 458.166992188 10 435.5 -4.3330078125 410.5 -15 c 0
 385.5 -25.6669921875 360.333007812 -31 335 -31 c 0
238.99609375 348 m 0
 232.99609375 319.333007812 224.1640625 276.165039062 212.497070312 218.498046875 c 0
 200.830078125 160.831054688 192.330078125 117.331054688 186.997070312 87.998046875 c 1
 209.6640625 75.998046875 234.1640625 67.498046875 260.497070312 62.498046875 c 0
 286.830078125 57.498046875 317.997070312 54.998046875 353.997070312 54.998046875 c 0
 371.330078125 54.998046875 388.997070312 61.1650390625 406.997070312 73.498046875 c 0
 424.997070312 85.8310546875 441.330078125 101.831054688 455.997070312 121.498046875 c 0
 470.6640625 141.165039062 483.6640625 162.83203125 494.997070312 186.499023438 c 0
 506.330078125 210.166015625 514.663085938 233.333007812 519.99609375 256 c 0
 527.55859375 289.063476562 531.33984375 320.0625 531.33984375 348.99609375 c 0
 531.33984375 429.743164062 501.891601562 494.411132812 442.99609375 543 c 0
 414.329101562 566.333007812 370.99609375 590.333007812 312.99609375 615 c 1
 312.99609375 616 l 1
 311.99609375 616 l 1
 310.99609375 616 l 1
 309.99609375 617 l 1
 308.99609375 617 l 1
 307.99609375 618 l 1
 306.99609375 618 l 1
 305.99609375 618 l 1
 305.99609375 619 l 1
 304.99609375 619 l 1
 303.99609375 619 l 1
 302.99609375 620 l 1
 301.99609375 620 l 1
 300.99609375 620 l 1
 300.99609375 621 l 1
 278.99609375 534.333007812 258.329101562 443.333007812 238.99609375 348 c 0
EndSplineSet
Validated: 1
EndChar

StartChar: E
Encoding: 69 69 48
Width: 700
GlyphClass: 2
Flags: HMW
HStem: -17.498 87.4961 -6 90.4971 312.001 85.999<199.001 240.672> 332.001 80.999<513.335 545.337> 614.501 82.5
LayerCount: 2
Fore
SplineSet
448 -6 m 0x48
 446.05859375 -5.87890625 443.565429688 -5.818359375 440.51953125 -5.818359375 c 0
 426.83203125 -5.818359375 401.994140625 -7.0439453125 366.002929688 -9.498046875 c 0
 322.002929688 -12.498046875 274.002929688 -15.1650390625 222.002929688 -17.498046875 c 0
 194.001953125 -18.75390625 169.48046875 -19.3828125 148.438476562 -19.3828125 c 0
 130.404296875 -19.3828125 114.92578125 -18.9208984375 102.002929688 -17.998046875 c 0
 88.0029296875 -17.3310546875 75.669921875 -9.8310546875 65.0029296875 4.501953125 c 0
 56.0205078125 16.5712890625 51.529296875 30.8876953125 51.529296875 47.44921875 c 0
 51.529296875 50.5546875 51.6875 53.73828125 52.0029296875 57.001953125 c 0
 54.0029296875 74.3349609375 60.169921875 105.501953125 70.5029296875 150.501953125 c 0
 80.8359375 195.501953125 92.1689453125 243.334960938 104.501953125 294.001953125 c 0
 116.834960938 344.668945312 129.334960938 401.668945312 142.001953125 465.001953125 c 0
 150.668945312 505.001953125 156.501953125 531.501953125 159.501953125 544.501953125 c 0
 162.501953125 557.501953125 167.334960938 576.668945312 174.001953125 602.001953125 c 0
 180.668945312 627.334960938 185.001953125 643.001953125 187.001953125 649.001953125 c 0
 191.668945312 667.001953125 199.3359375 680.668945312 210.002929688 690.001953125 c 0
 220.669921875 699.334960938 232.336914062 704.001953125 245.00390625 704.001953125 c 0
 245.881835938 704.037109375 246.744140625 704.0546875 247.591796875 704.0546875 c 0
 262.849609375 704.0546875 273.319335938 698.370117188 279.00390625 687.001953125 c 1
 315.670898438 692.334960938 357.837890625 695.66796875 405.504882812 697.000976562 c 0
 429.337890625 697.66796875 451.754882812 698.000976562 472.754882812 698.000976562 c 0
 493.754882812 698.000976562 513.337890625 697.666992188 531.504882812 697.000976562 c 0
 567.837890625 695.66796875 596.337890625 693.66796875 617.004882812 691.000976562 c 0
 631.004882812 689.000976562 640.337890625 685.000976562 645.004882812 679.000976562 c 0
 649.671875 673.000976562 650.671875 664.66796875 648.004882812 654.000976562 c 0
 646.671875 648.000976562 644.838867188 642.333984375 642.505859375 637.000976562 c 0
 640.172851562 631.66796875 637.172851562 626.834960938 633.505859375 622.501953125 c 0
 629.838867188 618.168945312 625.005859375 614.668945312 619.005859375 612.001953125 c 0
 613.005859375 609.334960938 606.005859375 608.66796875 598.005859375 610.000976562 c 0
 555.76171875 613.439453125 512.974609375 615.159179688 469.645507812 615.159179688 c 0
 454.16796875 615.159179688 438.622070312 614.939453125 423.006835938 614.500976562 c 0
 363.673828125 612.833984375 312.006835938 608.666992188 268.006835938 602 c 1
 249.33984375 532.666992188 232.672851562 464.666992188 218.005859375 398 c 1xa8
 263.338867188 398 325.671875 400.5 405.004882812 405.5 c 0
 484.337890625 410.5 528.670898438 413 538.00390625 413 c 0
 552.670898438 413 562.170898438 409.666992188 566.50390625 403 c 0
 570.836914062 396.333007812 571.669921875 387 569.002929688 375 c 0
 562.484375 346.319335938 546.405273438 331.978515625 520.765625 331.978515625 c 0
 520.182617188 331.978515625 519.594726562 331.986328125 519.001953125 332.000976562 c 0x18
 507.668945312 332.000976562 459.168945312 328.66796875 373.501953125 322.000976562 c 0
 287.834960938 315.333984375 229.66796875 312.000976562 199.000976562 312.000976562 c 1
 195.66796875 297.333984375 191.334960938 278.166992188 186.001953125 254.5 c 0
 180.668945312 230.833007812 176.168945312 210.5 172.501953125 193.5 c 0
 168.834960938 176.5 165.16796875 159 161.500976562 141 c 0
 157.833984375 123 155.166992188 108.166992188 153.5 96.5 c 0
 151.833007812 84.8330078125 151.333007812 76.666015625 152 71.9990234375 c 1
 160.556640625 69.2763671875 180.513671875 67.9150390625 211.872070312 67.9150390625 c 0
 234.266601562 67.9150390625 262.4765625 68.609375 296.500976562 69.998046875 c 0xa8
 378.16796875 73.3310546875 431.000976562 77.6640625 455.000976562 82.9970703125 c 0
 464.333984375 84.330078125 472.166992188 84.830078125 478.5 84.4970703125 c 0
 484.833007812 84.1640625 490 82.8310546875 494 80.498046875 c 0
 498 78.1650390625 501 75.6650390625 503 72.998046875 c 0
 505 70.3310546875 506.333007812 66.8310546875 507 62.498046875 c 0
 507.666992188 58.1650390625 508 54.33203125 508 50.9990234375 c 0
 508 47.666015625 507.666992188 44.3330078125 507 41 c 0
 504.333007812 28.3330078125 497.833007812 17 487.5 7 c 0
 478.3828125 -1.8232421875 467.05859375 -6.2353515625 453.528320312 -6.2353515625 c 0
 451.724609375 -6.2353515625 449.881835938 -6.1572265625 448 -6 c 0x48
EndSplineSet
Validated: 1
EndChar

StartChar: F
Encoding: 70 70 49
Width: 700
GlyphClass: 2
Flags: HMW
HStem: 316 86.002 619.002 86.999
LayerCount: 2
Fore
SplineSet
144 24 m 0
 139.333007812 10 130.5 -1.166015625 117.5 -9.4990234375 c 0
 105.463867188 -17.21484375 93.2841796875 -21.072265625 80.9619140625 -21.072265625 c 0
 79.9755859375 -21.072265625 78.98828125 -21.0478515625 78 -20.998046875 c 0
 65.3330078125 -20.998046875 56.166015625 -16.498046875 50.4990234375 -7.498046875 c 0
 47.3916015625 -2.5625 45.837890625 3.42578125 45.837890625 10.4658203125 c 0
 45.837890625 16.263671875 46.8916015625 22.7763671875 48.9990234375 30.001953125 c 0
 57.666015625 59.3349609375 71.166015625 115.501953125 89.4990234375 198.501953125 c 0
 107.83203125 281.501953125 125.665039062 367.001953125 142.998046875 455.001953125 c 0
 152.331054688 499.668945312 158.831054688 529.668945312 162.498046875 545.001953125 c 0
 166.165039062 560.334960938 171.498046875 581.001953125 178.498046875 607.001953125 c 0
 185.498046875 633.001953125 190.331054688 650.668945312 192.998046875 660.001953125 c 0
 197.665039062 678.001953125 205.33203125 691.501953125 215.999023438 700.501953125 c 0
 226.666015625 709.501953125 238.333007812 714.001953125 251 714.001953125 c 0
 252.650390625 714.12890625 254.249023438 714.192382812 255.796875 714.192382812 c 0
 270.502929688 714.192382812 280.571289062 708.461914062 286 697.000976562 c 1
 348 701.66796875 410 704.66796875 472 706.000976562 c 0
 487.499023438 706.333984375 502.26953125 706.500976562 516.310546875 706.500976562 c 0
 558.436523438 706.500976562 593.999023438 705.000976562 623 702.000976562 c 0
 637 700.66796875 646.166992188 696.834960938 650.5 690.501953125 c 0
 654.833007812 684.168945312 656 675.3359375 654 664.002929688 c 0
 651.333007812 651.3359375 645.5 640.668945312 636.5 632.001953125 c 0
 627.5 623.334960938 615.333007812 619.001953125 600 619.001953125 c 0
 565.680664062 620.856445312 530.15234375 621.784179688 493.413085938 621.784179688 c 0
 424.528320312 621.784179688 351.390625 618.5234375 273.999023438 612.001953125 c 1
 271.33203125 600.668945312 266.665039062 582.501953125 259.998046875 557.501953125 c 0
 253.331054688 532.501953125 246.831054688 507.001953125 240.498046875 481.001953125 c 0
 234.165039062 455.001953125 227.998046875 428.668945312 221.998046875 402.001953125 c 1
 250.568359375 405.430664062 281.83203125 407.14453125 315.790039062 407.14453125 c 0
 321.451171875 407.14453125 327.1875 407.09765625 332.998046875 407.001953125 c 0
 373.665039062 406.334960938 409.998046875 404.501953125 441.998046875 401.501953125 c 0
 473.998046875 398.501953125 499.331054688 395.334960938 517.998046875 392.001953125 c 0
 531.998046875 389.334960938 541.165039062 385.001953125 545.498046875 379.001953125 c 0
 549.831054688 373.001953125 550.998046875 364.668945312 548.998046875 354.001953125 c 0
 547.665039062 348.001953125 545.83203125 342.501953125 543.499023438 337.501953125 c 0
 541.166015625 332.501953125 537.999023438 327.668945312 533.999023438 323.001953125 c 0
 529.999023438 318.334960938 525.166015625 314.834960938 519.499023438 312.501953125 c 0
 513.83203125 310.168945312 506.999023438 309.3359375 498.999023438 310.002929688 c 0
 480.999023438 313.3359375 455.33203125 316.168945312 421.999023438 318.501953125 c 0
 388.666015625 320.834960938 350.833007812 322.16796875 308.5 322.500976562 c 0
 305.680664062 322.5234375 302.892578125 322.534179688 300.13671875 322.534179688 c 0
 261.514648438 322.534179688 229.134765625 320.356445312 203 316 c 1
 167 139.333007812 147.333007812 42 144 24 c 0
EndSplineSet
Validated: 1
EndChar

StartChar: G
Encoding: 71 71 50
Width: 700
GlyphClass: 2
Flags: HMW
HStem: -30.9971 89.9971<203.333 254.333> 643.002 80.999<490.332 495.664>
LayerCount: 2
Fore
SplineSet
526 244 m 0
 521.333007812 230 513.666015625 213.669921875 502.999023438 195.002929688 c 0
 492.33203125 176.3359375 479.499023438 156.502929688 464.499023438 135.502929688 c 0
 449.499023438 114.502929688 432.33203125 94.169921875 412.999023438 74.5029296875 c 0
 393.666015625 54.8359375 373.666015625 37.0029296875 352.999023438 21.0029296875 c 0
 332.33203125 5.0029296875 309.83203125 -7.830078125 285.499023438 -17.4970703125 c 0
 262.736328125 -26.5400390625 240.994140625 -31.0615234375 220.2734375 -31.0615234375 c 0
 218.84375 -31.0615234375 217.418945312 -31.0400390625 215.999023438 -30.9970703125 c 0
 190.666015625 -30.9970703125 167.833007812 -26.330078125 147.5 -16.9970703125 c 0
 127.166992188 -7.6640625 110.666992188 4.6689453125 98 20.001953125 c 0
 85.3330078125 35.3349609375 75.3330078125 53.16796875 68 73.5009765625 c 0
 60.6669921875 93.833984375 56.6669921875 115.500976562 56 138.500976562 c 0
 55.92578125 141.057617188 55.888671875 143.616210938 55.888671875 146.177734375 c 0
 55.888671875 166.653320312 58.2587890625 187.26171875 62.9990234375 208.000976562 c 0
 74.33203125 257.333984375 90.1650390625 305.333984375 110.498046875 352.000976562 c 0
 130.831054688 398.66796875 152.998046875 440.66796875 176.998046875 478.000976562 c 0
 200.998046875 515.333984375 227.331054688 549.500976562 255.998046875 580.500976562 c 0
 284.665039062 611.500976562 313.165039062 637.500976562 341.498046875 658.500976562 c 0
 369.831054688 679.500976562 397.831054688 695.66796875 425.498046875 707.000976562 c 0
 453.165039062 718.333984375 478.665039062 724.000976562 501.998046875 724.000976562 c 0
 527.998046875 724.000976562 555.498046875 717.500976562 584.498046875 704.500976562 c 0
 613.498046875 691.500976562 631.331054688 680.333984375 637.998046875 671.000976562 c 0
 642.874023438 664.295898438 645.3125 656.685546875 645.3125 648.169921875 c 0
 645.3125 638.056640625 641.874023438 626.666992188 634.998046875 614.000976562 c 0
 630.998046875 605.333984375 623.831054688 599.000976562 613.498046875 595.000976562 c 0
 603.165039062 591.000976562 593.665039062 591.000976562 584.998046875 595.000976562 c 0
 581.665039062 596.333984375 574.165039062 601.333984375 562.498046875 610.000976562 c 0
 550.831054688 618.66796875 538.6640625 626.334960938 525.997070312 633.001953125 c 0
 513.330078125 639.668945312 501.330078125 643.001953125 489.997070312 643.001953125 c 0
 470.6640625 643.001953125 448.331054688 636.168945312 422.998046875 622.501953125 c 0
 397.665039062 608.834960938 371.998046875 589.16796875 345.998046875 563.500976562 c 0
 319.998046875 537.833984375 294.998046875 508.666992188 270.998046875 476 c 0
 246.998046875 443.333007812 225.331054688 406.333007812 205.998046875 365 c 0
 186.665039062 323.666992188 172.33203125 282 162.999023438 240 c 0
 158.958007812 222.221679688 156.9375 204.6875 156.9375 187.3984375 c 0
 156.9375 176.162109375 157.791015625 165.029296875 159.498046875 154 c 0
 163.831054688 126 173.831054688 103.166992188 189.498046875 85.5 c 0
 205.165039062 67.8330078125 224.33203125 59 246.999023438 59 c 0
 261.666015625 59 278.166015625 64.1669921875 296.499023438 74.5 c 0
 314.83203125 84.8330078125 332.165039062 98 348.498046875 114 c 0
 364.831054688 130 380.831054688 148 396.498046875 168 c 0
 412.165039062 188 425.83203125 207.333007812 437.499023438 226 c 0
 449.166015625 244.666992188 458.666015625 262 465.999023438 278 c 1
 426.666015625 276 387.666015625 272.333007812 348.999023438 267 c 0
 310.33203125 261.666992188 282.999023438 254.666992188 266.999023438 246 c 0
 261.314453125 243.158203125 256.079101562 241.736328125 251.291992188 241.736328125 c 0
 245.973632812 241.736328125 241.209960938 243.491210938 236.999023438 247 c 0
 228.999023438 253.666992188 225.666015625 262.666992188 226.999023438 274 c 0
 228.999023438 299.333007812 245.33203125 319 275.999023438 333 c 0
 295.999023438 342.333007812 335.499023438 349.5 394.499023438 354.5 c 0
 436.641601562 358.071289062 472.237304688 359.857421875 501.28515625 359.857421875 c 0
 512.904296875 359.857421875 523.475585938 359.571289062 532.999023438 359 c 0
 548.33203125 358.333007812 558.33203125 355.5 562.999023438 350.5 c 0
 567.666015625 345.5 569.666015625 337.666992188 568.999023438 327 c 0
 566.33203125 302.333007812 556.33203125 287 538.999023438 281 c 0
 538.33203125 279 536.33203125 273.666992188 532.999023438 265 c 0
 529.666015625 256.333007812 527.333007812 249.333007812 526 244 c 0
EndSplineSet
Validated: 1
EndChar

StartChar: H
Encoding: 72 72 51
Width: 700
GlyphClass: 2
Flags: HMW
HStem: 311.999 86.001<217.999 255.331>
LayerCount: 2
Fore
SplineSet
492 24 m 0
 487.333007812 10 478.66796875 -1.16796875 466.000976562 -9.5009765625 c 0
 454.272460938 -17.216796875 442.258789062 -21.07421875 429.959960938 -21.07421875 c 0
 428.975585938 -21.07421875 427.989257812 -21.0498046875 427.000976562 -21 c 0
 414.333984375 -21 405.166992188 -16.5 399.5 -7.5 c 0
 396.392578125 -2.564453125 394.838867188 3.423828125 394.838867188 10.4638671875 c 0
 394.838867188 16.26171875 395.892578125 22.7744140625 398 30 c 0
 425.333007812 122.666992188 452 226.666992188 478 342 c 1
 467.333007812 341.333007812 428.166015625 336.166015625 360.499023438 326.499023438 c 0
 292.83203125 316.83203125 245.33203125 311.999023438 217.999023438 311.999023438 c 0
 217.33203125 309.999023438 216.33203125 306.499023438 214.999023438 301.499023438 c 0
 213.666015625 296.499023438 212.666015625 292.999023438 211.999023438 290.999023438 c 0
 193.33203125 224.999023438 172.665039062 135.999023438 149.998046875 23.9990234375 c 0
 145.331054688 9.9990234375 136.498046875 -1.16796875 123.498046875 -9.5009765625 c 0
 111.461914062 -17.216796875 99.568359375 -21.07421875 87.8173828125 -21.07421875 c 0
 86.876953125 -21.07421875 85.9365234375 -21.0498046875 84.998046875 -21 c 0
 72.998046875 -21 63.8310546875 -16.5 57.498046875 -7.5 c 0
 54.060546875 -2.6142578125 52.3408203125 3.302734375 52.3408203125 10.251953125 c 0
 52.3408203125 16.1025390625 53.560546875 22.685546875 55.998046875 30 c 0
 58.6650390625 39.3330078125 62.6650390625 54.3330078125 67.998046875 75 c 0
 73.3310546875 95.6669921875 79.998046875 123.333984375 87.998046875 158.000976562 c 0
 95.998046875 192.66796875 103.331054688 224.000976562 109.998046875 252.000976562 c 0
 115.331054688 274.66796875 123.498046875 307.16796875 134.498046875 349.500976562 c 0
 145.498046875 391.833984375 153.331054688 423.166992188 157.998046875 443.5 c 2
 178.998046875 535 l 2
 184.998046875 565 188.998046875 584.166992188 190.998046875 592.5 c 0
 192.998046875 600.833007812 195.998046875 612.333007812 199.998046875 627 c 2
 208.998046875 660 l 2
 213.665039062 678 221.498046875 691.5 232.498046875 700.5 c 0
 243.498046875 709.5 255.331054688 714 267.998046875 714 c 0
 269.03515625 714.049804688 270.053710938 714.07421875 271.052734375 714.07421875 c 0
 283.53515625 714.07421875 293.016601562 710.216796875 299.498046875 702.500976562 c 0
 303.952148438 697.198242188 306.1796875 689.9375 306.1796875 680.719726562 c 0
 306.1796875 675.453125 305.452148438 669.546875 303.998046875 663.000976562 c 0
 302.665039062 656.333984375 298.498046875 642.000976562 291.498046875 620.000976562 c 0
 284.498046875 598.000976562 278.998046875 577.66796875 274.998046875 559.000976562 c 0
 270.998046875 541.66796875 265.165039062 515.16796875 257.498046875 479.500976562 c 0
 249.831054688 443.833984375 243.6640625 416.666992188 238.997070312 398 c 1
 271.6640625 398 305.6640625 400 340.997070312 404 c 0
 376.330078125 408 408.330078125 412 436.997070312 416 c 0
 465.6640625 420 485.6640625 422.666992188 496.997070312 424 c 1
 497.6640625 428.666992188 498.831054688 435.5 500.498046875 444.5 c 0
 502.165039062 453.5 503.665039062 460.333007812 504.998046875 465 c 0
 514.331054688 506.333007812 520.331054688 533.666015625 522.998046875 546.999023438 c 0
 525.665039062 560.33203125 530.665039062 580.999023438 537.998046875 608.999023438 c 0
 545.331054688 636.999023438 549.998046875 653.999023438 551.998046875 659.999023438 c 0
 556.665039062 677.999023438 564.33203125 691.499023438 574.999023438 700.499023438 c 0
 585.666015625 709.499023438 597.333007812 713.999023438 610 713.999023438 c 0
 611.037109375 714.048828125 612.055664062 714.073242188 613.0546875 714.073242188 c 0
 625.537109375 714.073242188 635.018554688 710.215820312 641.5 702.5 c 0
 645.954101562 697.197265625 648.181640625 689.936523438 648.181640625 680.71875 c 0
 648.181640625 675.452148438 647.454101562 669.545898438 646 663 c 0
 643.333007812 650.333007812 637 624.333007812 627 585 c 0
 617 545.666992188 608.5 511.166992188 601.5 481.5 c 0
 594.5 451.833007812 585 409 573 353 c 0
 563.666992188 306.333007812 549 245 529 169 c 0
 509 93 496.666992188 44.6669921875 492 24 c 0
EndSplineSet
Validated: 1
EndChar

StartChar: I
Encoding: 73 73 52
Width: 700
GlyphClass: 2
Flags: HMW
HStem: -13.998 80.001 -6.49902 77.999 612.001 89.001 625.002 82.999<230.328 256.995 248.662 256.995 248.662 372.994>
LayerCount: 2
Fore
SplineSet
463 -11 m 0x60
 447.666992188 -8.3330078125 421.821289062 -6.83203125 385.48828125 -6.4990234375 c 0x60
 378.225585938 -6.4326171875 370.983398438 -6.3994140625 363.760742188 -6.3994140625 c 0
 334.850585938 -6.3994140625 306.259765625 -6.9326171875 277.989257812 -7.9990234375 c 0
 242.65625 -9.33203125 205.323242188 -10.6650390625 165.990234375 -11.998046875 c 0
 126.657226562 -13.3310546875 99.32421875 -13.998046875 83.9912109375 -13.998046875 c 0
 67.9912109375 -13.998046875 56.82421875 -10.6650390625 50.4912109375 -3.998046875 c 0
 44.158203125 2.6689453125 42.3251953125 11.3359375 44.9921875 22.0029296875 c 0
 46.9921875 34.0029296875 52.6591796875 44.169921875 61.9921875 52.5029296875 c 0
 71.3251953125 60.8359375 83.9921875 65.3359375 99.9921875 66.0029296875 c 0
 126.659179688 67.3359375 172.659179688 69.0029296875 237.9921875 71.0029296875 c 1
 270.659179688 185.002929688 300.326171875 305.669921875 326.993164062 433.002929688 c 0
 331.66015625 457.002929688 336.493164062 479.669921875 341.493164062 501.002929688 c 0
 346.493164062 522.3359375 349.993164062 537.668945312 351.993164062 547.001953125 c 0
 353.993164062 556.334960938 357.826171875 570.834960938 363.493164062 590.501953125 c 0
 369.16015625 610.168945312 372.327148438 621.668945312 372.994140625 625.001953125 c 1
 344.994140625 625.66796875 319.744140625 626.001953125 297.244140625 626.001953125 c 0
 274.744140625 626.001953125 254.994140625 625.66796875 237.994140625 625.001953125 c 0
 222.661132812 625.001953125 211.828125 628.668945312 205.495117188 636.001953125 c 0
 199.162109375 643.334960938 196.995117188 652.66796875 198.995117188 664.000976562 c 0
 200.995117188 676.000976562 206.995117188 686.333984375 216.995117188 695.000976562 c 0
 226.995117188 703.66796875 240.328125 708.000976562 256.995117188 708.000976562 c 0x90
 309.220703125 709.556640625 357.594726562 710.334960938 402.116210938 710.334960938 c 0
 491.1484375 710.334960938 564.775390625 707.223632812 622.995117188 701.001953125 c 0
 645.690429688 698.732421875 657.038085938 688.495117188 657.038085938 670.291015625 c 0
 657.038085938 667.104492188 656.690429688 663.674804688 655.995117188 660.000976562 c 0
 654.662109375 654.000976562 652.495117188 648.16796875 649.495117188 642.500976562 c 0
 646.495117188 636.833984375 642.828125 631.333984375 638.495117188 626.000976562 c 0
 634.162109375 620.66796875 628.662109375 616.500976562 621.995117188 613.500976562 c 0
 615.328125 610.500976562 607.995117188 610.000976562 599.995117188 612.000976562 c 0
 582.662109375 615.333984375 538.329101562 619.000976562 466.99609375 623.000976562 c 1
 465.663085938 617.66796875 461.830078125 602.66796875 455.497070312 578.000976562 c 0
 449.1640625 553.333984375 444.1640625 533.666992188 440.497070312 519 c 0
 436.830078125 504.333007812 431.997070312 483.333007812 425.997070312 456 c 0
 419.997070312 428.666992188 413.997070312 401.666992188 407.997070312 375 c 0
 397.997070312 327.666992188 383.830078125 268.666992188 365.497070312 198 c 0
 347.1640625 127.333007812 336.331054688 85.3330078125 332.998046875 72 c 1
 360.331054688 72 391.331054688 71.8330078125 425.998046875 71.5 c 0
 460.665039062 71.1669921875 479.33203125 71 481.999023438 71 c 0
 496.666015625 71 505.999023438 67.5 509.999023438 60.5 c 0
 513.999023438 53.5 514.999023438 44.3330078125 512.999023438 33 c 0
 511.666015625 27 509.999023438 21.5 507.999023438 16.5 c 0
 505.999023438 11.5 502.999023438 6.5 498.999023438 1.5 c 0
 494.999023438 -3.5 489.83203125 -7.1669921875 483.499023438 -9.5 c 0
 477.166015625 -11.8330078125 470.333007812 -12.3330078125 463 -11 c 0x60
EndSplineSet
Validated: 1
EndChar

StartChar: J
Encoding: 74 74 53
Width: 700
GlyphClass: 2
Flags: HMW
HStem: -35.001 101.001<232.669 240.002> 625 82.999<215.336 241.002>
VStem: 59.0029 87.501 72.0029 77
LayerCount: 2
Fore
SplineSet
397 215 m 0xe0
 378.333007812 155 359.834960938 106.33203125 341.501953125 68.9990234375 c 0
 323.168945312 31.666015625 305.001953125 4.9990234375 287.001953125 -11.0009765625 c 0
 269.001953125 -27.0009765625 250.001953125 -35.0009765625 230.001953125 -35.0009765625 c 0
 208.668945312 -35.0009765625 189.001953125 -31.0009765625 171.001953125 -23.0009765625 c 0
 153.001953125 -15.0009765625 137.834960938 -4.333984375 125.501953125 8.9990234375 c 0
 113.168945312 22.33203125 102.3359375 36.83203125 93.0029296875 52.4990234375 c 0
 83.669921875 68.166015625 76.5029296875 83.8330078125 71.5029296875 99.5 c 0
 66.5029296875 115.166992188 63.0029296875 129.166992188 61.0029296875 141.5 c 0
 59.0029296875 153.833007812 58.3359375 163.666015625 59.0029296875 170.999023438 c 0xe0
 59.0029296875 176.999023438 60.3359375 184.166015625 63.0029296875 192.499023438 c 0
 65.669921875 200.83203125 68.669921875 208.665039062 72.0029296875 215.998046875 c 0
 75.3359375 223.331054688 80.5029296875 229.831054688 87.5029296875 235.498046875 c 0
 94.5029296875 241.165039062 103.002929688 244.665039062 113.002929688 245.998046875 c 0
 116.55859375 246.64453125 119.870117188 246.967773438 122.936523438 246.967773438 c 0
 132.516601562 246.967773438 139.705078125 243.811523438 144.502929688 237.499023438 c 0
 148.65234375 232.0390625 150.7265625 225.649414062 150.7265625 218.329101562 c 0
 150.7265625 214.4765625 150.15234375 210.3671875 149.002929688 205.999023438 c 0xd0
 148.950195312 205.706054688 146.454101562 191.61328125 146.454101562 176.352539062 c 0
 146.454101562 166.751953125 147.803710938 155.80078125 150.50390625 143.5 c 0
 153.50390625 129.833007812 158.170898438 117.333007812 164.50390625 106 c 0
 170.836914062 94.6669921875 180.669921875 85.1669921875 194.002929688 77.5 c 0
 207.3359375 69.8330078125 223.3359375 66 242.002929688 66 c 0
 264.002929688 66 290.3359375 124 321.002929688 240 c 0
 324.3359375 254.666992188 334.502929688 301.666992188 351.502929688 381 c 0
 368.502929688 460.333007812 387.002929688 541.333007812 407.002929688 624 c 1
 365.803710938 625.200195312 327.244140625 625.799804688 291.325195312 625.799804688 c 0
 267.377929688 625.799804688 244.603515625 625.533203125 223.002929688 625 c 0
 207.669921875 625 196.669921875 628.666992188 190.002929688 636 c 0
 183.3359375 643.333007812 181.3359375 652.666015625 184.002929688 663.999023438 c 0
 186.002929688 675.999023438 192.169921875 686.33203125 202.502929688 694.999023438 c 0
 212.8359375 703.666015625 225.668945312 707.999023438 241.001953125 707.999023438 c 0
 293.227539062 709.5546875 341.638671875 710.333007812 386.233398438 710.333007812 c 0
 475.415039062 710.333007812 549.336914062 707.221679688 608.001953125 701 c 0
 630.697265625 698.73046875 642.044921875 688.493164062 642.044921875 670.2890625 c 0
 642.044921875 667.102539062 641.697265625 663.672851562 641.001953125 659.999023438 c 0
 639.668945312 653.999023438 637.501953125 648.166015625 634.501953125 642.499023438 c 0
 631.501953125 636.83203125 627.668945312 631.33203125 623.001953125 625.999023438 c 0
 618.334960938 620.666015625 612.66796875 616.499023438 606.000976562 613.499023438 c 0
 599.333984375 610.499023438 592.333984375 609.999023438 585.000976562 611.999023438 c 0
 564.333984375 615.33203125 531.666992188 618.33203125 487 620.999023438 c 1
 482.333007812 601.666015625 476.166015625 572.333007812 468.499023438 533 c 0
 460.83203125 493.666992188 453.83203125 457.833984375 447.499023438 425.500976562 c 0
 441.166015625 393.16796875 433.333007812 357.16796875 424 317.500976562 c 0
 414.666992188 277.833984375 405.666992188 243.666992188 397 215 c 0xe0
EndSplineSet
Validated: 1
EndChar

StartChar: K
Encoding: 75 75 54
Width: 700
GlyphClass: 2
Flags: W
HStem: -21.0752 21G<98.4688 105.123 462.313 472.822> 694.072 20G<271.557 278.298>
LayerCount: 2
Fore
SplineSet
162 24 m 0
 157.333007812 10 148.5 -1.1689453125 135.5 -9.501953125 c 0
 123.463867188 -17.2177734375 111.284179688 -21.0751953125 98.9619140625 -21.0751953125 c 0
 97.9755859375 -21.0751953125 96.98828125 -21.05078125 96 -21.0009765625 c 0
 83.3330078125 -21.0009765625 74.166015625 -16.5009765625 68.4990234375 -7.5009765625 c 0
 65.3916015625 -2.5654296875 63.837890625 3.4228515625 63.837890625 10.462890625 c 0
 63.837890625 16.2607421875 64.8916015625 22.7734375 66.9990234375 29.9990234375 c 0
 75.666015625 59.33203125 89.3330078125 115.499023438 108 198.499023438 c 0
 126.666992188 281.499023438 144.666992188 366.999023438 162 454.999023438 c 0
 170.666992188 497.666015625 176.666992188 526.499023438 180 541.499023438 c 0
 183.333007812 556.499023438 188.833007812 578.166015625 196.5 606.499023438 c 0
 204.166992188 634.83203125 209 652.665039062 211 659.998046875 c 0
 215.666992188 677.998046875 223.333984375 691.498046875 234.000976562 700.498046875 c 0
 244.66796875 709.498046875 256.334960938 713.998046875 269.001953125 713.998046875 c 0
 270.0390625 714.047851562 271.057617188 714.072265625 272.056640625 714.072265625 c 0
 284.5390625 714.072265625 294.020507812 710.21484375 300.501953125 702.499023438 c 0
 304.956054688 697.196289062 307.18359375 689.935546875 307.18359375 680.717773438 c 0
 307.18359375 675.451171875 306.456054688 669.544921875 305.001953125 662.999023438 c 0
 301.668945312 646.999023438 293.001953125 611.999023438 279.001953125 557.999023438 c 0
 265.001953125 503.999023438 253.668945312 459.33203125 245.001953125 423.999023438 c 1
 273.001953125 447.33203125 315.001953125 482.665039062 371.001953125 529.998046875 c 0
 427.001953125 577.331054688 471.334960938 614.831054688 504.001953125 642.498046875 c 0
 536.668945312 670.165039062 557.668945312 687.33203125 567.001953125 693.999023438 c 0
 577.668945312 702.666015625 587.3359375 708.499023438 596.002929688 711.499023438 c 0
 604.669921875 714.499023438 611.836914062 715.166015625 617.50390625 713.499023438 c 0
 623.170898438 711.83203125 628.00390625 708.33203125 632.00390625 702.999023438 c 0
 635.544921875 697.490234375 637.315429688 691.576171875 637.315429688 685.254882812 c 0
 637.315429688 670.155273438 627.211914062 652.736328125 607.00390625 632.999023438 c 0
 595.00390625 620.999023438 553.836914062 584.499023438 483.50390625 523.499023438 c 0
 413.170898438 462.499023438 351.00390625 409.33203125 297.00390625 363.999023438 c 1
 312.336914062 339.999023438 339.336914062 302.499023438 378.00390625 251.499023438 c 0
 416.670898438 200.499023438 450.170898438 155.666015625 478.50390625 116.999023438 c 0
 496.276367188 92.744140625 523.108398438 56.1259765625 523.108398438 40.0419921875 c 0
 523.108398438 28.9599609375 520.573242188 18.9462890625 515.502929688 9.9990234375 c 0
 509.8359375 -0.0009765625 502.668945312 -7.66796875 494.001953125 -13.0009765625 c 0
 484.997070312 -18.5986328125 476.658203125 -21.3974609375 468.985351562 -21.3974609375 c 0
 455.641601562 -21.3974609375 444.313476562 -12.931640625 435.000976562 4 c 0
 430.333984375 12.6669921875 413.500976562 35.6669921875 384.500976562 73 c 0
 355.500976562 110.333007812 324.16796875 151.5 290.500976562 196.5 c 0
 256.833984375 241.5 232.666992188 277.333007812 218 304 c 1
 213 284 l 2
 211 272.666992188 194 186 162 24 c 0
EndSplineSet
Validated: 1
EndChar

StartChar: L
Encoding: 76 76 55
Width: 700
GlyphClass: 2
Flags: HMW
HStem: -9.00488 81.0029
LayerCount: 2
Fore
SplineSet
534 10 m 0
 490 1.3330078125 424.672851562 -5.0048828125 338.005859375 -9.0048828125 c 0
 251.338867188 -13.0048828125 188.005859375 -15.0048828125 148.005859375 -15.0048828125 c 0
 135.338867188 -15.0048828125 126.171875 -10.5048828125 120.504882812 -1.5048828125 c 0
 117.397460938 3.4306640625 115.84375 9.4189453125 115.84375 16.458984375 c 0
 115.84375 22.2568359375 116.897460938 28.76953125 119.004882812 35.9951171875 c 0
 120.337890625 41.328125 132.670898438 79.4951171875 156.00390625 150.495117188 c 0
 179.336914062 221.495117188 200.336914062 289.995117188 219.00390625 355.995117188 c 0
 227.670898438 385.995117188 240.670898438 440.995117188 258.00390625 520.995117188 c 0
 275.336914062 600.995117188 284.669921875 644.328125 286.002929688 650.995117188 c 0
 290.669921875 668.995117188 298.502929688 682.662109375 309.502929688 691.995117188 c 0
 320.502929688 701.328125 332.002929688 705.995117188 344.002929688 705.995117188 c 0
 345.040039062 706.044921875 346.059570312 706.069335938 347.060546875 706.069335938 c 0
 359.565429688 706.069335938 369.212890625 702.211914062 376.002929688 694.49609375 c 0
 380.484375 689.404296875 382.724609375 682.506835938 382.724609375 673.8046875 c 0
 382.724609375 668.265625 381.817382812 661.997070312 380.001953125 654.99609375 c 0
 375.334960938 635.663085938 368.66796875 609.330078125 360.000976562 575.997070312 c 0
 351.333984375 542.6640625 340.333984375 500.6640625 327.000976562 449.997070312 c 0
 313.66796875 399.330078125 302.334960938 355.330078125 293.001953125 317.997070312 c 0
 285.668945312 289.997070312 273.8359375 249.330078125 257.502929688 195.997070312 c 0
 241.169921875 142.6640625 229.669921875 101.331054688 223.002929688 71.998046875 c 1
 227.526367188 71.9404296875 232.119140625 71.9111328125 236.780273438 71.9111328125 c 0
 285.713867188 71.9111328125 342.288085938 75.107421875 406.502929688 81.498046875 c 0
 476.8359375 88.498046875 524.3359375 95.3310546875 549.002929688 101.998046875 c 0
 557.002929688 103.998046875 563.669921875 103.665039062 569.002929688 100.998046875 c 0
 574.3359375 98.3310546875 578.168945312 94.3310546875 580.501953125 88.998046875 c 0
 582.834960938 83.6650390625 584.16796875 77.83203125 584.500976562 71.4990234375 c 0
 584.833984375 65.166015625 584.666992188 59.3330078125 584 54 c 0
 581.333007812 42 576.333007812 32.3330078125 569 25 c 0
 561.666992188 17.6669921875 550 12.6669921875 534 10 c 0
EndSplineSet
Validated: 1
EndChar

StartChar: M
Encoding: 77 77 56
Width: 700
GlyphClass: 2
Flags: HMW
HStem: -9.99414 21G<79.001 85.001>
VStem: 248.998 97.001 465.998 89.001
LayerCount: 2
Fore
SplineSet
139 59 m 0
 135 37.6669921875 127.000976562 20.8388671875 115.000976562 8.505859375 c 0
 103.000976562 -3.8271484375 91.0009765625 -9.994140625 79.0009765625 -9.994140625 c 0
 64.1845703125 -9.544921875 56.7763671875 1.7900390625 56.7763671875 24.009765625 c 0
 56.7763671875 34.783203125 58.517578125 48.115234375 62.0009765625 64.0068359375 c 0
 64.0009765625 72.0068359375 68.16796875 85.673828125 74.5009765625 105.006835938 c 0
 80.833984375 124.33984375 89.0009765625 149.672851562 99.0009765625 181.005859375 c 0
 109.000976562 212.338867188 117.66796875 239.671875 125.000976562 263.004882812 c 0
 127.000976562 271.004882812 130.66796875 283.337890625 136.000976562 300.004882812 c 0
 150.66796875 349.337890625 162.500976562 387.837890625 171.500976562 415.504882812 c 0
 180.500976562 443.171875 191.66796875 477.671875 205.000976562 519.004882812 c 0
 218.333984375 560.337890625 229.666992188 592.837890625 239 616.504882812 c 0
 248.333007812 640.171875 256.333007812 656.671875 263 666.004882812 c 0
 272.333007812 680.004882812 284.333007812 690.171875 299 696.504882812 c 0
 311.116210938 701.736328125 322.095703125 704.352539062 331.936523438 704.352539062 c 0
 334.008789062 704.352539062 336.029296875 704.236328125 338 704.004882812 c 0
 366 704.004882812 380 691.671875 380 667.004882812 c 0
 380.060546875 664.336914062 380.090820312 661.510742188 380.090820312 658.526367188 c 0
 380.090820312 628.69140625 377.060546875 583.017578125 371 521.504882812 c 0
 364.333007812 453.837890625 355.666015625 376.670898438 344.999023438 290.00390625 c 0
 334.33203125 203.336914062 327.33203125 146.00390625 323.999023438 118.00390625 c 1
 351.999023438 212.00390625 378.666015625 296.670898438 403.999023438 372.00390625 c 0
 421.999023438 427.336914062 442.33203125 483.00390625 464.999023438 539.00390625 c 0
 487.666015625 595.00390625 505.999023438 637.670898438 519.999023438 667.00390625 c 0
 524.666015625 677.00390625 531.666015625 685.170898438 540.999023438 691.50390625 c 0
 550.33203125 697.836914062 559.33203125 701.669921875 567.999023438 703.002929688 c 0
 576.666015625 704.3359375 584.999023438 704.668945312 592.999023438 704.001953125 c 2
 596.999023438 704.001953125 l 1
 609.499023438 704.001953125 l 2
 612.499023438 704.001953125 616.666015625 703.168945312 621.999023438 701.501953125 c 0
 627.33203125 699.834960938 631.499023438 697.66796875 634.499023438 695.000976562 c 0
 637.499023438 692.333984375 639.999023438 688.166992188 641.999023438 682.5 c 0
 643.999023438 676.833007812 644.666015625 670 643.999023438 662 c 0
 641.999023438 642 626.666015625 544.333007812 597.999023438 369 c 0
 569.33203125 193.666992188 554.999023438 94.6669921875 554.999023438 72 c 0
 554.33203125 32 541.665039062 6.6669921875 516.998046875 -4 c 0
 510.903320312 -6.4375 505.19140625 -7.6572265625 499.862304688 -7.6572265625 c 0
 493.534179688 -7.6572265625 487.74609375 -5.9375 482.498046875 -2.5 c 0
 472.831054688 3.8330078125 467.331054688 17.666015625 465.998046875 38.9990234375 c 0
 465.899414062 40.6533203125 465.849609375 42.513671875 465.849609375 44.580078125 c 0
 465.849609375 98.29296875 499.232421875 291.099609375 565.997070312 623 c 1
 525.997070312 526.333007812 494.330078125 438.333007812 470.997070312 359 c 0
 447.6640625 283 423.331054688 210.833007812 397.998046875 142.5 c 0
 372.665039062 74.1669921875 355.33203125 32.333984375 345.999023438 17.0009765625 c 0
 335.33203125 1.0009765625 315.999023438 -6.9990234375 287.999023438 -6.9990234375 c 0
 275.33203125 -7.666015625 265.665039062 -5.666015625 258.998046875 -0.9990234375 c 0
 252.331054688 3.66796875 248.998046875 10.3349609375 248.998046875 19.001953125 c 0
 248.998046875 51.001953125 253.665039062 124.501953125 262.998046875 239.501953125 c 0
 272.331054688 354.501953125 281.998046875 464.668945312 291.998046875 570.001953125 c 1
 269.498046875 498.001953125 l 2
 261.165039062 471.334960938 254.165039062 448.16796875 248.498046875 428.500976562 c 0
 242.831054688 408.833984375 234.331054688 379.666992188 222.998046875 341 c 0
 211.665039062 302.333007812 202.998046875 273 196.998046875 253 c 0
 188.998046875 225 180.331054688 196.166992188 170.998046875 166.5 c 0
 161.665039062 136.833007812 154.33203125 113.5 148.999023438 96.5 c 0
 143.666015625 79.5 140.333007812 67 139 59 c 0
EndSplineSet
Validated: 1
EndChar

StartChar: N
Encoding: 78 78 57
Width: 700
GlyphClass: 2
Flags: W
HStem: -12.0664 21G<75.9688 82.25>
LayerCount: 2
Fore
SplineSet
429 -14 m 0
 417 -14.6669921875 407.826171875 -12.5029296875 401.493164062 -7.5029296875 c 0
 395.16015625 -2.5029296875 391.327148438 4.330078125 389.994140625 12.9970703125 c 0
 387.327148438 26.330078125 379.16015625 55.6630859375 365.493164062 100.99609375 c 0
 351.826171875 146.329101562 337.826171875 193.49609375 323.493164062 242.49609375 c 0
 309.16015625 291.49609375 294.827148438 346.329101562 280.494140625 406.99609375 c 0
 266.161132812 467.663085938 256.994140625 519.330078125 252.994140625 561.997070312 c 1
 239.661132812 489.330078125 225.328125 421.663085938 209.995117188 358.99609375 c 0
 194.662109375 296.329101562 178.495117188 232.49609375 161.495117188 167.49609375 c 0
 144.495117188 102.49609375 134.662109375 62.99609375 131.995117188 48.99609375 c 0
 127.995117188 27.6630859375 120.495117188 11.99609375 109.495117188 1.99609375 c 0
 99.1826171875 -7.37890625 88.138671875 -12.06640625 76.361328125 -12.06640625 c 0
 75.576171875 -12.06640625 74.787109375 -12.0458984375 73.9951171875 -12.00390625 c 0
 61.328125 -12.00390625 53.9951171875 -6.3369140625 51.9951171875 4.99609375 c 0
 51.3955078125 8.396484375 51.0947265625 12.2763671875 51.0947265625 16.63671875 c 0
 51.0947265625 26.8095703125 52.728515625 39.5966796875 55.9951171875 54.99609375 c 0
 58.662109375 68.3291015625 71.3291015625 119.99609375 93.99609375 209.99609375 c 0
 116.663085938 299.99609375 136.330078125 378.663085938 152.997070312 445.99609375 c 0
 169.6640625 513.329101562 183.997070312 577.99609375 195.997070312 639.99609375 c 0
 197.997070312 653.329101562 201.997070312 664.662109375 207.997070312 673.995117188 c 0
 213.997070312 683.328125 220.997070312 690.161132812 228.997070312 694.494140625 c 0
 236.997070312 698.827148438 244.997070312 701.827148438 252.997070312 703.494140625 c 0
 260.997070312 705.161132812 268.6640625 705.328125 275.997070312 703.995117188 c 0
 303.330078125 703.995117188 317.663085938 691.662109375 318.99609375 666.995117188 c 0
 321.663085938 622.995117188 338.830078125 541.995117188 370.497070312 423.995117188 c 0
 402.1640625 305.995117188 429.997070312 210.662109375 453.997070312 137.995117188 c 1
 470.6640625 200.662109375 492.331054688 291.829101562 518.998046875 411.49609375 c 0
 545.665039062 531.163085938 560.998046875 609.99609375 564.998046875 647.99609375 c 0
 566.998046875 663.99609375 573.165039062 677.49609375 583.498046875 688.49609375 c 0
 593.831054688 699.49609375 604.998046875 704.99609375 616.998046875 704.99609375 c 0
 623.665039062 704.99609375 629.33203125 704.163085938 633.999023438 702.49609375 c 0
 638.666015625 700.829101562 642.166015625 698.829101562 644.499023438 696.49609375 c 0
 646.83203125 694.163085938 648.33203125 690.330078125 648.999023438 684.997070312 c 0
 649.666015625 679.6640625 649.833007812 674.831054688 649.5 670.498046875 c 0
 649.166992188 666.165039062 648.666992188 659.33203125 648 649.999023438 c 0
 647.333007812 639.33203125 636 585.83203125 614 489.499023438 c 0
 592 393.166015625 567.833007812 293.333007812 541.5 190 c 0
 515.166992188 86.6669921875 496.666992188 27 486 11 c 0
 476 -5.6669921875 457 -14 429 -14 c 0
EndSplineSet
Validated: 1
EndChar

StartChar: O
Encoding: 79 79 58
Width: 700
GlyphClass: 2
Flags: HMW
HStem: -24 83.998<246.663 247.667> 636.997 81.001<435.665 447.331>
LayerCount: 2
Fore
SplineSet
235 -24 m 0
 197 -23.3330078125 165.663085938 -10.8349609375 140.99609375 13.498046875 c 0
 116.329101562 37.8310546875 100.49609375 70.498046875 93.49609375 111.498046875 c 0
 90.9169921875 126.603515625 89.6279296875 142.228515625 89.6279296875 158.375 c 0
 89.6279296875 186.053710938 93.4169921875 215.260742188 100.99609375 245.998046875 c 0
 101.663085938 249.331054688 102.99609375 254.998046875 104.99609375 262.998046875 c 0
 111.663085938 292.998046875 117.330078125 316.998046875 121.997070312 334.998046875 c 0
 126.6640625 352.998046875 133.497070312 376.998046875 142.497070312 406.998046875 c 0
 151.497070312 436.998046875 161.6640625 465.498046875 172.997070312 492.498046875 c 0
 184.330078125 519.498046875 196.997070312 544.998046875 210.997070312 568.998046875 c 0
 236.997070312 612.331054688 272.830078125 647.998046875 318.497070312 675.998046875 c 0
 364.1640625 703.998046875 411.331054688 717.998046875 459.998046875 717.998046875 c 0
 484.665039062 717.998046875 507.33203125 712.831054688 527.999023438 702.498046875 c 0
 548.666015625 692.165039062 565.833007812 677.33203125 579.5 657.999023438 c 0
 593.166992188 638.666015625 602.5 613.999023438 607.5 583.999023438 c 0
 609.918945312 569.483398438 611.12890625 554.108398438 611.12890625 537.875976562 c 0
 611.12890625 520.560546875 609.752929688 502.267578125 607 482.999023438 c 0
 601.666992188 449.666015625 594.833984375 413.999023438 586.500976562 375.999023438 c 0
 578.16796875 337.999023438 568.16796875 299.499023438 556.500976562 260.499023438 c 0
 544.833984375 221.499023438 533.666992188 190.666015625 523 167.999023438 c 0
 508.333007812 136.666015625 492.333007812 109.666015625 475 86.9990234375 c 0
 457.666992188 64.33203125 440.166992188 45.83203125 422.5 31.4990234375 c 0
 404.833007812 17.166015625 385.666015625 5.8330078125 364.999023438 -2.5 c 0
 344.33203125 -10.8330078125 323.83203125 -16.5 303.499023438 -19.5 c 0
 283.166015625 -22.5 260.333007812 -24 235 -24 c 0
253.99609375 59.998046875 m 0
 270.663085938 59.998046875 287.330078125 62.1650390625 303.997070312 66.498046875 c 0
 320.6640625 70.8310546875 336.997070312 77.8310546875 352.997070312 87.498046875 c 0
 368.997070312 97.1650390625 384.497070312 109.998046875 399.497070312 125.998046875 c 0
 414.497070312 141.998046875 427.330078125 160.665039062 437.997070312 181.998046875 c 0
 441.997070312 190.665039062 449.1640625 210.665039062 459.497070312 241.998046875 c 0
 469.830078125 273.331054688 480.663085938 310.6640625 491.99609375 353.997070312 c 0
 503.329101562 397.330078125 512.329101562 439.997070312 518.99609375 481.997070312 c 0
 520.928710938 494.750976562 521.89453125 506.903320312 521.89453125 518.453125 c 0
 521.89453125 546.748046875 516.095703125 571.4296875 504.497070312 592.497070312 c 0
 488.1640625 622.1640625 463.6640625 636.997070312 430.997070312 636.997070312 c 0
 397.6640625 636.997070312 366.6640625 623.830078125 337.997070312 597.497070312 c 0
 309.330078125 571.1640625 284.330078125 534.331054688 262.997070312 486.998046875 c 0
 234.330078125 423.665039062 211.663085938 348.665039062 194.99609375 261.998046875 c 0
 190.99609375 240.665039062 188.163085938 220.998046875 186.49609375 202.998046875 c 0
 185.454101562 191.749023438 184.93359375 180.499023438 184.93359375 169.25 c 0
 184.93359375 162.499023438 185.12109375 155.749023438 185.49609375 148.998046875 c 0
 186.49609375 130.998046875 189.329101562 115.498046875 193.99609375 102.498046875 c 0
 198.663085938 89.498046875 206.163085938 79.1650390625 216.49609375 71.498046875 c 0
 226.829101562 63.8310546875 239.329101562 59.998046875 253.99609375 59.998046875 c 0
EndSplineSet
Validated: 1
EndChar

StartChar: P
Encoding: 80 80 59
Width: 700
GlyphClass: 2
Flags: HMW
HStem: 230.001 82<315.998 324.998 315.998 341.664> 630.003 80.998<412.33 462.997>
LayerCount: 2
Fore
SplineSet
177 24 m 0
 174.333007812 10 166.49609375 -0.830078125 153.49609375 -8.4970703125 c 0
 141.536132812 -15.55078125 129.435546875 -19.0771484375 117.194335938 -19.0771484375 c 0
 116.12890625 -19.0771484375 115.063476562 -19.05078125 113.99609375 -18.9970703125 c 0
 100.663085938 -18.9970703125 90.830078125 -14.830078125 84.4970703125 -6.4970703125 c 0
 81.0595703125 -1.9736328125 79.33984375 3.6796875 79.33984375 10.462890625 c 0
 79.33984375 16.17578125 80.5595703125 22.6884765625 82.9970703125 30.0029296875 c 0
 85.6640625 40.669921875 89.6640625 56.5029296875 94.9970703125 77.5029296875 c 0
 100.330078125 98.5029296875 106.330078125 124.502929688 112.997070312 155.502929688 c 0
 119.6640625 186.502929688 125.997070312 216.502929688 131.997070312 245.502929688 c 0
 137.997070312 274.502929688 145.330078125 310.002929688 153.997070312 352.002929688 c 0
 162.6640625 394.002929688 169.997070312 429.002929688 175.997070312 457.002929688 c 0
 185.330078125 500.3359375 198.997070312 557.668945312 216.997070312 629.001953125 c 1
 212.997070312 634.001953125 l 2
 210.330078125 642.001953125 210.663085938 650.168945312 213.99609375 658.501953125 c 0
 217.329101562 666.834960938 222.329101562 674.334960938 228.99609375 681.001953125 c 0
 235.663085938 687.668945312 242.330078125 691.668945312 248.997070312 693.001953125 c 0
 272.997070312 698.334960938 306.997070312 702.66796875 350.997070312 706.000976562 c 0
 394.997070312 709.333984375 425.330078125 711.000976562 441.997070312 711.000976562 c 0
 483.997070312 711.000976562 519.6640625 703.000976562 548.997070312 687.000976562 c 0
 578.330078125 671.000976562 598.997070312 646.833984375 610.997070312 614.500976562 c 0
 617.747070312 596.313476562 621.122070312 576.174804688 621.122070312 554.0859375 c 0
 621.122070312 536.904296875 619.080078125 518.54296875 614.997070312 499.000976562 c 0
 606.330078125 461.66796875 592.497070312 426.500976562 573.497070312 393.500976562 c 0
 554.497070312 360.500976562 532.497070312 332.000976562 507.497070312 308.000976562 c 0
 482.497070312 284.000976562 454.1640625 265.000976562 422.497070312 251.000976562 c 0
 390.830078125 237.000976562 358.330078125 230.000976562 324.997070312 230.000976562 c 0
 276.330078125 230.000976562 238.997070312 233.66796875 212.997070312 241.000976562 c 1
 207.6640625 213.000976562 202.831054688 186.16796875 198.498046875 160.500976562 c 0
 194.165039062 134.833984375 189.83203125 108.166992188 185.499023438 80.5 c 0
 181.166015625 52.8330078125 178.333007812 34 177 24 c 0
422.99609375 630.002929688 m 0
 401.663085938 630.002929688 361.99609375 627.333984375 303.99609375 622.000976562 c 1
 300.663085938 608.66796875 294.330078125 584.000976562 284.997070312 548.000976562 c 0
 275.6640625 512.000976562 266.331054688 475.000976562 256.998046875 437.000976562 c 0
 247.665039062 399.000976562 238.998046875 362.000976562 230.998046875 326.000976562 c 1
 252.248046875 316.625976562 278.477539062 311.938476562 309.6875 311.938476562 c 0
 311.768554688 311.938476562 313.872070312 311.958984375 315.998046875 312.000976562 c 0
 333.998046875 312.000976562 350.665039062 313.333984375 365.998046875 316.000976562 c 0
 381.331054688 318.66796875 394.998046875 322.334960938 406.998046875 327.001953125 c 0
 418.998046875 331.668945312 430.331054688 337.8359375 440.998046875 345.502929688 c 0
 451.665039062 353.169921875 460.665039062 360.836914062 467.998046875 368.50390625 c 0
 475.331054688 376.170898438 482.1640625 385.170898438 488.497070312 395.50390625 c 0
 494.830078125 405.836914062 499.997070312 415.169921875 503.997070312 423.502929688 c 0
 507.997070312 431.8359375 511.830078125 441.502929688 515.497070312 452.502929688 c 0
 519.1640625 463.502929688 521.997070312 472.502929688 523.997070312 479.502929688 c 0
 525.997070312 486.502929688 528.330078125 495.002929688 530.997070312 505.002929688 c 0
 533.397460938 516.203125 534.59765625 526.743164062 534.59765625 536.623046875 c 0
 534.59765625 543.209960938 534.063476562 549.502929688 532.997070312 555.502929688 c 0
 530.330078125 570.502929688 525.163085938 582.502929688 517.49609375 591.502929688 c 0
 509.829101562 600.502929688 500.49609375 608.002929688 489.49609375 614.002929688 c 0
 478.49609375 620.002929688 467.329101562 624.169921875 455.99609375 626.502929688 c 0
 444.663085938 628.8359375 433.663085938 630.002929688 422.99609375 630.002929688 c 0
EndSplineSet
Validated: 1
EndChar

StartChar: Q
Encoding: 81 81 60
Width: 700
GlyphClass: 2
Flags: HMW
HStem: -23.9961 84.002<242.999 286.999> 637.005 80.9971<434.667 446.332>
LayerCount: 2
Fore
SplineSet
436 -206 m 0
 428.446289062 -210.443359375 421.041015625 -212.6640625 413.783203125 -212.6640625 c 0
 410.151367188 -212.6640625 406.556640625 -212.107421875 402.999023438 -210.99609375 c 0
 392.33203125 -207.663085938 383.999023438 -199.99609375 377.999023438 -187.99609375 c 0
 371.999023438 -175.99609375 362.499023438 -153.663085938 349.499023438 -120.99609375 c 0
 336.499023438 -88.3291015625 323.999023438 -54.99609375 311.999023438 -20.99609375 c 1
 298.666015625 -23.1298828125 284.267578125 -24.1962890625 268.802734375 -24.1962890625 c 0
 264.934570312 -24.1962890625 261 -24.1298828125 256.999023438 -23.99609375 c 0
 228.999023438 -23.99609375 204.666015625 -19.3291015625 183.999023438 -9.99609375 c 0
 163.33203125 -0.6630859375 146.33203125 12.3369140625 132.999023438 29.00390625 c 0
 119.666015625 45.6708984375 109.499023438 65.50390625 102.499023438 88.50390625 c 0
 95.08984375 112.848632812 91.47265625 138.78515625 91.47265625 166.670898438 c 0
 91.47265625 191.768554688 94.314453125 218.212890625 99.9990234375 246.002929688 c 0
 125.33203125 375.3359375 161.999023438 481.668945312 209.999023438 565.001953125 c 0
 235.999023438 609.001953125 271.83203125 645.501953125 317.499023438 674.501953125 c 0
 363.166015625 703.501953125 410.333007812 718.001953125 459 718.001953125 c 0
 484.333007812 718.001953125 507 713.334960938 527 704.001953125 c 0
 547 694.668945312 563.833007812 681.001953125 577.5 663.001953125 c 0
 591.166992188 645.001953125 600.5 620.668945312 605.5 590.001953125 c 0
 607.918945312 575.163085938 609.12890625 559.154296875 609.12890625 541.974609375 c 0
 609.12890625 523.6484375 607.752929688 503.991210938 605 483.000976562 c 0
 599 437.000976562 587.666992188 380.833984375 571 314.500976562 c 0
 554.333007812 248.16796875 538.666015625 197.66796875 523.999023438 163.000976562 c 0
 493.999023438 91.0009765625 451.666015625 39.66796875 396.999023438 9.0009765625 c 1
 404.999023438 -10.33203125 413.666015625 -29.9990234375 422.999023438 -49.9990234375 c 0
 432.33203125 -69.9990234375 441.33203125 -88.666015625 449.999023438 -105.999023438 c 0
 458.666015625 -123.33203125 464.666015625 -134.999023438 467.999023438 -140.999023438 c 0
 470.666015625 -148.33203125 470.333007812 -156.33203125 467 -164.999023438 c 0
 463.666992188 -173.666015625 459 -181.833007812 453 -189.5 c 0
 447 -197.166992188 441.333007812 -202.666992188 436 -206 c 0
193.999023438 262.004882812 m 0
 189.958984375 238.974609375 187.938476562 217.353515625 187.938476562 197.139648438 c 0
 187.938476562 184 188.791992188 171.456054688 190.499023438 159.505859375 c 0
 194.83203125 129.172851562 204.33203125 105.005859375 218.999023438 87.005859375 c 0
 233.666015625 69.005859375 252.999023438 60.005859375 276.999023438 60.005859375 c 2
 286.999023438 60.005859375 l 1
 278.999023438 90.005859375 273.666015625 113.338867188 270.999023438 130.005859375 c 0
 270.220703125 136.561523438 269.83203125 142.802734375 269.83203125 148.729492188 c 0
 269.83203125 178.358398438 279.553710938 200.1171875 298.998046875 214.005859375 c 0
 305.665039062 218.672851562 312.33203125 221.505859375 318.999023438 222.505859375 c 0
 325.666015625 223.505859375 331.499023438 221.505859375 336.499023438 216.505859375 c 0
 341.499023438 211.505859375 344.33203125 204.005859375 344.999023438 194.005859375 c 0
 348.33203125 160.672851562 356.33203125 124.33984375 368.999023438 85.0068359375 c 1
 400.33203125 104.33984375 424.999023438 135.33984375 442.999023438 178.006835938 c 0
 446.999023438 188.006835938 453.499023438 208.173828125 462.499023438 238.506835938 c 0
 471.499023438 268.83984375 481.666015625 306.672851562 492.999023438 352.005859375 c 0
 504.33203125 397.338867188 512.665039062 440.671875 517.998046875 482.004882812 c 0
 519.634765625 494.9140625 520.452148438 507.103515625 520.452148438 518.575195312 c 0
 520.452148438 549.1640625 514.634765625 574.641601562 502.998046875 595.004882812 c 0
 486.998046875 623.004882812 462.665039062 637.004882812 429.998046875 637.004882812 c 0
 395.998046875 637.004882812 364.498046875 624.004882812 335.498046875 598.004882812 c 0
 306.498046875 572.004882812 281.665039062 535.671875 260.998046875 489.004882812 c 0
 229.665039062 419.671875 207.33203125 344.004882812 193.999023438 262.004882812 c 0
EndSplineSet
Validated: 1
EndChar

StartChar: R
Encoding: 82 82 61
Width: 700
GlyphClass: 2
Flags: W
HStem: -19.0801 21G<115.793 122.74 470 482.445> 694.06 20G<272.051 278.953>
VStem: 533.897 88.5586<409.03 519.094>
LayerCount: 2
Fore
SplineSet
176 24 m 0
 173.333007812 10 165.66796875 -0.8330078125 153.000976562 -8.5 c 0
 141.34765625 -15.5537109375 129.130859375 -19.080078125 116.349609375 -19.080078125 c 0
 115.237304688 -19.080078125 114.12109375 -19.0537109375 113.000976562 -19 c 0
 100.333984375 -19 90.6669921875 -14.8330078125 84 -6.5 c 0
 80.2958984375 -1.8701171875 78.4443359375 3.9423828125 78.4443359375 10.939453125 c 0
 78.4443359375 16.5361328125 79.62890625 22.8896484375 81.9990234375 30 c 0
 92.666015625 64.6669921875 100.833007812 94.1669921875 106.5 118.5 c 0
 112.166992188 142.833007812 125.333984375 202.666015625 146.000976562 297.999023438 c 0
 148.66796875 310.666015625 155.66796875 337.833007812 167.000976562 379.5 c 0
 178.333984375 421.166992188 187.333984375 460.666992188 194.000976562 498 c 0
 198.66796875 520.666992188 204.16796875 551.333984375 210.500976562 590.000976562 c 0
 216.833984375 628.66796875 221.000976562 652.000976562 223.000976562 660.000976562 c 2
 224.000976562 666.000976562 l 2
 226.000976562 678.66796875 232.66796875 689.66796875 244.000976562 699.000976562 c 0
 254.040039062 709.040039062 265.555664062 714.059570312 278.546875 714.059570312 c 0
 279.359375 714.059570312 280.176757812 714.040039062 281.000976562 714.000976562 c 0
 293.000976562 714.000976562 302.333984375 711.333984375 309.000976562 706.000976562 c 1
 359.66796875 703.333984375 404.66796875 696.166992188 444.000976562 684.5 c 0
 483.333984375 672.833007812 515.000976562 658.333007812 539.000976562 641 c 0
 563.000976562 623.666992188 582.000976562 604 596.000976562 582 c 0
 610.000976562 560 618.333984375 538 621.000976562 516 c 0
 621.970703125 508 622.456054688 499.955078125 622.456054688 491.8671875 c 0
 622.456054688 477.712890625 620.970703125 463.423828125 618.000976562 449 c 0
 614.000976562 432.333007812 608.333984375 417 601.000976562 403 c 0
 593.66796875 389 585.16796875 376.833007812 575.500976562 366.5 c 0
 565.833984375 356.166992188 554.166992188 347 540.5 339 c 0
 526.833007812 331 512.666015625 324.166992188 497.999023438 318.5 c 0
 483.33203125 312.833007812 466.33203125 307.833007812 446.999023438 303.5 c 0
 427.666015625 299.166992188 408.833007812 295.833984375 390.5 293.500976562 c 0
 372.166992188 291.16796875 351.333984375 289.000976562 328.000976562 287.000976562 c 1
 382.66796875 252.333984375 428.500976562 211.833984375 465.500976562 165.500976562 c 0
 466.370117188 164.413085938 532.106445312 81.5439453125 532.106445312 43.2431640625 c 0
 532.106445312 32.6953125 529.571289062 22.9482421875 524.500976562 14.0009765625 c 0
 518.833984375 4.0009765625 511.333984375 -3.9990234375 502.000976562 -9.9990234375 c 0
 494.178710938 -15.3759765625 486.356445312 -18.0654296875 478.534179688 -18.0654296875 c 0
 470 -16.998046875 l 0
 459.333007812 -14.3310546875 451 -6.3310546875 445 7.001953125 c 0
 438.333007812 21.001953125 428.166015625 38.1689453125 414.499023438 58.501953125 c 0
 400.83203125 78.8349609375 383.999023438 101.501953125 363.999023438 126.501953125 c 0
 343.999023438 151.501953125 320.33203125 176.168945312 292.999023438 200.501953125 c 0
 265.666015625 224.834960938 238.333007812 244.334960938 211 259.001953125 c 1
 203.666992188 220.334960938 196.5 174.66796875 189.5 122.000976562 c 0
 182.5 69.333984375 178 36.6669921875 176 24 c 0
278.001953125 498 m 0
 276.668945312 490.666992188 274.172851562 480.833984375 270.505859375 468.500976562 c 0
 266.838867188 456.16796875 263.505859375 445.16796875 260.505859375 435.500976562 c 0
 257.505859375 425.833984375 253.338867188 412.500976562 248.005859375 395.500976562 c 0
 242.672851562 378.500976562 238.672851562 366.333984375 236.005859375 359.000976562 c 1
 243.244140625 357.4765625 252.658203125 356.71484375 264.25 356.71484375 c 0
 272.943359375 356.71484375 282.862304688 357.143554688 294.005859375 358.000976562 c 0
 319.338867188 359.333984375 341.171875 360.833984375 359.504882812 362.500976562 c 0
 377.837890625 364.16796875 396.004882812 366.500976562 414.004882812 369.500976562 c 0
 432.004882812 372.500976562 447.171875 376.000976562 459.504882812 380.000976562 c 0
 471.837890625 384.000976562 483.170898438 389.000976562 493.50390625 395.000976562 c 0
 503.836914062 401.000976562 512.169921875 408.16796875 518.502929688 416.500976562 c 0
 524.8359375 424.833984375 529.3359375 434.333984375 532.002929688 445.000976562 c 0
 533.266601562 450.895507812 533.897460938 456.724609375 533.897460938 462.486328125 c 0
 533.897460938 474.969726562 530.932617188 487.141601562 525.002929688 499.000976562 c 0
 516.3359375 516.333984375 503.668945312 531.666992188 487.001953125 545 c 0
 470.334960938 558.333007812 450.834960938 570.5 428.501953125 581.5 c 0
 406.168945312 592.5 384.501953125 601.333007812 363.501953125 608 c 0
 342.501953125 614.666992188 322.334960938 620 303.001953125 624 c 1
 293.001953125 575.333007812 284.668945312 533.333007812 278.001953125 498 c 0
EndSplineSet
Validated: 1
EndChar

StartChar: S
Encoding: 83 83 62
Width: 700
GlyphClass: 2
Flags: HMW
HStem: -29 85<232.337 236.001> 632 76.002 645.001 79.001<481 481.001>
LayerCount: 2
Fore
SplineSet
58 66 m 0xa0
 56.71875 72.91796875 56.0791015625 79.3447265625 56.0791015625 85.2783203125 c 0
 56.0791015625 94.7841796875 57.7216796875 103.026367188 61.0048828125 110.00390625 c 0
 66.337890625 121.336914062 74.6708984375 130.00390625 86.00390625 136.00390625 c 0
 94.00390625 139.336914062 100.50390625 141.669921875 105.50390625 143.002929688 c 0
 110.50390625 144.3359375 115.50390625 144.668945312 120.50390625 144.001953125 c 0
 125.50390625 143.334960938 130.00390625 140.66796875 134.00390625 136.000976562 c 0
 138.00390625 131.333984375 142.00390625 124.666992188 146.00390625 116 c 0
 152.670898438 98 164.50390625 83.5 181.50390625 72.5 c 0
 198.50390625 61.5 219.670898438 56 245.00390625 56 c 0
 259.670898438 56 275.670898438 58.1669921875 293.00390625 62.5 c 0
 310.336914062 66.8330078125 327.669921875 73.5 345.002929688 82.5 c 0
 362.3359375 91.5 378.668945312 102 394.001953125 114 c 0
 409.334960938 126 422.501953125 140.166992188 433.501953125 156.5 c 0
 444.501953125 172.833007812 452.001953125 190 456.001953125 208 c 0
 458.001953125 218 459.501953125 227 460.501953125 235 c 0
 461.501953125 243 461.334960938 251.666992188 460.001953125 261 c 0
 458.668945312 270.333007812 456.001953125 278.833007812 452.001953125 286.5 c 0
 448.001953125 294.166992188 441.501953125 301.833984375 432.501953125 309.500976562 c 0
 423.501953125 317.16796875 412.668945312 324.000976562 400.001953125 330.000976562 c 0
 387.334960938 336.000976562 371.16796875 341.500976562 351.500976562 346.500976562 c 0
 331.833984375 351.500976562 309.666992188 355.333984375 285 358.000976562 c 0
 263.666992188 360.66796875 245 367.000976562 229 377.000976562 c 0
 213 387.000976562 201 399.16796875 193 413.500976562 c 0
 185 427.833984375 179.833007812 442.833984375 177.5 458.500976562 c 0
 176.5390625 464.952148438 176.05859375 471.430664062 176.05859375 477.938476562 c 0
 176.05859375 487.235351562 177.0390625 496.588867188 179 506.000976562 c 0
 184.333007812 528.66796875 193 550.500976562 205 571.500976562 c 0
 217 592.500976562 232.666992188 612.333984375 252 631.000976562 c 0
 271.333007812 649.66796875 293 665.834960938 317 679.501953125 c 0
 341 693.168945312 368.666992188 704.001953125 400 712.001953125 c 0
 431.333007812 720.001953125 464 724.001953125 498 724.001953125 c 0xa0
 514.666992188 724.001953125 537.166992188 722.501953125 565.5 719.501953125 c 0
 593.833007812 716.501953125 613 712.668945312 623 708.001953125 c 0
 633.666992188 703.334960938 640.333984375 696.001953125 643.000976562 686.001953125 c 0
 644.067382812 682.001953125 644.6015625 677.895507812 644.6015625 673.681640625 c 0
 644.6015625 667.362304688 643.401367188 660.801757812 641.000976562 654.001953125 c 0
 638.333984375 646.001953125 634.333984375 639.668945312 629.000976562 635.001953125 c 0
 623.66796875 630.334960938 618.000976562 627.66796875 612.000976562 627.000976562 c 0
 606.000976562 626.333984375 600.500976562 626.166992188 595.500976562 626.5 c 0
 590.500976562 626.833007812 585.333984375 628 580.000976562 630 c 0
 579.333984375 630 577.333984375 630.666992188 574.000976562 632 c 0xc0
 564.000976562 634.666992188 556.000976562 636.833984375 550.000976562 638.500976562 c 0
 544.000976562 640.16796875 534.000976562 641.66796875 520.000976562 643.000976562 c 0
 506.000976562 644.333984375 490.000976562 645.000976562 472.000976562 645.000976562 c 0
 444.000976562 645.000976562 416.16796875 640.500976562 388.500976562 631.500976562 c 0
 360.833984375 622.500976562 336.833984375 609.000976562 316.500976562 591.000976562 c 0
 296.16796875 573.000976562 283.66796875 553.000976562 279.000976562 531.000976562 c 0
 277.413085938 524.118164062 276.618164062 517.516601562 276.618164062 511.194335938 c 0
 276.618164062 493.633789062 282.74609375 478.236328125 295.000976562 465.000976562 c 0
 311.66796875 447.000976562 339.000976562 437.333984375 377.000976562 436.000976562 c 0
 411.000976562 434.000976562 440.333984375 428.16796875 465.000976562 418.500976562 c 0
 489.66796875 408.833984375 508.500976562 397.166992188 521.500976562 383.5 c 0
 534.500976562 369.833007812 544.16796875 353.833007812 550.500976562 335.5 c 0
 556.833984375 317.166992188 560.000976562 299 560.000976562 281 c 0
 560.000976562 263 557.66796875 244.333007812 553.000976562 225 c 0
 545.66796875 194.333007812 534.000976562 165.5 518.000976562 138.5 c 0
 502.000976562 111.5 483.16796875 87.8330078125 461.500976562 67.5 c 0
 439.833984375 47.1669921875 415.833984375 29.6669921875 389.500976562 15 c 0
 363.16796875 0.3330078125 335.66796875 -10.6669921875 307.000976562 -18 c 0
 278.333984375 -25.3330078125 250.000976562 -29 222.000976562 -29 c 0
 178.66796875 -29 142.16796875 -19.8330078125 112.500976562 -1.5 c 0
 82.833984375 16.8330078125 64.6669921875 39.3330078125 58 66 c 0xa0
EndSplineSet
Validated: 1
EndChar

